<?xml version="1.0" encoding="utf-8"?>
<!-- Generator: Adobe Illustrator 28.1.0, SVG Export Plug-In . SVG Version: 6.00 Build 0)  -->
<svg version="1.1" id="b02dac80-722e-451b-a8d1-a30b24cf972e"
	 xmlns="http://www.w3.org/2000/svg" xmlns:xlink="http://www.w3.org/1999/xlink" x="0px" y="0px" viewBox="0 0 44 44"
	 style="enable-background:new 0 0 44 44;" xml:space="preserve">
<style type="text/css">
	.st0{fill:#A4D178;}
</style>
<path class="st0" d="M20.9,19.6c-1.8,2.2-4.4,3.4-7.2,3.4s-5.4-1.2-7.2-3.4c-0.2-0.3-0.2-0.7,0.1-0.9c0.3-0.2,0.7-0.2,0.9,0.1
	c1.5,1.8,3.8,2.9,6.1,2.9s4.6-1.1,6.1-2.9c0.2-0.3,0.6-0.3,0.9-0.1C21.1,18.9,21.1,19.3,20.9,19.6L20.9,19.6z M6.9,11.7V9.9
	C6.9,8.9,7.7,8,8.8,8s1.9,0.9,1.9,1.9v1.8c0,1.1-0.9,1.9-1.9,1.9C7.7,13.6,6.9,12.8,6.9,11.7z M8.2,11.7c0,0.3,0.3,0.6,0.6,0.6
	s0.6-0.3,0.6-0.6V9.9c0-0.3-0.3-0.6-0.6-0.6S8.2,9.6,8.2,9.9V11.7z M16.7,11.7V9.9c0-1.1,0.9-1.9,1.9-1.9c1.1,0,1.9,0.9,1.9,1.9v1.8
	c0,1.1-0.9,1.9-1.9,1.9C17.6,13.6,16.7,12.8,16.7,11.7z M18,11.7c0,0.3,0.3,0.6,0.6,0.6c0.3,0,0.6-0.3,0.6-0.6V9.9
	c0-0.3-0.3-0.6-0.6-0.6c-0.3,0-0.6,0.3-0.6,0.6V11.7z M44,30.3C44,37.8,37.8,44,30.3,44s-13.7-6.2-13.7-13.7c0-1.1,0.1-2.2,0.4-3.2
	c-1,0.3-2.1,0.4-3.2,0.4C6.2,27.4,0,21.3,0,13.7S6.2,0,13.7,0s13.7,6.2,13.7,13.7c0,1.1-0.1,2.2-0.4,3.2c1-0.2,2.1-0.4,3.2-0.4
	C37.8,16.6,44,22.7,44,30.3z M17.4,25.6c1.4-3.8,4.4-6.8,8.2-8.2c0.4-1.2,0.5-2.4,0.5-3.7c0-6.8-5.6-12.4-12.4-12.4
	S1.3,6.9,1.3,13.7s5.6,12.4,12.4,12.4C15,26.1,16.2,26,17.4,25.6z M42.7,30.3c0-6.8-5.6-12.4-12.4-12.4s-12.4,5.6-12.4,12.4
	s5.6,12.4,12.4,12.4S42.7,37.1,42.7,30.3z M30.3,32.5c-2.8,0-5.4,1.2-7.2,3.4c-0.2,0.3-0.2,0.7,0.1,0.9c0.3,0.2,0.7,0.2,0.9-0.1
	c1.5-1.8,3.8-2.9,6.1-2.9c2.4,0,4.6,1.1,6.1,2.9c0.1,0.2,0.3,0.2,0.5,0.2c0.1,0,0.3,0,0.4-0.1c0.3-0.2,0.3-0.6,0.1-0.9
	C35.7,33.7,33.1,32.5,30.3,32.5L30.3,32.5z M23.4,28.3v-1.8c0-1.1,0.9-1.9,1.9-1.9c1.1,0,1.9,0.9,1.9,1.9v1.8c0,1.1-0.9,1.9-1.9,1.9
	C24.3,30.2,23.4,29.3,23.4,28.3z M24.7,28.3c0,0.3,0.3,0.6,0.6,0.6c0.3,0,0.6-0.3,0.6-0.6v-1.8c0-0.3-0.3-0.6-0.6-0.6
	c-0.3,0-0.6,0.3-0.6,0.6V28.3z M33.3,28.3v-1.8c0-1.1,0.9-1.9,1.9-1.9s1.9,0.9,1.9,1.9v1.8c0,1.1-0.9,1.9-1.9,1.9
	S33.3,29.3,33.3,28.3z M34.6,28.3c0,0.3,0.3,0.6,0.6,0.6c0.3,0,0.6-0.3,0.6-0.6v-1.8c0-0.3-0.3-0.6-0.6-0.6c-0.3,0-0.6,0.3-0.6,0.6
	L34.6,28.3L34.6,28.3z"/>
</svg>
