<?xml version="1.0" encoding="utf-8"?>
<!-- Generator: Adobe Illustrator 28.1.0, SVG Export Plug-In . SVG Version: 6.00 Build 0)  -->
<svg version="1.1" id="b02dac80-722e-451b-a8d1-a30b24cf972e"
	 xmlns="http://www.w3.org/2000/svg" xmlns:xlink="http://www.w3.org/1999/xlink" x="0px" y="0px" viewBox="0 0 49.9 44"
	 style="enable-background:new 0 0 49.9 44;" xml:space="preserve">
<style type="text/css">
	.st0{fill:#A4D178;}
</style>
<g>
	<path class="st0" d="M40.2,23.8L40.2,23.8c-0.4,0-0.7,0.3-0.7,0.7c0,0.4,0.3,0.7,0.7,0.7h0c0.4,0,0.7-0.3,0.7-0.7
		C41,24.1,40.6,23.8,40.2,23.8z"/>
	<path class="st0" d="M15.3,23.8L15.3,23.8c-0.4,0-0.7,0.3-0.7,0.7c0,0.4,0.3,0.7,0.7,0.7h0c0.4,0,0.7-0.3,0.7-0.7
		C16,24.1,15.7,23.8,15.3,23.8z"/>
	<path class="st0" d="M48.1,26h-2v-4.7c0-1.8-0.8-3.5-2.1-4.7c0.4-0.6,0.7-1.4,0.7-2.2v-2.5c0.3-0.4,0.5-0.9,0.5-1.5
		c0-0.6-0.2-1.1-0.5-1.5V7.7C44.7,3.5,41.3,0,37,0c-4.3,0-7.7,3.5-7.7,7.7v0.8c0,0.4,0.3,0.7,0.7,0.7c0.4,0,0.7-0.3,0.7-0.7V7.7
		c0-3.5,2.8-6.3,6.3-6.3c3.5,0,6.3,2.8,6.3,6.3V8c-0.1,0-0.3,0-0.5,0c-0.2,0-0.3,0-0.5,0.1c0-0.1-0.1-0.2-0.1-0.3
		C42,7.3,41.7,7,41.3,7c-1.5-0.2-2.5-0.8-3.1-1.2c-0.2-0.1-0.4-0.2-0.6-0.1c-0.2,0-0.4,0.2-0.5,0.4c-0.7,1.2-1.9,1.9-3.9,2.2
		c-0.6,0.1-1,0.6-1.1,1.2c0,0.2,0,0.4,0,0.4v1.8c0,1.3,0.5,2.5,1.3,3.5c-0.2,0-0.3,0.1-0.5,0.2c0,0-0.1,0-0.1,0
		c-0.5,0.2-1,0.4-1.5,0.8c-0.4-0.5-0.7-1.1-0.7-1.7v-2.3c0-0.4-0.3-0.7-0.7-0.7c-0.4,0-0.7,0.3-0.7,0.7v2.3c0,1,0.4,2,1,2.7
		c-1,1.1-1.6,2.6-1.6,4.2V26h-7.5v-4.7c0-2.7-1.7-5.1-4.2-5.9c0,0-0.1,0-0.1,0c-0.2-0.1-0.3-0.1-0.5-0.2c0.6-0.7,1-1.5,1.2-2.4
		c0.2,0,0.3,0,0.5,0c1.3,0,2.4-1.1,2.4-2.4c0-0.7-0.3-1.4-0.8-1.8c0-0.1,0.1-0.3,0.1-0.4V6.8c0-2.6-2.1-4.7-4.7-4.7h-1.2
		c0,0-0.1,0-0.1,0c-0.5-0.5-1.2-0.9-2-0.9h-1.4c-3,0-5.4,2.4-5.4,5.4v1.8c0,0.1,0,0.2,0,0.2c-0.5,0.5-0.8,1.1-0.8,1.8
		c0,1.3,1.1,2.4,2.4,2.4c0.2,0,0.3,0,0.5-0.1c0.2,0.9,0.6,1.7,1.2,2.4c-0.2,0-0.3,0.1-0.5,0.2c0,0-0.1,0-0.1,0c-2.3,0.8-4,3-4.2,5.5
		c0,0.4,0.3,0.7,0.7,0.8c0,0,0,0,0,0c0.4,0,0.7-0.3,0.7-0.7c0.1-1.8,1.2-3.3,2.7-4l3.9,7.4V26H5.2v-1.5c0-0.4-0.3-0.7-0.7-0.7
		s-0.7,0.3-0.7,0.7V26h-2c-1,0-1.8,0.8-1.8,1.8v1.4c0,1,0.8,1.8,1.8,1.8h22l-4.4,8.8h-1.4c-0.7,0-1.3,0.6-1.3,1.3v1.7
		c0,0.7,0.6,1.3,1.3,1.3H32c0.7,0,1.3-0.6,1.3-1.3V41c0-0.7-0.6-1.3-1.3-1.3h-1.4l-4.4-8.8h22c1,0,1.8-0.8,1.8-1.8v-1.4
		C49.9,26.8,49.1,26,48.1,26z M44.7,21.3V26h-6.5v-1.7L42,17C43.6,17.8,44.7,19.4,44.7,21.3z M35,16.5h0.2c0.2,0.1,0.3,0.1,0.5,0.2
		l-0.6,1.6l-0.9-1.7C34.5,16.5,34.7,16.5,35,16.5z M37.1,16.9c0.1,0,0.2,0,0.3,0c0,0,0.1,0,0.1,0c0.1,0,0.1,0,0.2,0l1.1,3l-1.4,2.6
		L36,19.9L37.1,16.9z M39.7,18.2l-0.6-1.6c0.2-0.1,0.3-0.1,0.5-0.2h0.3c0.3,0,0.5,0,0.7,0.1L39.7,18.2z M42,15.4
		C41.9,15.3,41.9,15.3,42,15.4c-0.3-0.1-0.5-0.1-0.6-0.2c0.6-0.7,1-1.5,1.2-2.3c0.1,0,0.2,0,0.3,0c0.2,0,0.3,0,0.5,0v1.6
		c0,0.5-0.1,1-0.4,1.4C42.6,15.6,42.3,15.5,42,15.4z M42.8,9.4c0.5,0,1,0.4,1,1c0,0.5-0.4,1-1,1c-0.1,0-0.1,0-0.2,0V9.8
		c0-0.1,0-0.3,0-0.4C42.7,9.4,42.8,9.4,42.8,9.4z M33.6,9.8c0,0,0-0.1,0-0.2c2-0.4,3.4-1.1,4.3-2.3c0.7,0.4,1.7,0.8,3,1.1
		c0.2,0.5,0.3,0.9,0.3,1.4v1.8c0,2.1-1.7,3.8-3.7,3.9c-1,0-2-0.4-2.7-1.1c-0.7-0.7-1.1-1.7-1.1-2.7V9.8z M12.5,22.6l-1.4-2.6l1.1-3
		c0.1,0,0.2,0,0.3,0c0.1,0,0.2,0,0.3,0l1.1,3L12.5,22.6z M8.7,10.1c0-0.1,0-0.1,0-0.2c1,0,2.1-0.1,3.1-0.4c0.5-0.1,0.9-0.3,1.2-0.6
		c0.3,0.2,0.6,0.4,1,0.5c0.7,0.2,1.5,0.3,2.2,0.3c0,0.1,0,0.3,0,0.4v1.6c0,2.1-1.7,3.8-3.8,3.8c-2.1,0-3.8-1.7-3.8-3.8V10.1z
		 M14.7,18.2l-0.6-1.6c0.2-0.1,0.3-0.1,0.5-0.2h0.2c0.3,0,0.5,0,0.7,0.1L14.7,18.2z M18.1,11.4c-0.1,0-0.3,0-0.4-0.1v-1.3
		c0-0.1,0-0.3,0-0.4c0.3,0,0.6,0,0.8-0.1c0,0,0,0,0,0c0.3,0.2,0.5,0.5,0.5,0.8C19.1,10.9,18.6,11.4,18.1,11.4z M15.1,3.6
		c1.8,0,3.2,1.4,3.2,3.2v1.4c-0.9,0.1-2.5,0.2-3.9-0.2c-0.1,0-0.3-0.1-0.4-0.2c0.3-0.6,0.5-1.2,0.5-1.9v-2c0-0.1,0-0.2,0-0.3H15.1z
		 M6.6,6.6c0-2.1,1.7-3.9,3.9-3.9h1.4c0.6,0,1.1,0.5,1.1,1.1v2c0,1-0.7,1.9-1.7,2.2C9.6,8.5,7.5,8.4,6.6,8.3V6.6z M5.8,10.4
		c0-0.3,0.1-0.5,0.3-0.7c0.1,0,0.1,0,0.2,0c0.2,0,0.5,0.1,0.8,0.1c0,0.1,0,0.2,0,0.2v1.3c-0.1,0-0.2,0.1-0.4,0.1
		C6.3,11.4,5.8,10.9,5.8,10.4z M10,16.5h0.2c0.2,0.1,0.3,0.1,0.5,0.2l-0.6,1.6l-0.9-1.7C9.5,16.5,9.8,16.5,10,16.5z M13.2,24.3
		l3.9-7.4c1.6,0.8,2.7,2.4,2.7,4.3V26h-6.5V24.3z M24.2,33.3v6.5H21L24.2,33.3z M31.8,42.5H18.1v-1.3h13.6V42.5z M25.7,39.8v-6.5
		l3.2,6.5H25.7z M48.4,29.2c0,0.2-0.1,0.3-0.3,0.3H1.8c-0.2,0-0.3-0.1-0.3-0.3v-1.4c0-0.2,0.1-0.3,0.3-0.3h30c0.4,0,0.7-0.3,0.7-0.7
		c0-0.4-0.3-0.7-0.7-0.7h-1.6v-4.7c0-1.9,1.1-3.5,2.7-4.3l3.9,7.4V26h-1.4c-0.4,0-0.7,0.3-0.7,0.7c0,0.4,0.3,0.7,0.7,0.7h12.8
		c0.2,0,0.3,0.1,0.3,0.3V29.2z"/>
	<path class="st0" d="M13,32.1c-0.3-0.3-0.7-0.3-1,0L11.1,33c-0.3,0.3-0.3,0.7,0,1c0.3,0.3,0.7,0.3,1,0l0.3-0.3l0.3,0.3
		c0.1,0.1,0.3,0.2,0.5,0.2c0.2,0,0.4-0.1,0.5-0.2c0.3-0.3,0.3-0.7,0-1L13,32.1z"/>
	<path class="st0" d="M37.9,32.1c-0.3-0.3-0.7-0.3-1,0L36.1,33c-0.3,0.3-0.3,0.7,0,1c0.3,0.3,0.7,0.3,1,0l0.3-0.3l0.3,0.3
		c0.1,0.1,0.3,0.2,0.5,0.2c0.2,0,0.4-0.1,0.5-0.2c0.3-0.3,0.3-0.7,0-1L37.9,32.1z"/>
</g>
</svg>
