<?xml version="1.0" encoding="utf-8"?>
<!-- Generator: Adobe Illustrator 28.1.0, SVG Export Plug-In . SVG Version: 6.00 Build 0)  -->
<svg version="1.1" id="b02dac80-722e-451b-a8d1-a30b24cf972e"
	 xmlns="http://www.w3.org/2000/svg" xmlns:xlink="http://www.w3.org/1999/xlink" x="0px" y="0px" viewBox="0 0 42.9 44"
	 style="enable-background:new 0 0 42.9 44;" xml:space="preserve">
<style type="text/css">
	.st0{fill:#A4D178;}
</style>
<path class="st0" d="M42.4,16.3c-3.8-0.8-7.5-0.3-11.3,1.3c-0.3,0.1-0.5,0.5-0.4,0.8l0.4,1.2c-1.7,0-3.1-0.4-4.6-0.9
	c-0.4-0.1-0.9-0.3-1.4-0.4c-2.2-0.6-4.4-0.1-6.1,1.5l-0.2,0.2c-2.9,0.6-4.8,0.6-7.2-0.2l0.5-1.4c0.1-0.3,0-0.7-0.4-0.8
	c-3.7-1.6-7.5-2-11.3-1.3C0.2,16.4,0,16.6,0,16.9v16.2c0,0.4,0.3,0.7,0.7,0.7h5.7c0.3,0,0.5-0.2,0.6-0.4l0.3-0.7
	c2.2,0.8,3.9,2.6,4.8,3.5c0.1,0.1,0.2,0.2,0.3,0.3l6.7,6.9c0.4,0.4,1,0.7,1.6,0.7c0,0,0,0,0,0c0.6,0,1.2-0.2,1.6-0.7
	c0.3-0.3,0.5-0.6,0.6-0.9c1,0.6,2.3,0.4,3.1-0.4c0.4-0.4,0.7-1,0.8-1.6c0.2,0.1,0.5,0.1,0.7,0.1c0.7,0,1.4-0.3,1.9-0.8
	c0.5-0.5,0.7-1.1,0.8-1.7c0.8,0.2,1.7-0.1,2.4-0.7c1-1,1-2.5,0.2-3.5c0.2,0,0.5-0.1,0.7-0.2c0.7-0.3,1.3-0.6,1.9-0.9
	c0.2-0.1,0.3-0.1,0.4-0.2l0.3,0.9c0.1,0.3,0.3,0.4,0.6,0.4h5.7c0.4,0,0.7-0.3,0.7-0.7V16.9C42.9,16.6,42.7,16.4,42.4,16.3L42.4,16.3
	z M5.9,32.5H1.3v-15c3.1-0.5,6.3-0.2,9.4,1.1L5.9,32.5z M31.5,36.4c-0.5,0.5-1.4,0.5-1.9,0l-4.1-4.2c-0.3-0.3-0.7-0.3-0.9,0
	c-0.3,0.3-0.3,0.7,0,0.9l3.7,3.8c0,0,0,0,0,0c0,0,0,0,0,0c0.5,0.5,0.5,1.4,0,1.9c-0.5,0.5-1.4,0.5-1.9,0l-4.3-4.4
	c-0.3-0.3-0.7-0.3-0.9,0c-0.3,0.3-0.3,0.7,0,0.9l3.7,3.8c0,0,0,0,0,0c0,0,0,0,0,0v0c0.2,0.2,0.4,0.6,0.4,0.9c0,0.4-0.1,0.7-0.4,0.9
	c-0.5,0.5-1.4,0.5-1.9,0l-4.7-4.7c-0.3-0.3-0.7-0.3-0.9,0c-0.3,0.3-0.3,0.7,0,0.9l3.7,3.8c0,0,0,0,0,0c0,0,0,0,0,0
	c0.4,0.4,0.4,1,0,1.4c-0.2,0.2-0.4,0.3-0.7,0.3c-0.3,0-0.5-0.1-0.7-0.3l-6.7-6.9c-0.1-0.1-0.2-0.2-0.3-0.3c-1-1.1-2.8-3-5.3-3.9
	L11.3,21c1.4,0.5,2.7,0.7,4.1,0.7c0.6,0,1.2,0,1.8-0.1L15.6,23c-0.7,0.7-1.1,1.6-1.1,2.6v6.6c0,0.4,0.3,0.7,0.7,0.7
	c2.8,0,5.7-1.8,5.7-4.8c0-1,0.8-1.8,1.4-2.3l7.1,7.1c0.3,0.3,0.7,0.6,1.2,0.8l0.9,0.9C32,35,32,35.9,31.5,36.4L31.5,36.4z
	 M34.6,31.5c-0.6,0.3-1.2,0.6-1.8,0.8c-0.8,0.3-1.7,0.2-2.4-0.5l-7.5-7.5c-0.2-0.2-0.6-0.3-0.9,0c-0.1,0.1-0.2,0.1-0.3,0.2
	c-0.7,0.6-2.1,1.7-2.1,3.4c0,1.2-0.7,2-1.3,2.5c-0.7,0.5-1.5,0.8-2.4,0.9v-5.9c0-0.6,0.2-1.2,0.7-1.6l3.5-3.3
	c1.3-1.2,3.1-1.7,4.9-1.2c0.5,0.1,0.9,0.3,1.3,0.4c1.6,0.5,3.3,1,5.4,1l3.6,10.4C35,31.3,34.8,31.4,34.6,31.5L34.6,31.5z M41.6,32.5
	H37l-4.8-14c3.1-1.2,6.3-1.6,9.4-1.1V32.5z M6.3,15.2h8.8V17c0,0.4,0.3,0.7,0.7,0.7h11.4c0.4,0,0.7-0.3,0.7-0.7v-1.8h8.8
	c0.4,0,0.7-0.3,0.7-0.7v-2.7c0-2.2-1.3-4.2-3.3-5C34.6,6,35,5.1,35,4c0-2.2-1.8-4-4.1-4c-2.3,0-4.1,1.8-4.1,4c0,1,0.4,2,1,2.7
	c-1.2,0.5-2.3,1.5-2.8,2.8c-0.2-0.1-0.4-0.2-0.6-0.3c0.6-0.7,1-1.7,1-2.7c0-2.2-1.8-4-4.1-4c-2.3,0-4.1,1.8-4.1,4c0,1,0.4,2,1,2.7
	c-0.2,0.1-0.4,0.2-0.6,0.3c-0.6-1.3-1.6-2.2-2.8-2.8C15.6,6,16,5.1,16,4c0-2.2-1.8-4-4.1-4C9.7,0,7.9,1.8,7.9,4c0,1,0.4,2,1,2.7
	c-2,0.9-3.3,2.8-3.3,5v2.7C5.6,14.9,5.9,15.2,6.3,15.2L6.3,15.2z M26.5,16.4H16.4v-2.1c0-2,1.4-3.7,3.3-4.1c0.5,0.3,1.1,0.4,1.8,0.4
	c0.6,0,1.2-0.1,1.8-0.4c1.9,0.4,3.3,2.1,3.3,4.1L26.5,16.4L26.5,16.4z M31,1.3c1.5,0,2.8,1.2,2.8,2.7S32.5,6.8,31,6.8
	c-1.5,0-2.8-1.2-2.8-2.7S29.4,1.3,31,1.3z M29.2,7.7c0.5,0.3,1.1,0.4,1.8,0.4c0.6,0,1.2-0.1,1.8-0.4c1.9,0.4,3.3,2.1,3.3,4.1v2.1
	h-8.2c-0.1-1.4-0.7-2.6-1.6-3.5C26.6,9,27.8,8,29.2,7.7z M21.5,3.8c1.5,0,2.8,1.2,2.8,2.7S23,9.3,21.5,9.3c-1.5,0-2.8-1.2-2.8-2.7
	S19.9,3.8,21.5,3.8L21.5,3.8z M12,1.3c1.5,0,2.8,1.2,2.8,2.7S13.5,6.8,12,6.8c-1.5,0-2.8-1.2-2.8-2.7S10.4,1.3,12,1.3z M6.9,11.8
	c0-2,1.4-3.7,3.3-4.1c0.5,0.3,1.1,0.4,1.8,0.4c0.6,0,1.2-0.1,1.8-0.4c1.4,0.3,2.5,1.3,3,2.7c-0.9,0.9-1.5,2.1-1.6,3.5H6.9V11.8z"/>
</svg>
