<?xml version="1.0" encoding="utf-8"?>
<!-- Generator: Adobe Illustrator 28.1.0, SVG Export Plug-In . SVG Version: 6.00 Build 0)  -->
<svg version="1.1" id="b02dac80-722e-451b-a8d1-a30b24cf972e"
	 xmlns="http://www.w3.org/2000/svg" xmlns:xlink="http://www.w3.org/1999/xlink" x="0px" y="0px" viewBox="0 0 37.9 44"
	 style="enable-background:new 0 0 37.9 44;" xml:space="preserve">
<style type="text/css">
	.st0{fill:#A4D178;}
</style>
<g id="outline">
	<g>
		<path class="st0" d="M0.8,37.9h11.2l-1.1,4.6H9.9c-0.4,0-0.8,0.3-0.8,0.8c0,0.4,0.3,0.8,0.8,0.8h6.1c0.4,0,0.8-0.3,0.8-0.8
			c0-0.4-0.3-0.8-0.8-0.8h-3.6l1.1-4.6h11l1.1,4.6H22c-0.4,0-0.8,0.3-0.8,0.8c0,0.4,0.3,0.8,0.8,0.8h6.1c0.4,0,0.8-0.3,0.8-0.8
			c0-0.4-0.3-0.8-0.8-0.8h-0.9L26,37.9h11.2c0.4,0,0.8-0.3,0.8-0.8c0,0,0,0,0,0V9.9c0-0.4-0.3-0.8-0.8-0.8l-3,0
			c-0.4,0-0.8,0.3-0.8,0.8c0,0.4,0.3,0.8,0.8,0.8l2.3,0v19.7H1.5V10.6h2.3c0.4,0,0.8-0.3,0.8-0.8c0-0.4-0.3-0.8-0.8-0.8h-3
			C0.3,9.1,0,9.4,0,9.9c0,0,0,0,0,0v27.3C0,37.6,0.3,37.9,0.8,37.9C0.8,37.9,0.8,37.9,0.8,37.9z M36.4,31.9v4.6H1.5v-4.6H36.4z"/>
		<path class="st0" d="M17.4,34.9h3c0.4,0,0.8-0.3,0.8-0.8c0-0.4-0.3-0.8-0.8-0.8h-3c-0.4,0-0.8,0.3-0.8,0.8
			C16.7,34.6,17,34.9,17.4,34.9z"/>
		<circle class="st0" cx="19" cy="43.2" r="0.8"/>
		<path class="st0" d="M19,25.8c7.1,0,12.9-5.8,12.9-12.9S26.1,0,19,0S6.1,5.8,6.1,12.9C6.1,20,11.8,25.8,19,25.8z M18.2,1.6v0.7
			C18.2,2.7,18.5,3,19,3s0.8-0.3,0.8-0.8V1.6c5.7,0.4,10.2,4.9,10.6,10.6h-0.7c-0.4,0-0.8,0.3-0.8,0.8c0,0.4,0.3,0.8,0.8,0.8h0.7
			c-0.4,5.7-4.9,10.2-10.6,10.6v-0.7c0-0.4-0.3-0.8-0.8-0.8s-0.8,0.3-0.8,0.8v0.7C12.5,23.9,8,19.3,7.6,13.7h0.7
			c0.4,0,0.8-0.3,0.8-0.8c0-0.4-0.3-0.8-0.8-0.8H7.6C8,6.5,12.5,1.9,18.2,1.6z"/>
		<path class="st0" d="M19.9,15c0.3,0.3,0.8,0.3,1.1,0c0.3-0.3,0.3-0.8,0-1.1l-1.3-1.3V8.3c0-0.4-0.3-0.8-0.8-0.8s-0.8,0.3-0.8,0.8
			v4.6c0,0.2,0.1,0.4,0.2,0.5L19.9,15z"/>
		<path class="st0" d="M19,6.1c3.8,0,6.8,3.1,6.8,6.8c0,1.8-0.7,3.5-2,4.8c-0.3,0.3-0.3,0.8,0,1.1c0.3,0.3,0.8,0.3,1.1,0
			c0,0,0,0,0,0c3.3-3.3,3.2-8.6,0-11.8c-1.6-1.6-3.7-2.4-5.9-2.4c-0.4,0-0.8,0.3-0.8,0.8S18.5,6.1,19,6.1z"/>
	</g>
</g>
</svg>
