<?xml version="1.0" encoding="utf-8"?>
<!-- Generator: Adobe Illustrator 28.1.0, SVG Export Plug-In . SVG Version: 6.00 Build 0)  -->
<svg version="1.1" id="b02dac80-722e-451b-a8d1-a30b24cf972e"
	 xmlns="http://www.w3.org/2000/svg" xmlns:xlink="http://www.w3.org/1999/xlink" x="0px" y="0px" viewBox="0 0 44 44"
	 style="enable-background:new 0 0 44 44;" xml:space="preserve">
<style type="text/css">
	.st0{fill:#A4D178;}
</style>
<g>
	<path class="st0" d="M35.5,8.5C35.5,8.5,35.5,8.5,35.5,8.5C31.9,4.9,27.1,2.9,22,2.9c-5.1,0-9.9,2-13.5,5.6
		C4.9,12.1,2.9,16.9,2.9,22c0,5.1,2,9.9,5.6,13.5c0,0,0,0,0,0c0,0,0,0,0,0c3.6,3.6,8.4,5.6,13.5,5.6c5.1,0,9.9-2,13.5-5.6
		c3.6-3.6,5.6-8.4,5.6-13.5C41.1,16.9,39.1,12.1,35.5,8.5C35.5,8.5,35.5,8.5,35.5,8.5z M9.4,9.4C12.8,6,17.2,4.2,22,4.2
		c4.5,0,8.8,1.7,12.1,4.8l-3.5,3.5c-0.4-1.1-1-2.1-1.9-2.9c0,0,0,0,0,0c0,0,0,0-0.1-0.1c-1.1-1-2.6-1.7-4.2-1.8V7.1
		c0-0.8-0.6-1.4-1.4-1.4h-2.3c-0.8,0-1.4,0.6-1.4,1.4v0.5c-1.6,0.1-3.1,0.8-4.2,1.8c0,0,0,0-0.1,0.1c0,0,0,0,0,0
		c-1.2,1.2-2.1,2.8-2.2,4.6h0c-0.8,0-1.5,0.7-1.5,1.5v1.8c0,0.8,0.6,1.4,1.4,1.5c-0.4,0.5-0.7,1.2-0.7,1.9c0,1.6,1.1,2.9,2.6,3.2
		c0.1,0.7,0.2,1.3,0.5,1.9c-0.7,0-1.5,0.3-2,0.9c0,0,0,0,0,0c-0.5,0.5-1.2,1.6-1.6,2.6c-0.4,1-0.5,1.9-0.4,2.5L9,34.1
		C5.9,30.8,4.2,26.5,4.2,22C4.2,17.2,6,12.8,9.4,9.4z M28.7,27.2c0.4,0,0.8,0.2,1.2,0.5c0.4,0.4,0.9,1.3,1.3,2.2
		c0.5,1.2,0.4,1.6,0.3,1.7c-0.1,0.1-0.6,0.2-1.7-0.3c-1-0.4-1.9-1-2.2-1.3c-0.3-0.3-0.5-0.7-0.5-1.2s0.2-0.9,0.5-1.2
		C27.9,27.3,28.3,27.2,28.7,27.2z M28,23.4L28,23.4c0,2.6-2.1,4.7-4.7,4.7h-2.7c-1.1,0-2.1-0.4-2.9-1l2.1-2.1
		c0.4,0.8,1.2,1.3,2.1,1.3c0.9,0,1.7-0.5,2.1-1.4c0.2-0.3,0-0.7-0.3-0.9c-0.3-0.2-0.7,0-0.9,0.3c-0.2,0.4-0.6,0.6-1,0.6
		c-0.4,0-0.8-0.2-1-0.6c-0.1-0.1-0.2-0.2-0.3-0.3l0.8-0.8c0.1,0.1,0.3,0.2,0.5,0.2c0.4,0,0.6-0.3,0.6-0.6v-0.7l3.4-3.4h2V23.4z
		 M12.3,35.8c-0.2,0.2-0.4,0.5-0.5,0.8c-0.7-0.5-1.3-1-1.9-1.6l2.2-2.2c0.2,0.1,0.5,0.1,0.7,0.1c0.5,0,1.2-0.2,1.9-0.5
		c1-0.4,2.1-1.1,2.6-1.6c0.5-0.5,0.8-1.3,0.9-2c0.1,0.1,0.3,0.1,0.4,0.2v2.6C16.3,33.1,12.7,35.4,12.3,35.8z M14.1,27.7
		c0.5-0.5,1.1-0.6,1.7-0.4l-3.3,3.3c0.1-0.2,0.1-0.4,0.2-0.7C13.2,28.9,13.8,28,14.1,27.7L14.1,27.7z M14.7,22.7
		c-0.8-0.3-1.3-1-1.3-1.8c0-0.8,0.5-1.6,1.3-1.8V22.7z M15.7,10.9l1,1c0.1,0.1,0.3,0.2,0.5,0.2c0.2,0,0.3-0.1,0.5-0.2
		c0.3-0.3,0.3-0.7,0-0.9L16.6,10c0.8-0.6,1.8-1,2.8-1.1v5.2h-5.2C14.4,12.9,14.9,11.8,15.7,10.9z M23.2,14.1h-2.5v-7
		c0-0.1,0-0.1,0.1-0.1h2.3c0.1,0,0.1,0,0.1,0.1V14.1z M20.1,15.4C20.1,15.4,20.1,15.4,20.1,15.4l3.8,0c0,0,0,0,0,0h3.8l-2.2,2.2
		H15.4c0,0,0,0,0,0c0,0,0,0,0,0h-2.4c-0.1,0-0.2-0.1-0.2-0.2v-1.8c0-0.1,0.1-0.2,0.2-0.2H20.1z M24.2,18.9l-1.6,1.6
		c-0.1-0.2-0.3-0.3-0.6-0.3c-0.4,0-0.6,0.3-0.6,0.6v0.9l-4.5,4.5c-0.6-0.8-0.9-1.7-0.9-2.7v0v-4.5H24.2z M16.8,28.1
		c0.1,0.2,0.1,0.4,0.1,0.7c0,0.4-0.2,0.9-0.5,1.2c-0.4,0.4-1.3,0.9-2.2,1.3c-0.4,0.2-0.7,0.2-0.9,0.3L16.8,28.1z M24.1,31.4h-4.2v-2
		c0.2,0,0.5,0,0.7,0h2.7c0.3,0,0.5,0,0.7,0V31.4z M29.3,19c0.8,0.3,1.3,1,1.3,1.8c0,0.8-0.5,1.6-1.3,1.8V19z M28.6,17.6
		C28.6,17.6,28.6,17.6,28.6,17.6C28.6,17.6,28.6,17.6,28.6,17.6h-1.3l2.2-2.2h1.6c0.1,0,0.2,0.1,0.2,0.2v1.8c0,0.1-0.1,0.2-0.2,0.2
		H28.6z M28.9,14.1h-4.4V8.9c1.1,0.1,2,0.5,2.8,1.1L26.4,11c-0.3,0.3-0.3,0.7,0,0.9c0.1,0.1,0.3,0.2,0.5,0.2c0.2,0,0.3-0.1,0.5-0.2
		l1-1c0.6,0.7,1.1,1.6,1.3,2.5L28.9,14.1z M12.9,37.3c0.1-0.2,0.3-0.5,0.4-0.7c0.4-0.3,3.4-2.3,6.2-4h5.1c2.8,1.7,5.8,3.7,6.2,4
		c0.2,0.2,0.3,0.4,0.4,0.7c-2.7,1.6-5.9,2.5-9.1,2.5S15.6,38.9,12.9,37.3z M34.6,34.6c-0.7,0.7-1.5,1.4-2.4,2
		c-0.1-0.3-0.3-0.6-0.5-0.8c-0.4-0.4-4-2.7-6.3-4.2V29c0.1-0.1,0.3-0.1,0.4-0.2c0,0.8,0.3,1.5,0.9,2c0.5,0.5,1.6,1.2,2.6,1.6
		c0.7,0.3,1.4,0.5,1.9,0.5c0.5,0,0.9-0.2,1.2-0.5c0.6-0.6,0.6-1.7,0-3.1c-0.4-1-1.1-2.1-1.6-2.6c-0.6-0.6-1.3-0.8-2-0.9
		c0.3-0.6,0.4-1.2,0.5-1.9c1.5-0.3,2.6-1.6,2.6-3.2c0-0.7-0.2-1.4-0.7-1.9c0.8-0.1,1.4-0.7,1.4-1.5v-1.8c0-0.8-0.7-1.5-1.5-1.5h0
		c0-0.1,0-0.2,0-0.2l4-4c3.1,3.3,4.8,7.6,4.8,12.1C39.8,26.8,38,31.2,34.6,34.6z"/>
	<path class="st0" d="M38.6,7.6c-0.2-0.3-0.6-0.3-0.9-0.1c-0.3,0.2-0.3,0.6-0.1,0.9c3.3,3.8,5.1,8.6,5.1,13.6
		c0,5.5-2.2,10.7-6.1,14.6c-3.9,3.9-9.1,6.1-14.6,6.1c-5.5,0-10.7-2.2-14.6-6.1S1.3,27.5,1.3,22c0-5.5,2.2-10.7,6.1-14.6
		c3.9-3.9,9.1-6.1,14.6-6.1c2.5,0,4.9,0.4,7.2,1.3c2.2,0.8,4.3,2,6.1,3.6c0.3,0.2,0.7,0.2,0.9-0.1c0.2-0.3,0.2-0.7-0.1-0.9
		c-1.9-1.6-4.1-2.9-6.5-3.8C27.2,0.5,24.6,0,22,0C16.1,0,10.6,2.3,6.4,6.4C2.3,10.6,0,16.1,0,22s2.3,11.4,6.4,15.6
		C10.6,41.7,16.1,44,22,44s11.4-2.3,15.6-6.4S44,27.9,44,22C44,16.7,42.1,11.6,38.6,7.6z"/>
</g>
</svg>
