<?xml version="1.0" encoding="utf-8"?>
<!-- Generator: Adobe Illustrator 28.1.0, SVG Export Plug-In . SVG Version: 6.00 Build 0)  -->
<svg version="1.1" id="Layer_1" xmlns="http://www.w3.org/2000/svg" xmlns:xlink="http://www.w3.org/1999/xlink" x="0px" y="0px"
	 viewBox="0 0 44 44" style="enable-background:new 0 0 44 44;" xml:space="preserve">
<style type="text/css">
	.st0{fill:#45A1AD;}
</style>
<g>
	<path class="st0" d="M43.5,29.9L28.8,4.3c-0.3-0.6-0.9-1-1.6-1.2L16,0.1C15.6,0,15.2,0,14.8,0c0,0-0.1,0-0.1,0H3.1
		c-1.4,0-2.6,0.9-3,2.2C-0.1,3.1,0,4,0.5,4.8s1.3,1.3,2.2,1.4L6.8,7L4.5,9.3C4,9.7,3.8,10.4,3.8,11.1v29.5c0,1.9,1.5,3.4,3.4,3.4h16
		c1,0,1.9-0.4,2.5-1.1c0,0,0.1,0,0.1,0c0.3,0.1,0.6,0.1,0.9,0.1c0.6,0,1.2-0.2,1.7-0.5l13.8-8c0.8-0.5,1.4-1.2,1.6-2.1
		C44.1,31.6,44,30.7,43.5,29.9z M2.9,4.6c-0.4-0.1-0.8-0.3-1-0.7C1.7,3.5,1.7,3.1,1.8,2.7c0.2-0.6,0.7-1,1.4-1h8.9L8.3,5.5L2.9,4.6z
		 M11.1,5.2l-0.2,0.7l-0.5-0.1L11.1,5.2z M23.2,42.3H9.6v-7.6c0-0.5-0.4-0.9-0.9-0.9c-0.5,0-0.9,0.4-0.9,0.9v7.6H7.2
		c-0.9,0-1.7-0.8-1.7-1.7V11.1c0-0.2,0.1-0.4,0.3-0.6l3.2-3.2l1.5,0.3l-1.7,6.2c-0.2,0.7-0.1,1.4,0.3,2l14.7,25.5
		c0.1,0.2,0.3,0.4,0.5,0.6C23.9,42.2,23.6,42.3,23.2,42.3z M42.2,32c-0.1,0.4-0.4,0.8-0.8,1l-13.8,8c-0.4,0.2-0.9,0.3-1.3,0.2
		c-0.4-0.1-0.8-0.4-1-0.8L10.5,14.9c-0.1-0.2-0.1-0.4-0.1-0.7l1.7-6.4l2.6,0.4c0.1,0.3,0.2,0.6,0.3,0.9c0.4,0.7,1,1.2,1.8,1.4
		c0.3,0.1,0.5,0.1,0.8,0.1c0.5,0,1-0.1,1.5-0.4c0.7-0.4,1.2-1,1.4-1.8c0.2-0.8,0.1-1.5-0.3-2.2s-1-1.2-1.8-1.4
		c-0.8-0.2-1.5-0.1-2.2,0.3c-0.5,0.3-1,0.8-1.2,1.3l-2.3-0.4L13.4,3c0.1-0.4,0.4-0.8,0.8-1c0.3-0.2,0.6-0.2,0.9-0.2
		c0.1,0,0.3,0,0.4,0.1L22,3.5c0,0,0,0,0,0l4.2,7.2c0.2,0.3,0.4,0.4,0.7,0.4c0.1,0,0.3,0,0.4-0.1c0.4-0.2,0.6-0.8,0.3-1.2l-3.3-5.8
		l2.4,0.6C27,4.9,27.2,5,27.3,5.2L42,30.7C42.3,31.1,42.3,31.6,42.2,32z M16.9,6.9l-0.1,0c0.1-0.1,0.1-0.1,0.2-0.2
		c0.2-0.1,0.4-0.2,0.6-0.2c0.1,0,0.2,0,0.3,0c0.3,0.1,0.6,0.3,0.7,0.6c0.2,0.3,0.2,0.6,0.1,0.9c-0.1,0.3-0.3,0.6-0.6,0.7
		C17.9,9,17.6,9,17.3,8.9c-0.2-0.1-0.4-0.2-0.5-0.3c0,0,0,0,0,0c0.4,0,0.8-0.3,0.8-0.7C17.7,7.4,17.3,7,16.9,6.9z"/>
	<path class="st0" d="M8.8,29.5c-0.2,0-0.4,0.1-0.6,0.3c-0.2,0.2-0.3,0.4-0.3,0.6c0,0.2,0.1,0.4,0.3,0.6c0.2,0.2,0.4,0.3,0.6,0.3
		c0.2,0,0.4-0.1,0.6-0.3c0.2-0.2,0.3-0.4,0.3-0.6c0-0.2-0.1-0.4-0.3-0.6C9.2,29.6,9,29.5,8.8,29.5z"/>
	<path class="st0" d="M29.2,13.3c-0.2,0-0.4,0.1-0.6,0.3c-0.2,0.2-0.3,0.4-0.3,0.6c0,0.2,0.1,0.4,0.3,0.6c0.2,0.2,0.4,0.3,0.6,0.3
		c0.2,0,0.4-0.1,0.6-0.3c0.2-0.2,0.3-0.4,0.3-0.6s-0.1-0.4-0.3-0.6C29.6,13.4,29.4,13.3,29.2,13.3z"/>
</g>
</svg>
