<?xml version="1.0" encoding="utf-8"?>
<!-- Generator: Adobe Illustrator 28.1.0, SVG Export Plug-In . SVG Version: 6.00 Build 0)  -->
<svg version="1.1" id="Layer_1" xmlns="http://www.w3.org/2000/svg" xmlns:xlink="http://www.w3.org/1999/xlink" x="0px" y="0px"
	 viewBox="0 0 44 44" style="enable-background:new 0 0 44 44;" xml:space="preserve">
<style type="text/css">
	.st0{fill:#45A1AD;}
</style>
<g>
	<path class="st0" d="M44,34.9c0-0.5-0.4-0.9-0.9-0.9H13.6v-7.4c0-0.5-0.4-0.9-0.9-0.9H4.5c-0.5,0-0.9,0.4-0.9,0.9V34H0.9
		C0.4,34,0,34.4,0,34.9s0.4,0.9,0.9,0.9h0.4C0.5,36.6,0,37.8,0,39s0.5,2.4,1.2,3.3H0.9c-0.5,0-0.9,0.4-0.9,0.9S0.4,44,0.9,44h42.3
		c0.5,0,0.9-0.4,0.9-0.9s-0.4-0.9-0.9-0.9h-0.4c0.8-0.9,1.2-2,1.2-3.3s-0.5-2.4-1.2-3.3h0.4C43.6,35.8,44,35.4,44,34.9z M9.8,30.8
		l2.1-2.1v4.1L9.8,30.8z M10.6,34H6.5L8.6,32L10.6,34z M10.6,27.5l-2.1,2.1l-2.1-2.1H10.6z M5.3,28.7l2.1,2.1l-2.1,2.1V28.7z
		 M5,42.3c-1.8,0-3.3-1.5-3.3-3.3s1.5-3.3,3.3-3.3s3.3,1.5,3.3,3.3S6.8,42.3,5,42.3z M18.2,42.3H8.7c0.8-0.9,1.2-2,1.2-3.3
		s-0.5-2.4-1.2-3.3h4h5.5c-0.8,0.9-1.2,2-1.2,3.3S17.5,41.4,18.2,42.3z M22,42.3c-1.8,0-3.3-1.5-3.3-3.3s1.5-3.3,3.3-3.3
		s3.3,1.5,3.3,3.3S23.8,42.3,22,42.3z M35.3,42.3h-9.5c0.8-0.9,1.2-2,1.2-3.3s-0.5-2.4-1.2-3.3h9.5c-0.8,0.9-1.2,2-1.2,3.3
		S34.5,41.4,35.3,42.3z M39,42.3c-1.8,0-3.3-1.5-3.3-3.3s1.5-3.3,3.3-3.3s3.3,1.5,3.3,3.3S40.8,42.3,39,42.3z"/>
	<path class="st0" d="M22,38.2c-0.2,0-0.4,0.1-0.6,0.3s-0.3,0.4-0.3,0.6s0.1,0.4,0.3,0.6s0.4,0.3,0.6,0.3s0.4-0.1,0.6-0.3
		s0.3-0.4,0.3-0.6s-0.1-0.4-0.3-0.6S22.2,38.2,22,38.2z"/>
	<path class="st0" d="M39,38.2c-0.2,0-0.4,0.1-0.6,0.3s-0.3,0.4-0.3,0.6s0.1,0.4,0.3,0.6s0.4,0.3,0.6,0.3s0.4-0.1,0.6-0.3
		s0.3-0.4,0.3-0.6s-0.1-0.4-0.3-0.6S39.2,38.2,39,38.2z"/>
	<path class="st0" d="M5,38.2c-0.2,0-0.4,0.1-0.6,0.3S4.1,38.8,4.1,39s0.1,0.4,0.3,0.6s0.4,0.3,0.6,0.3s0.4-0.1,0.6-0.3
		s0.3-0.4,0.3-0.6s-0.1-0.4-0.3-0.6S5.2,38.2,5,38.2z"/>
	<path class="st0" d="M22.6,5.6c0.2-0.2,0.3-0.4,0.3-0.6c0-0.2-0.1-0.4-0.3-0.6S22.2,4.1,22,4.1c-0.2,0-0.4,0.1-0.6,0.3
		c-0.2,0.2-0.3,0.4-0.3,0.6c0,0.2,0.1,0.4,0.3,0.6c0.2,0.2,0.4,0.3,0.6,0.3C22.2,5.8,22.5,5.8,22.6,5.6z"/>
	<path class="st0" d="M8.6,4.1C8.8,4.1,9,4,9.2,3.9s0.3-0.4,0.3-0.6S9.4,2.8,9.2,2.7S8.8,2.4,8.6,2.4S8.1,2.5,8,2.7S7.7,3,7.7,3.3
		c0,0.2,0.1,0.4,0.3,0.6S8.4,4.1,8.6,4.1z"/>
	<path class="st0" d="M43.1,0H0.9C0.4,0,0,0.4,0,0.9V5c0,0.5,0.4,0.9,0.9,0.9h3.8c0.1,0.4,0.4,0.7,0.8,0.7h2.2v4.2l-6.4,4.8
		C1.1,15.8,1,16,1,16.3v6.3c0,0.5,0.4,0.9,0.9,0.9s0.9-0.4,0.9-0.9v-5.8l5.9-4.5l5.9,4.5v5.8c0,0.5,0.4,0.9,0.9,0.9s0.9-0.4,0.9-0.9
		v-6.3c0-0.3-0.1-0.5-0.3-0.7l-6.4-4.8V6.5h2.2c0.4,0,0.8-0.3,0.8-0.7h6.1c0.5,0,0.9-0.4,0.9-0.9s-0.4-0.9-0.9-0.9h-6V1.7h19.1v2.4
		h-6.1c-0.5,0-0.9,0.4-0.9,0.9s0.4,0.9,0.9,0.9h6.1c0.1,0.4,0.4,0.7,0.8,0.7h2.2v4.2l-6.4,4.8C28.1,15.8,28,16,28,16.3v5.6
		c0,0.3,0.2,0.7,0.5,0.8l2.1,0.9v2c0,0.5,0.4,0.9,0.9,0.9h8.2c0.5,0,0.9-0.4,0.9-0.9v-2l2.1-0.9c0.3-0.1,0.5-0.4,0.5-0.8v-5.6
		c0-0.3-0.1-0.5-0.3-0.7l-6.4-4.8V6.5h2.2c0.4,0,0.8-0.3,0.8-0.7h3.6C43.6,5.8,44,5.5,44,5V0.9C44,0.4,43.6,0,43.1,0z M4.6,4.1H1.7
		V1.7h2.9V4.1z M10.8,4.8H6.4V1.7h4.5V4.8z M34.4,21.5l-2.1,2.1v-4.1L34.4,21.5z M33.5,18.2h4.1l-2.1,2.1L33.5,18.2z M33.5,24.8
		l2.1-2.1l2.1,2.1H33.5z M38.9,23.5l-2.1-2.1l2.1-2.1V23.5z M41.5,16.7v4.6l-0.9,0.4v-4.4c0-0.5-0.4-0.9-0.9-0.9h-8.2
		c-0.5,0-0.9,0.4-0.9,0.9v4.4l-0.9-0.4v-4.6l5.9-4.5L41.5,16.7z M37.8,4.8h-4.5V1.7h4.5V4.8z M42.3,4.1h-2.7V1.7h2.7V4.1z"/>
	<path class="st0" d="M35.6,4.1c0.2,0,0.4-0.1,0.6-0.3c0.2-0.2,0.3-0.4,0.3-0.6c0-0.2-0.1-0.4-0.3-0.6c-0.2-0.2-0.4-0.3-0.6-0.3
		c-0.2,0-0.4,0.1-0.6,0.3c-0.2,0.2-0.3,0.4-0.3,0.6c0,0.2,0.1,0.4,0.3,0.6C35.1,4,35.4,4.1,35.6,4.1z"/>
	<path class="st0" d="M20.2,25.3c0,0.5,0.4,0.9,0.9,0.9h7.1c0.5,0,0.9-0.4,0.9-0.9s-0.4-0.9-0.9-0.9h-7.1
		C20.6,24.4,20.2,24.8,20.2,25.3z"/>
	<path class="st0" d="M17.5,24.4c-0.2,0-0.4,0.1-0.6,0.3c-0.2,0.2-0.3,0.4-0.3,0.6c0,0.2,0.1,0.4,0.3,0.6c0.2,0.2,0.4,0.3,0.6,0.3
		c0.2,0,0.4-0.1,0.6-0.3c0.2-0.2,0.3-0.4,0.3-0.6c0-0.2-0.1-0.4-0.3-0.6C18,24.5,17.7,24.4,17.5,24.4z"/>
	<path class="st0" d="M18.3,21.9c0,0.5,0.4,0.9,0.9,0.9h5.5c0.5,0,0.9-0.4,0.9-0.9S25.1,21,24.7,21h-5.5
		C18.7,21,18.3,21.4,18.3,21.9z"/>
</g>
</svg>
