<?xml version="1.0" encoding="utf-8"?>
<!-- Generator: Adobe Illustrator 28.1.0, SVG Export Plug-In . SVG Version: 6.00 Build 0)  -->
<svg version="1.1" id="Layer_1" xmlns="http://www.w3.org/2000/svg" xmlns:xlink="http://www.w3.org/1999/xlink" x="0px" y="0px"
	 viewBox="0 0 44.1 44" style="enable-background:new 0 0 44.1 44;" xml:space="preserve">
<style type="text/css">
	.st0{fill:#45A1AD;}
</style>
<path class="st0" d="M37.6,17.9v-1.3c0-0.9-0.8-1.7-1.7-1.7h-0.7c-1.2,0-2.2-0.7-2.7-1.8C32,12,32.3,10.8,33.1,10l0.5-0.5
	c0.7-0.7,0.7-1.7,0-2.4l-3.1-3.1c-0.3-0.3-0.8-0.5-1.2-0.5c-0.5,0-0.9,0.2-1.2,0.5l-0.5,0.5c-0.8,0.8-2,1.1-3.1,0.6
	c-1.1-0.5-1.8-1.5-1.8-2.7V1.7C22.7,0.8,21.9,0,21,0h-4.4c-0.9,0-1.7,0.8-1.7,1.7v0.7c0,1.2-0.7,2.2-1.8,2.7C12,5.5,10.8,5.3,10,4.4
	L9.5,3.9c-0.7-0.7-1.7-0.7-2.4,0L3.9,7.1c-0.7,0.7-0.7,1.7,0,2.4L4.4,10c0.8,0.8,1.1,2,0.6,3.1c-0.5,1.1-1.5,1.8-2.7,1.8H1.7
	c-0.9,0-1.7,0.8-1.7,1.7V21c0,0.9,0.8,1.7,1.7,1.7h0.7c1.2,0,2.2,0.7,2.7,1.8s0.2,2.3-0.6,3.1l-0.5,0.5c-0.7,0.7-0.7,1.7,0,2.4
	l3.1,3.1c0.3,0.3,0.8,0.5,1.2,0.5c0.5,0,0.9-0.2,1.2-0.5l0.5-0.5c0.8-0.8,2-1.1,3.1-0.6c1.1,0.5,1.8,1.5,1.8,2.7v0.7
	c0,0.9,0.8,1.7,1.7,1.7h1.5C20.6,41.4,25,44,30,44c7.8,0,14.2-6.4,14.2-14.2C44.1,24.8,41.5,20.4,37.6,17.9L37.6,17.9z M16.6,36.3
	c-0.2,0-0.4-0.2-0.4-0.4v-0.7c0-1.7-1-3.2-2.6-3.9C12,30.6,10.3,31,9,32.2l-0.5,0.5c-0.1,0.1-0.2,0.1-0.3,0.1S8,32.8,8,32.7
	l-3.1-3.1c-0.2-0.2-0.2-0.4,0-0.6l0.5-0.5c1.2-1.2,1.6-3,0.9-4.6c-0.7-1.6-2.1-2.6-3.9-2.6H1.7c-0.2,0-0.4-0.2-0.4-0.4v-4.4
	c0-0.2,0.2-0.4,0.4-0.4h0.7c1.7,0,3.2-1,3.9-2.6C6.9,12,6.6,10.3,5.4,9L4.9,8.5C4.7,8.4,4.7,8.1,4.9,8L8,4.9c0.2-0.2,0.4-0.2,0.6,0
	L9,5.4c1.2,1.2,3,1.6,4.6,0.9c1.6-0.7,2.6-2.1,2.6-3.9V1.7c0-0.2,0.2-0.4,0.4-0.4H21c0.2,0,0.4,0.2,0.4,0.4v0.7c0,1.7,1,3.2,2.6,3.9
	c1.6,0.7,3.3,0.3,4.6-0.9L29,4.9c0.1-0.1,0.2-0.1,0.3-0.1s0.2,0,0.3,0.1L32.7,8c0.2,0.2,0.2,0.4,0,0.6L32.2,9
	c-1.2,1.2-1.6,3-0.9,4.6c0.7,1.6,2.1,2.6,3.9,2.6h0.7c0.2,0,0.4,0.2,0.4,0.4v0.5c-1.9-0.9-4-1.5-6.3-1.5c-0.7,0-1.4,0.1-2,0.1
	c-1.3-3.9-5-6.6-9.1-6.6c-5.3,0-9.6,4.3-9.6,9.6c0,4.2,2.7,7.9,6.7,9.2c-0.1,0.6-0.1,1.2-0.1,1.9c0,2.3,0.6,4.5,1.5,6.4L16.6,36.3
	L16.6,36.3z M16.1,26.7c-3.4-1.1-5.7-4.3-5.7-7.9c0-4.6,3.7-8.3,8.3-8.3c3.6,0,6.7,2.3,7.9,5.6C21.4,17.3,17.3,21.4,16.1,26.7
	L16.1,26.7z M30,42.7c-7.1,0-12.9-5.8-12.9-12.9C17.1,22.7,22.9,17,30,17s12.9,5.8,12.9,12.9C42.8,36.9,37.1,42.7,30,42.7z M30,18.3
	c-6.3,0-11.5,5.2-11.5,11.5c0,6.3,5.2,11.5,11.5,11.5c6.3,0,11.5-5.2,11.5-11.5C41.5,23.5,36.3,18.3,30,18.3L30,18.3z M30,40
	c-5.6,0-10.2-4.6-10.2-10.2S24.3,19.6,30,19.6s10.2,4.6,10.2,10.2S35.6,40,30,40z M30.6,27.5v-5.1c0-0.4-0.3-0.6-0.6-0.6
	s-0.6,0.3-0.6,0.6v5.1c-1,0.3-1.8,1.2-1.8,2.4c0,0.4,0.1,0.9,0.3,1.2l-3.2,3.2c-0.3,0.3-0.3,0.7,0,0.9c0.1,0.1,0.3,0.2,0.5,0.2
	c0.2,0,0.3-0.1,0.5-0.2l3.2-3.2c0.4,0.2,0.8,0.3,1.2,0.3c1.3,0,2.4-1.1,2.4-2.4C32.4,28.7,31.6,27.8,30.6,27.5L30.6,27.5z M30,31
	c-0.6,0-1.2-0.5-1.2-1.2c0-0.6,0.5-1.2,1.2-1.2s1.2,0.5,1.2,1.2C31.1,30.5,30.6,31,30,31z"/>
</svg>
