<?xml version="1.0" encoding="utf-8"?>
<!-- Generator: Adobe Illustrator 28.1.0, SVG Export Plug-In . SVG Version: 6.00 Build 0)  -->
<svg version="1.1" id="Layer_1" xmlns="http://www.w3.org/2000/svg" xmlns:xlink="http://www.w3.org/1999/xlink" x="0px" y="0px"
	 viewBox="0 0 44.1 44" style="enable-background:new 0 0 44.1 44;" xml:space="preserve">
<style type="text/css">
	.st0{fill:#45A1AD;}
</style>
<g>
	<path class="st0" d="M32.1,39.6L32.1,39.6c-0.4,0.3-0.6,0.8-0.3,1.2c0.2,0.3,0.4,0.4,0.7,0.4c0.1,0,0.3,0,0.4-0.1l0,0
		c0.4-0.2,0.6-0.8,0.3-1.2C33.1,39.5,32.6,39.3,32.1,39.6z"/>
	<path class="st0" d="M41.1,11c-2.9-5.1-7.7-8.7-13.4-10.2C22-0.8,16.1,0,11,3C5.9,5.9,2.3,10.6,0.8,16.3S0,27.9,3,33
		c2.6,4.6,6.8,8,11.8,9.8c2.4,0.8,4.8,1.2,7.3,1.2c2.7,0,5.3-0.5,7.9-1.5c0.4-0.2,0.7-0.7,0.5-1.1c-0.2-0.4-0.7-0.7-1.1-0.5
		c-6.7,2.6-14,1.4-19.4-2.7l0.8-4l0.4-0.1c1.4-0.5,2.2-2,1.7-3.4l-0.3-0.8c-0.1-0.2-0.1-0.4,0-0.6c0.2-0.7,0.2-1.5-0.2-2.2
		c-0.4-0.7-1-1.1-1.8-1.3l-1.9-0.4l-3.7-2.8c-0.2-0.2-0.5-0.2-0.8-0.1l-2.2,0.7c0-0.8,0-1.6,0-2.3C1.9,21,1.9,21,1.9,21.1
		c0,0.1,0.1,0.1,0.2,0.2c0.2,0.2,0.3,0.2,0.7,0.2c0.3,0,0.8-0.1,1.5-0.2c0.7-0.1,1.4-0.2,1.5-0.2c0.3,0,0.5-0.2,0.6-0.5
		c0.1-0.3,0.1-0.6-0.1-0.8l-1.1-1.5l1.5-1.1C6.9,17.1,7,17,7,16.9l2.3-4.1l0.9-1c1-1,1.2-2.5,0.7-3.8c-0.3-0.8-0.9-1.4-1.6-1.8
		c0.8-0.6,1.6-1.1,2.4-1.6c3.1-1.8,6.5-2.7,9.9-2.7l-1.5,1.9l-5.7,2c-0.2,0.1-0.4,0.3-0.5,0.5L12.4,10c-0.1,0.3-0.1,0.6,0.1,0.8
		l2.3,3.3c-0.3,0.3-0.7,0.7-1,1.3c-0.2,0.2-0.3,0.5-0.4,0.6c-0.1,0.1-0.2,0.2-0.3,0.3c-0.5,0.6-1,1.1-1.4,1.9
		c-0.8,1.7-0.6,3.7,0.4,5.2c1,1.4,2.7,2.2,4.6,2c0.3,0,0.6-0.1,0.8-0.2c0.7-0.2,1-0.2,1.2,0c0.1,0.1,0.1,0.1,0.1,0.5
		c0,0.2,0,0.5,0.1,0.9c0.1,0.5,0.5,0.9,0.7,1.2c0.1,0.1,0.3,0.3,0.3,0.4c0.3,0.6,0.2,1-0.1,1.8c0,0.1,0,0.1-0.1,0.2
		c-0.4,1.2,0.2,2.4,0.6,3.4c0.2,0.3,0.3,0.7,0.4,0.9c0.8,2.3,1.4,2.8,1.8,3c0.2,0.1,0.5,0.2,0.7,0.2c1.2,0,2.5-1.2,3.1-1.9
		c0.4-0.5,0.5-0.9,0.5-1.3c0-0.2,0.1-0.3,0.1-0.4c0.1-0.1,0.2-0.2,0.3-0.4c0.2-0.3,0.5-0.6,0.7-1.2c0.1-0.4,0.2-0.6,0.6-0.9
		c0.1-0.1,0.1-0.1,0.2-0.2c1.1-1.2,0.8-2.2,0.5-3.2c-0.3-0.8,0.2-1.4,1.3-2.4c0.5-0.4,1-0.9,1.4-1.5c0.2-0.2,0.7-1,0.4-1.7
		c-0.3-0.7-1.1-0.8-1.7-0.9c-0.3,0-0.6-0.1-0.8-0.2c-0.5-0.3-0.9-1.1-1.2-1.8c-0.1-0.1-0.1-0.3-0.2-0.4c-0.1-0.2-0.2-0.5-0.3-0.8
		c-0.3-0.8-0.7-1.7-1.3-2.4c-0.5-0.6-1.6-0.9-2.5-1.1c-0.3-0.1-0.6-0.2-0.8-0.2c-0.2-0.1-0.3-0.1-0.5,0c-0.4,0.1-0.7,0.2-0.9,0.4
		c-0.1,0-0.2,0.2-0.3,0.4c-0.3-0.2-0.7-0.4-1-0.6c0,0,0,0,0,0c0.1-0.4,0-0.6-0.1-0.8c-0.5-1-2.1-0.9-2.4-0.9c-0.2,0-0.4,0-0.6,0
		c-0.4,0-0.8,0-1.2,0.1l0-0.1c0.3-0.9,1.1-1.5,2.1-1.5h0.5c0.5,0,0.9-0.4,0.9-0.9s-0.4-0.9-0.9-0.9h-0.5c-1.4,0-2.6,0.7-3.3,1.9
		l-1.3-1.8l1.3-3.1L21,5.2c0.2-0.1,0.3-0.1,0.4-0.3l2.5-3.1c6.3,0.6,12.3,4.1,15.7,10c0.9,1.6,1.6,3.2,2,4.9l-0.4,0.3
		c-0.5,0.4-0.8,1-0.8,1.7c0,0,0,0,0,0l-0.6-1.6c-0.1-0.2-0.2-0.5-0.4-0.7l-1.1-1.2c-0.4-0.5-1-0.8-1.6-0.8h-1.3
		c-0.5,0-0.9,0.3-1.1,0.7c-0.2,0.4-0.2,0.9,0.1,1.3l0.1,0.2c-0.8,0.7-1.8,1.3-2.8,1.7L30,14.9v-0.8c0-0.2-0.1-0.5-0.3-0.6L28.1,12
		c-0.1-0.1-0.2-0.1-0.3-0.2l-1.4-0.5c-0.4-0.2-0.9,0.1-1.1,0.5c-0.2,0.4,0.1,0.9,0.5,1.1l1.3,0.4l1.2,1.1v0.6c0,0.1,0,0.3,0.1,0.4
		l2.2,4.3c0.2,0.4,0.7,0.6,1.1,0.4l0.6-0.2c1.5-0.6,2.9-1.4,4-2.6c0.3-0.3,0.3-0.7,0.1-1.1l0-0.1h0.4c0.1,0,0.2,0.1,0.3,0.2l1.1,1.2
		c0,0,0.1,0.1,0.1,0.1l1.2,3.2c0.1,0.3,0.3,0.5,0.6,0.5c0.1,0,0.1,0,0.2,0c0.2,0,0.4-0.1,0.6-0.3l0.6-0.6c0.4-0.4,0.6-0.8,0.7-1.3
		c0.9,6.9-1.8,14-7.6,18.5c-0.4,0.3-0.4,0.8-0.1,1.2c0.3,0.4,0.8,0.4,1.2,0.1c4.1-3.2,7-7.9,8-13C44.6,21,43.7,15.6,41.1,11z
		 M4.1,24.3L7.6,27c0.1,0.1,0.2,0.1,0.4,0.2l2.1,0.4c0.3,0.1,0.5,0.2,0.6,0.5c0.1,0.2,0.2,0.5,0.1,0.8c-0.2,0.5-0.2,1.1,0,1.7
		l0.3,0.8c0.2,0.5-0.1,1-0.6,1.2l-0.9,0.3c-0.3,0.1-0.5,0.3-0.6,0.7L8.4,37c-1.5-1.4-2.8-3-3.9-4.9c-1.3-2.3-2.1-4.7-2.5-7.2
		L4.1,24.3z M9.1,10.6l-1,1.1c0,0-0.1,0.1-0.1,0.2l-2.3,4l-2,1.5c-0.4,0.3-0.5,0.8-0.2,1.2l0.8,1.1c-0.4,0.1-0.8,0.1-1.1,0.1
		c-0.1,0-0.1-0.1-0.2-0.1c-0.2-0.2-0.5-0.4-0.9-0.8C2.7,14.5,4.8,10.4,8,7.3C8.7,7.5,9.2,8,9.4,8.6C9.7,9.3,9.6,10,9.1,10.6z
		 M16.1,15.3c0.4-0.2,1.3-0.2,1.9-0.3c0.3,0,0.5,0,0.7,0c0.1,0,0.2,0,0.4,0c-0.1,0.1-0.1,0.3,0,0.4c0,0.3,0.2,0.5,0.4,0.6
		c0.2,0.1,0.4,0.2,0.6,0.4c0.7,0.4,1.4,1,2.1,1c0.7,0,1-0.3,1.2-0.5c0,0,0,0,0,0c0.1-0.1,0.2-0.2,0.2-0.3c0.1,0,0.3,0.1,0.4,0.1
		c0.5,0.1,1.5,0.4,1.7,0.6c0.4,0.4,0.7,1.1,0.9,1.8c0.1,0.3,0.3,0.6,0.4,0.9c0.1,0.1,0.1,0.3,0.2,0.4c0.4,0.9,0.8,1.9,1.8,2.5
		c0.4,0.3,1,0.4,1.4,0.4c0.1,0,0.1,0,0.2,0c-0.3,0.4-0.7,0.8-1.1,1.1c-1.1,1-2.4,2.2-1.8,4.2c0.3,0.9,0.3,1-0.2,1.5
		c-0.1,0.1-0.1,0.1-0.2,0.2c-0.4,0.4-0.7,0.8-1,1.6c-0.1,0.2-0.2,0.3-0.3,0.5c-0.1,0.2-0.3,0.4-0.5,0.6c-0.2,0.3-0.3,0.7-0.3,0.9
		c-0.1,0.3-0.1,0.4-0.2,0.5c-0.2,0.3-0.7,0.7-1.1,1c-0.4,0.3-0.6,0.3-0.7,0.3c-0.1-0.1-0.4-0.5-0.9-2c-0.1-0.4-0.3-0.7-0.5-1.1
		c-0.4-0.8-0.7-1.6-0.6-2.2c0-0.1,0-0.1,0.1-0.2c0.3-0.9,0.6-1.7,0.1-3c-0.2-0.4-0.4-0.6-0.6-0.9c-0.1-0.2-0.3-0.3-0.3-0.4
		c0-0.1,0-0.3,0-0.4c0-0.4,0-1.1-0.7-1.8c-1-0.9-2.1-0.6-2.8-0.4c-0.2,0.1-0.4,0.1-0.6,0.1c-1.2,0.1-2.3-0.3-3-1.3
		c-0.7-1-0.8-2.3-0.3-3.4c0.3-0.6,0.7-1,1.1-1.5c0.1-0.1,0.2-0.2,0.3-0.3c0.2-0.2,0.4-0.5,0.5-0.7C15.5,16,15.9,15.4,16.1,15.3z"/>
	<path class="st0" d="M32.1,36.3c0.9-0.1,1.5-1.1,2.1-2.9l1-3.4c0-0.2,0-0.3,0-0.5L34.8,28c-0.1-0.3-0.4-0.6-0.7-0.6
		c-0.3,0-0.7,0.1-0.9,0.4c-0.1,0.2-0.2,0.4-0.3,0.5c-0.1,0.3-0.3,0.6-0.4,0.8c-0.1,0.1-0.3,0.2-0.5,0.3c-0.5,0.2-1.2,0.6-1.4,1.4
		c-0.2,0.5-0.1,0.9-0.1,1.2c0,0.3,0,0.3,0,0.5l0,0c-0.3,0.6-0.8,1.8-0.1,2.9c0.5,0.7,1,0.9,1.5,0.9C32,36.3,32.1,36.3,32.1,36.3z
		 M31.9,34.4c-0.2-0.2,0.1-0.8,0.2-1.2l0,0c0.3-0.6,0.2-1.1,0.1-1.4c0-0.2,0-0.3,0-0.4c0-0.1,0.2-0.2,0.5-0.4
		c0.1-0.1,0.3-0.1,0.4-0.2L32.6,33C32.3,33.9,32.1,34.3,31.9,34.4C31.9,34.5,31.9,34.5,31.9,34.4z"/>
	<path class="st0" d="M23.1,10.2c-0.4-0.2-0.9,0.1-1.1,0.5c-0.2,0.4,0.1,0.9,0.5,1.1l0.1,0c0.1,0,0.2,0,0.3,0c0.4,0,0.7-0.2,0.8-0.6
		C23.9,10.9,23.7,10.4,23.1,10.2L23.1,10.2z"/>
</g>
</svg>
