<?xml version="1.0" encoding="utf-8"?>
<!-- Generator: Adobe Illustrator 28.1.0, SVG Export Plug-In . SVG Version: 6.00 Build 0)  -->
<svg version="1.1" id="Layer_1" xmlns="http://www.w3.org/2000/svg" xmlns:xlink="http://www.w3.org/1999/xlink" x="0px" y="0px"
	 viewBox="0 0 55.5 44" style="enable-background:new 0 0 55.5 44;" xml:space="preserve">
<style type="text/css">
	.st0{fill:#45A1AD;}
</style>
<g>
	<path class="st0" d="M31.6,31.2c1.7-1.2,2.8-3.2,2.8-5.4c0-3.7-3-6.7-6.7-6.7s-6.7,3-6.7,6.7c0,2.2,1.1,4.2,2.8,5.4
		c-4.9,1.6-8.5,6.3-8.5,11.8c0,0.5,0.4,1,1,1H24c0.5,0,1-0.4,1-1c0-0.5-0.4-1-1-1h-6.7c0.5-5.4,5-9.6,10.5-9.6s10,4.2,10.5,9.6h-6.6
		c-0.5,0-1,0.4-1,1c0,0.5,0.4,1,1,1h7.6c0.5,0,1-0.4,1-1C40.2,37.6,36.6,32.9,31.6,31.2z M27.7,30.6c-2.6,0-4.8-2.1-4.8-4.8
		s2.1-4.8,4.8-4.8s4.8,2.1,4.8,4.8S30.4,30.6,27.7,30.6z"/>
	<path class="st0" d="M12.4,42.1H2c0.5-5.4,5-9.6,10.5-9.6c1.2,0,2.4,0.2,3.5,0.6c0.5,0.2,1-0.1,1.2-0.6c0.2-0.5-0.1-1-0.6-1.2
		c-0.1,0-0.2,0-0.3-0.1c1.7-1.2,2.8-3.2,2.8-5.4c0-3.7-3-6.7-6.7-6.7s-6.7,3-6.7,6.7c0,2.2,1.1,4.2,2.8,5.4C3.6,32.9,0,37.6,0,43
		c0,0.5,0.4,1,1,1h11.5c0.5,0,1-0.4,1-1C13.4,42.5,13,42.1,12.4,42.1z M7.7,25.8c0-2.6,2.1-4.8,4.8-4.8s4.8,2.1,4.8,4.8
		s-2.1,4.8-4.8,4.8S7.7,28.5,7.7,25.8z"/>
	<path class="st0" d="M46.9,31.2c1.7-1.2,2.8-3.2,2.8-5.4c0-3.7-3-6.7-6.7-6.7c-3.7,0-6.7,3-6.7,6.7c0,2.2,1.1,4.2,2.8,5.4
		c-0.1,0-0.2,0-0.3,0.1c-0.5,0.2-0.8,0.7-0.6,1.2c0.2,0.5,0.7,0.8,1.2,0.6c1.1-0.4,2.3-0.6,3.5-0.6c5.5,0,10,4.2,10.5,9.6H43
		c-0.5,0-1,0.4-1,1c0,0.5,0.4,1,1,1h11.5c0.5,0,1-0.4,1-1C55.5,37.6,51.9,32.9,46.9,31.2z M43,30.6c-2.6,0-4.8-2.1-4.8-4.8
		S40.4,21,43,21c2.6,0,4.8,2.1,4.8,4.8S45.7,30.6,43,30.6z"/>
	<path class="st0" d="M12.2,16.9c2-2.2,4.9-3.5,7.8-3.5s5.8,1.3,7.8,3.5c0.2,0.2,0.5,0.3,0.7,0.3c0.2,0,0.5-0.1,0.6-0.2
		c0.4-0.4,0.4-1,0.1-1.4c0-0.1-0.1-0.1-0.2-0.2c1.8-1.3,3.9-2.1,6.2-2.1c3,0,5.8,1.3,7.8,3.5c0.2,0.2,0.5,0.3,0.7,0.3
		c0.2,0,0.5-0.1,0.6-0.2c0.4-0.4,0.4-1,0.1-1.3c-1.5-1.6-3.3-2.8-5.4-3.5c1.7-1.2,2.8-3.2,2.8-5.4c0-3.7-3-6.7-6.7-6.7
		s-6.7,3-6.7,6.7c0,2.2,1.1,4.2,2.8,5.4c-1.4,0.4-2.6,1.1-3.8,2c-1.1-0.9-2.4-1.6-3.8-2c1.7-1.2,2.8-3.2,2.8-5.4
		c0-3.7-3-6.7-6.7-6.7s-6.7,3-6.7,6.7c0,2.2,1.1,4.2,2.8,5.4c-2,0.7-3.9,1.9-5.4,3.5c-0.4,0.4-0.3,1,0.1,1.4
		C11.3,17.3,11.9,17.3,12.2,16.9z M30.6,6.7c0-2.6,2.1-4.8,4.8-4.8s4.8,2.1,4.8,4.8s-2.1,4.8-4.8,4.8S30.6,9.3,30.6,6.7z M15.3,6.7
		c0-2.6,2.1-4.8,4.8-4.8s4.8,2.1,4.8,4.8s-2.1,4.8-4.8,4.8S15.3,9.3,15.3,6.7z"/>
	<path class="st0" d="M28.4,26.5c-0.4,0.4-1,0.4-1.4,0c-0.4-0.4-1-0.4-1.4,0c-0.4,0.4-0.4,1,0,1.4c0.6,0.6,1.3,0.8,2,0.8
		s1.5-0.3,2-0.8c0.4-0.4,0.4-1,0-1.4C29.4,26.1,28.8,26.1,28.4,26.5z"/>
	<path class="st0" d="M12.4,28.7c0.7,0,1.5-0.3,2-0.8c0.4-0.4,0.4-1,0-1.4c-0.4-0.4-1-0.4-1.4,0c-0.4,0.4-1,0.4-1.4,0
		c-0.4-0.4-1-0.4-1.4,0c-0.4,0.4-0.4,1,0,1.4C11,28.4,11.7,28.7,12.4,28.7z"/>
	<path class="st0" d="M35.4,9.6c0.7,0,1.5-0.3,2-0.8c0.4-0.4,0.4-1,0-1.4c-0.4-0.4-1-0.4-1.4,0c-0.4,0.4-1,0.4-1.4,0
		c-0.4-0.4-1-0.4-1.4,0c-0.4,0.4-0.4,1,0,1.4C33.9,9.3,34.7,9.6,35.4,9.6z"/>
	<path class="st0" d="M20.1,9.6c0.7,0,1.5-0.3,2-0.8c0.4-0.4,0.4-1,0-1.4c-0.4-0.4-1-0.4-1.4,0c-0.4,0.4-1,0.4-1.4,0
		c-0.4-0.4-1-0.4-1.4,0c-0.4,0.4-0.4,1,0,1.4C18.6,9.3,19.4,9.6,20.1,9.6z"/>
	<path class="st0" d="M43.7,26.5c-0.4,0.4-1,0.4-1.4,0c-0.4-0.4-1-0.4-1.4,0c-0.4,0.4-0.4,1,0,1.4c0.6,0.6,1.3,0.8,2,0.8
		c0.7,0,1.5-0.3,2-0.8c0.4-0.4,0.4-1,0-1.4C44.7,26.1,44.1,26.1,43.7,26.5z"/>
	<circle class="st0" cx="27.8" cy="43" r="1"/>
</g>
</svg>
