<?xml version="1.0" encoding="utf-8"?>
<!-- Generator: Adobe Illustrator 28.1.0, SVG Export Plug-In . SVG Version: 6.00 Build 0)  -->
<svg version="1.1" id="Layer_1" xmlns="http://www.w3.org/2000/svg" xmlns:xlink="http://www.w3.org/1999/xlink" x="0px" y="0px"
	 viewBox="0 0 117 90" style="enable-background:new 0 0 117 90;" xml:space="preserve">
<style type="text/css">
	.st0{fill:#FFFFFF;}
</style>
<g>
	<path class="st0" d="M115.1,49.6c-3.6-10.3-12.6-14.9-12.6-14.9c3.1,2.5,10.9,10.4,10.3,18.7s-3.5,15-18.7,23.4
		c-15.3,8.5-35.3,8-35.3,8S47,85.7,30.1,80.2c-16.9-5.5-23-15.1-23-15.1s-5.5-7.6-3.4-16C5.8,40.7,13,35.2,13,35.2
		C0.8,42.9,0.3,53.2,0.3,53.2c-2.8,17.4,17.7,27.5,17.7,27.5s20.5,11.6,48.4,9c27.9-2.6,39.1-13.6,42.8-17.4
		C112.9,68.4,118.8,59.9,115.1,49.6z"/>
	<path class="st0" d="M36.5,38.8c0.1,0.1,0.1,0.3,0.2,0.4l-2.8,4.7l-1.7,2.8l2.3,2.3l4.8,4.8l2.3,2.3l2.8-1.7l4.7-2.8
		c0.1,0.1,0.3,0.1,0.4,0.2l1.3,5.3l0.8,3.1h3.2h6.8h3.2l0.8-3.1l1.3-5.3c0.1-0.1,0.3-0.1,0.4-0.2l4.7,2.8l2.8,1.7l2.3-2.3l4.8-4.8
		l2.3-2.3l-1.7-2.8l-2.8-4.7c0.1-0.1,0.1-0.3,0.2-0.4l5.3-1.3l3.1-0.8v-3.2v-6.8v-3.2l-3.1-0.8l-5.3-1.3c-0.1-0.1-0.1-0.3-0.2-0.4
		l2.8-4.7l1.7-2.8l-2.3-2.3L77,6.4l-2.3-2.3L72,5.8l-4.7,2.8c-0.1-0.1-0.3-0.1-0.4-0.2l-1.3-5.3L64.7,0h-3.2h-6.8h-3.2l-0.8,3.1
		l-1.3,5.3c-0.1,0.1-0.3,0.1-0.4,0.2l-4.7-2.8l-2.8-1.7l-2.3,2.3l-4.8,4.8l-2.3,2.3l1.7,2.8l2.8,4.7c-0.1,0.1-0.1,0.3-0.2,0.4
		l-5.3,1.3l-3.1,0.8v3.2v6.8v3.2l3.1,0.8L36.5,38.8z M32.2,26.7l7.5-1.9c0.4-1.4,1-2.8,1.7-4.1l0,0l-4-6.6l4.8-4.8l6.6,4l0,0
		c1.3-0.7,2.6-1.3,4.1-1.7l1.9-7.5h6.8l1.9,7.5c1.4,0.4,2.8,1,4.1,1.7l0,0l6.6-4l4.8,4.8l-4,6.6l0,0c0.7,1.3,1.3,2.6,1.7,4.1
		l7.5,1.9v6.8l-7.5,1.9c-0.4,1.4-1,2.8-1.7,4.1l0,0l4,6.6l-4.8,4.8l-6.6-4l0,0c-1.3,0.7-2.6,1.3-4.1,1.7L61.5,56h-6.8l-1.9-7.5
		c-1.4-0.4-2.8-1-4.1-1.7l0,0l-6.6,4L37.4,46l4-6.6l0,0c-0.7-1.3-1.3-2.6-1.7-4.1l-7.5-1.9V26.7z"/>
	<path class="st0" d="M58.1,45.5c8.5,0,15.4-6.9,15.4-15.4c0-8.5-6.9-15.4-15.4-15.4c-8.5,0-15.4,6.9-15.4,15.4
		C42.7,38.6,49.6,45.5,58.1,45.5z M58.1,18.8c6.2,0,11.3,5.1,11.3,11.3c0,6.2-5.1,11.3-11.3,11.3s-11.3-5.1-11.3-11.3
		C46.8,23.8,51.9,18.8,58.1,18.8z"/>
</g>
</svg>
