<?xml version="1.0" encoding="utf-8"?>
<!-- Generator: Adobe Illustrator 28.1.0, SVG Export Plug-In . SVG Version: 6.00 Build 0)  -->
<svg version="1.1" id="Layer_1" xmlns="http://www.w3.org/2000/svg" xmlns:xlink="http://www.w3.org/1999/xlink" x="0px" y="0px"
	 viewBox="0 0 45.6 44" style="enable-background:new 0 0 45.6 44;" xml:space="preserve">
<style type="text/css">
	.st0{fill-rule:evenodd;clip-rule:evenodd;fill:#A4D178;}
</style>
<path class="st0" d="M45.1,7.8L23,0c-0.1,0-0.3,0-0.4,0L0.4,7.8C0.2,7.9,0,8.2,0,8.5C0,8.7,0.2,9,0.4,9.1l8.6,3v8.8
	c0,0.2,0.1,0.4,0.3,0.6c4.7,2.8,9,4.1,13.4,4.2h0c0,0,0,0,0,0c4.3-0.1,8.7-1.4,13.4-4.2c0.2-0.1,0.3-0.3,0.3-0.6v-8.8l3-1.1v6.3
	c-0.9,0.3-1.5,1.1-1.5,2.1c0,0.5,0.2,0.9,0.4,1.3l-1.1,3.2c-0.1,0.4-0.1,0.8,0.1,1.1l0,0c0.2,0.4,0.6,0.7,1,0.7h3.6
	c0.4,0,0.8-0.3,1-0.7c0.2-0.3,0.2-0.7,0.1-1.1l-1.1-3.2c0.3-0.4,0.4-0.8,0.4-1.3c0-1-0.7-1.8-1.5-2.1v-6.7l4.3-1.5
	c0.3-0.1,0.4-0.3,0.4-0.6C45.6,8.2,45.4,7.9,45.1,7.8L45.1,7.8z M38.5,24.4C38.5,24.4,38.5,24.3,38.5,24.4l1-2.8
	c0.2,0.1,0.4,0.1,0.7,0.1s0.5,0,0.7-0.1l0.9,2.8c0,0,0,0.1,0,0.1H38.5L38.5,24.4z M40.1,20.3c-0.5,0-0.9-0.4-0.9-0.9
	c0-0.5,0.4-0.9,0.9-0.9c0.5,0,0.9,0.4,0.9,0.9C41,19.9,40.6,20.3,40.1,20.3z M22.8,24.4c-4-0.1-8-1.3-12.4-3.8v-2
	c4.3,2.4,8.4,3.6,12.4,3.6h0c0,0,0,0,0,0c4-0.1,8.1-1.3,12.4-3.6v2C30.8,23.1,26.8,24.3,22.8,24.4L22.8,24.4z M35.2,17
	c-4.3,2.5-8.4,3.8-12.4,3.8c-4-0.1-8-1.3-12.4-3.8v-4.5l12.2,4.3c0.1,0,0.1,0,0.2,0s0.1,0,0.2,0l12.2-4.3V17L35.2,17z M22.8,15.6
	L2.6,8.5l20.2-7.1l20.1,7.1L22.8,15.6L22.8,15.6z M38.9,27.9C38.9,27.9,38.8,27.9,38.9,27.9c-4.6,0.7-9.2,1.1-13.8,1.2
	c0-0.1,0-0.1-0.1-0.2c-0.1-0.3-0.4-0.5-0.8-0.4c-0.9,0.2-1.7,0.2-2.6-0.1c-0.2-0.1-0.5,0-0.7,0.2c-0.1,0.1-0.2,0.3-0.2,0.5
	C16.3,29,11.8,28.7,7.3,28C7,28,6.8,27.9,6.6,27.9c-2.3,0-4.1,3-4.1,6.9s1.8,6.9,4.1,6.9c0.2,0,0.4,0,0.7-0.1
	c3.4-0.5,6.9-0.8,10.4-1l-0.4,0.7c-0.1,0.2-0.1,0.5,0,0.7c0.1,0.2,0.4,0.3,0.6,0.3l1.6-0.2l0.6,1.5c0.1,0.2,0.3,0.4,0.6,0.4
	c0,0,0,0,0,0c0.2,0,0.5-0.1,0.6-0.3l1.5-2.7c0.5,0,1,0,1.5,0.1c0.1,0,0.1,0,0.2,0c0.1,0,0.2,0,0.2,0l1.5,2.6
	c0.1,0.2,0.3,0.3,0.6,0.3c0,0,0,0,0,0c0.2,0,0.5-0.2,0.6-0.4l0.6-1.5l1.6,0.2c0.2,0,0.5-0.1,0.6-0.3c0.1-0.2,0.1-0.5,0-0.7l-0.4-0.6
	c3,0.2,6.1,0.5,9,0.9c0,0,0.1,0,0.1,0c2.3,0,4.1-3,4.1-6.9C43,31,41.2,27.9,38.9,27.9L38.9,27.9z M26.1,35.4
	c-0.2,0.6-0.6,1.2-1.2,1.5c-0.6,0.3-1.2,0.4-1.9,0.2c-0.6-0.2-1.2-0.6-1.5-1.2c-0.3-0.6-0.4-1.2-0.2-1.9c0.3-1.1,1.3-1.8,2.4-1.8
	c0.2,0,0.4,0,0.6,0.1c0.6,0.2,1.2,0.6,1.5,1.2C26.2,34.1,26.3,34.8,26.1,35.4L26.1,35.4z M24,29.9c0.1,0.4,0.2,0.8,0.3,1.2
	c-0.5-0.1-1.1,0-1.6,0.1c-0.1-0.4-0.1-0.9-0.2-1.3C22.9,30,23.5,29.9,24,29.9L24,29.9z M8.4,30.7c0.6,1.1,0.9,2.5,0.9,4.1
	c0,0.1,0,0.2,0,0.3c-0.6,0-1.2,0-1.9,0.1c0.1-0.4,0.1-0.8,0.1-1.3c0-1.5-0.4-2.8-1.1-3.5c-0.3-0.3-0.7-0.5-1.1-0.6
	c0.4-0.4,0.8-0.6,1.2-0.6c0.1,0,0.3,0,0.4,0.1C7.5,29.5,8,30,8.4,30.7L8.4,30.7z M4.7,38.9c-0.6-1.1-0.9-2.5-0.9-4.1
	c0-1.1,0.2-2.2,0.5-3.1c0.1-0.3,0.4-0.5,0.6-0.5c0.2,0,0.4,0,0.6,0.2c0.4,0.5,0.7,1.5,0.7,2.6c0,0.7-0.1,1.3-0.3,1.8
	C5.9,36,5.9,36.2,6,36.4c0.1,0.2,0.3,0.3,0.5,0.3c0,0,0.1,0,0.1,0c1-0.2,1.8-0.2,2.6-0.2c-0.1,0.9-0.4,1.8-0.8,2.4
	C8,39.6,7.5,40.1,7,40.3c-0.1,0-0.3,0-0.4,0.1C5.9,40.3,5.3,39.8,4.7,38.9L4.7,38.9z M9.3,40c0.9-1.2,1.4-3.1,1.4-5.2
	c0-2.1-0.5-3.9-1.4-5.2c4,0.5,8,0.7,11.9,0.8c0.1,0.4,0.2,0.9,0.2,1.3c-0.7,0.5-1.2,1.2-1.4,2.1c-0.2,0.8-0.2,1.7,0.2,2.4l-1.8,3
	C15.4,39.4,12.3,39.6,9.3,40L9.3,40z M20.8,41.9l-0.3-0.7c-0.1-0.3-0.4-0.4-0.7-0.4L19,40.9l2-3.4c0.5,0.5,1.1,0.8,1.7,1
	c0,0,0,0,0,0L20.8,41.9L20.8,41.9z M23.6,39.7l0.1-0.2l0.2,0.3C23.8,39.7,23.7,39.7,23.6,39.7L23.6,39.7z M27.6,40.8
	c-0.3,0-0.6,0.1-0.7,0.4l-0.3,0.7l-2-3.4c0.3-0.1,0.6-0.2,0.9-0.4c0.3-0.2,0.6-0.4,0.8-0.6l2,3.4L27.6,40.8L27.6,40.8z M40.7,38.9
	c-0.5,0.9-1.2,1.5-1.8,1.5c-3.2-0.5-6.6-0.8-9.9-1l-1.8-3.1c0.1-0.1,0.1-0.3,0.2-0.5c0.3-1,0.1-2-0.4-2.9c-0.3-0.6-0.8-1-1.3-1.4
	c-0.1-0.4-0.1-0.8-0.2-1.1c4.5-0.1,9-0.5,13.5-1.1c0.6,0,1.3,0.6,1.8,1.5c0.6,1.1,0.9,2.5,0.9,4.1S41.3,37.8,40.7,38.9L40.7,38.9z
	 M24.6,35.1c-0.1,0.5-0.7,0.8-1.2,0.7c-0.5-0.1-0.8-0.7-0.7-1.2c0.1-0.5,0.7-0.8,1.2-0.7C24.5,34,24.8,34.5,24.6,35.1L24.6,35.1z"/>
</svg>
