<?xml version="1.0" encoding="utf-8"?>
<!-- Generator: Adobe Illustrator 28.1.0, SVG Export Plug-In . SVG Version: 6.00 Build 0)  -->
<svg version="1.1" id="Layer_1" xmlns="http://www.w3.org/2000/svg" xmlns:xlink="http://www.w3.org/1999/xlink" x="0px" y="0px"
	 viewBox="0 0 113 90" style="enable-background:new 0 0 113 90;" xml:space="preserve">
<style type="text/css">
	.st0{fill:#FFFFFF;}
</style>
<g>
	<path class="st0" d="M111.2,51C107.6,41,99,36.6,99,36.6c3,2.4,10.5,10.1,10,18.1s-3.4,14.5-18.1,22.6S56.8,85,56.8,85
		s-11.4,0.9-27.7-4.5C12.8,75.2,6.9,66,6.9,66s-5.3-7.3-3.3-15.4c2-8.1,9-13.4,9-13.4C0.7,44.5,0.2,54.4,0.3,54.4
		c-2.7,16.8,17.1,26.5,17.1,26.5s19.8,11.2,46.8,8.7c27-2.5,37.8-13.1,41.4-16.8C109.1,69.1,114.7,60.9,111.2,51z"/>
	<path class="st0" d="M36.3,44c4.2,0,7.9-2,10.2-5.1l17.1,9.8c-0.4,1.2-0.5,2.4-0.5,3.7c0,7,5.7,12.8,12.8,12.8s12.8-5.7,12.8-12.8
		S83,39.6,75.9,39.6c-4.2,0-7.9,2-10.2,5.1l-17.1-9.8c0.4-1.2,0.5-2.4,0.5-3.7c0-1.3-0.2-2.5-0.5-3.7l15.9-9.1
		c2.1,4.2,6.4,7.1,11.4,7.1c7,0,12.8-5.7,12.8-12.8C88.7,5.7,83,0,75.9,0S63.1,5.7,63.1,12.8c0,0.4,0,0.9,0.1,1.3l-16.6,9.5
		c-2.3-3.1-6-5.1-10.2-5.1c-7,0-12.8,5.7-12.8,12.8S29.3,44,36.3,44z M75.9,44c4.6,0,8.3,3.7,8.3,8.3c0,4.6-3.7,8.3-8.3,8.3
		c-4.6,0-8.3-3.7-8.3-8.3C67.6,47.8,71.3,44,75.9,44z M75.9,4.5c4.6,0,8.3,3.7,8.3,8.3c0,4.6-3.7,8.3-8.3,8.3
		c-4.6,0-8.3-3.7-8.3-8.3C67.6,8.2,71.3,4.5,75.9,4.5z M36.3,22.9c4.6,0,8.3,3.7,8.3,8.3s-3.7,8.3-8.3,8.3c-4.6,0-8.3-3.7-8.3-8.3
		S31.8,22.9,36.3,22.9z"/>
</g>
</svg>
