<?xml version="1.0" encoding="utf-8"?>
<!-- Generator: Adobe Illustrator 28.1.0, SVG Export Plug-In . SVG Version: 6.00 Build 0)  -->
<svg version="1.1" id="b02dac80-722e-451b-a8d1-a30b24cf972e"
	 xmlns="http://www.w3.org/2000/svg" xmlns:xlink="http://www.w3.org/1999/xlink" x="0px" y="0px" viewBox="0 0 41 44"
	 style="enable-background:new 0 0 41 44;" xml:space="preserve">
<style type="text/css">
	.st0{fill:#A4D178;}
</style>
<g>
	<path class="st0" d="M25,39.4h-3.8l-2.8-2.8c0.2-0.1,0.5-0.2,0.7-0.4c0.9-0.9,0.9-2.3,0-3.2c-1.1-1.1-4.8-4.8-4.8-4.8
		c-0.6-0.6-1.3-0.9-2.1-0.9H7.6v-0.8c0-0.4-0.3-0.8-0.8-0.8H0.8c-0.4,0-0.8,0.3-0.8,0.8v12.1c0,0.4,0.3,0.8,0.8,0.8h6.1
		c0.4,0,0.8-0.3,0.8-0.8v-0.8h0.5l8.9,5.9c0.1,0.1,0.3,0.1,0.4,0.1H19c0.4,0,0.8-0.3,0.8-0.8s-0.3-0.8-0.8-0.8h-1.3l-8.9-5.9
		c-0.1-0.1-0.3-0.1-0.4-0.1H7.6v-7.6h4.5c0.4,0,0.8,0.2,1.1,0.4c0,0,3.7,3.7,4.8,4.8c0.3,0.3,0.3,0.8,0,1.1c-0.3,0.3-0.8,0.3-1.1,0
		c0,0,0,0,0,0c0,0,0,0-0.1-0.1l-3.5-3.5c-0.3-0.3-0.8-0.3-1.1,0c-0.3,0.3-0.3,0.8,0,1.1l3.5,3.6c0,0,0.1,0,0.1,0.1l4.4,4.4
		c0.1,0.1,0.3,0.2,0.5,0.2H25c0.6,0,1.2,0.2,1.6,0.7c0.2,0.2,0.4,0.5,0.5,0.8H25c-0.4,0-0.8,0.3-0.8,0.8S24.6,44,25,44h3
		c0.4,0,0.8-0.3,0.8-0.8c0-1-0.4-2-1.1-2.7C27,39.9,26,39.4,25,39.4z M6.1,37.9H1.5V27.3h4.6V37.9z"/>
	<circle class="st0" cx="3.8" cy="29.6" r="0.8"/>
	<path class="st0" d="M40.2,0H19c-0.4,0-0.8,0.3-0.8,0.8v12.1c0,2.1,1.7,3.8,3.8,3.8h3.8V19c0,0.4,0.3,0.8,0.8,0.8h6.1
		c0.4,0,0.8-0.3,0.8-0.8v-2.3h3.8c2.1,0,3.8-1.7,3.8-3.8V0.8C41,0.3,40.6,0,40.2,0z M31.9,18.2h-4.6v-1.5h4.6V18.2z M39.4,12.9
		c0,1.3-1,2.3-2.3,2.3H22c-1.3,0-2.3-1-2.3-2.3V1.5h19.7V12.9z"/>
	<path class="st0" d="M26.6,13.7h6.1c0.4,0,0.8-0.3,0.8-0.8c0-0.4-0.3-0.8-0.8-0.8h-6.1c-0.4,0-0.8,0.3-0.8,0.8
		C25.8,13.3,26.1,13.7,26.6,13.7z"/>
	<path class="st0" d="M30,22.9c-0.3-0.2-0.6-0.2-0.8,0c-0.2,0.1-4.9,3.3-4.9,8.2c0,2.9,2.4,5.3,5.3,5.3s5.3-2.4,5.3-5.3
		C34.9,26.2,30.2,23,30,22.9z M29.6,34.9c-2.1,0-3.8-1.7-3.8-3.8c0-3.3,2.7-5.8,3.8-6.6c1.1,0.8,3.8,3.3,3.8,6.6
		C33.4,33.2,31.7,34.9,29.6,34.9z"/>
	<path class="st0" d="M29.6,31.9c-0.4,0-0.8-0.3-0.8-0.8c0-0.4-0.3-0.8-0.8-0.8s-0.8,0.3-0.8,0.8c0,1.3,1,2.3,2.3,2.3
		c0.4,0,0.8-0.3,0.8-0.8S30,31.9,29.6,31.9z"/>
	<circle class="st0" cx="22" cy="43.2" r="0.8"/>
</g>
</svg>
