<?xml version="1.0" encoding="utf-8"?>
<!-- Generator: Adobe Illustrator 28.1.0, SVG Export Plug-In . SVG Version: 6.00 Build 0)  -->
<svg version="1.1" id="Layer_1" xmlns="http://www.w3.org/2000/svg" xmlns:xlink="http://www.w3.org/1999/xlink" x="0px" y="0px"
	 viewBox="0 0 114 90" style="enable-background:new 0 0 114 90;" xml:space="preserve">
<style type="text/css">
	.st0{fill:#FFFFFF;}
</style>
<g>
	<path class="st0" d="M112.9,50.4c-3.6-10.1-12.3-14.6-12.3-14.6c3,2.5,10.7,10.2,10.1,18.3c-0.5,8.1-3.4,14.7-18.4,23
		c-15,8.3-34.6,7.8-34.6,7.8s-11.6,0.9-28.1-4.5C13,75,7,65.6,7,65.6s-5.4-7.4-3.4-15.7s9.1-13.7,9.1-13.7
		C0.8,43.8,0.3,53.9,0.3,53.8C-2.5,71,17.6,80.8,17.6,80.8s20.1,11.4,47.5,8.8c27.4-2.6,38.4-13.3,42-17.1
		C110.8,68.8,116.5,60.5,112.9,50.4z"/>
	<path class="st0" d="M27.6,56.7c-0.2,0.7,0,1.5,0.5,2c0.5,0.5,1.3,0.7,2,0.5L42.5,56C47,58.5,52,59.8,57,59.8
		c16.5,0,29.9-13.4,29.9-29.9S73.5,0,57,0C40.6,0,27.2,13.4,27.2,29.9c0,5.1,1.3,10.1,3.8,14.5L27.6,56.7z M57,4.1
		c14.2,0,25.7,11.5,25.7,25.7S71.2,55.6,57,55.6c-4.6,0-9.2-1.3-13.2-3.7c-0.3-0.2-0.7-0.3-1.1-0.3c-0.2,0-0.4,0-0.5,0.1l-9.7,2.6
		l2.6-9.7c0.1-0.5,0.1-1.1-0.2-1.6c-2.4-4-3.7-8.5-3.7-13.2C31.3,15.7,42.8,4.1,57,4.1z"/>
	<path class="st0" d="M43.7,25.9h26.6c1.1,0,2.1-0.9,2.1-2.1s-0.9-2.1-2.1-2.1H43.7c-1.1,0-2.1,0.9-2.1,2.1S42.6,25.9,43.7,25.9z"/>
	<path class="st0" d="M43.7,33.2h26.6c1.1,0,2.1-0.9,2.1-2.1S71.5,29,70.3,29H43.7c-1.1,0-2.1,0.9-2.1,2.1S42.6,33.2,43.7,33.2z"/>
	<path class="st0" d="M43.7,40.4h26.6c1.1,0,2.1-0.9,2.1-2.1s-0.9-2.1-2.1-2.1H43.7c-1.1,0-2.1,0.9-2.1,2.1S42.6,40.4,43.7,40.4z"/>
</g>
</svg>
