<?xml version="1.0" encoding="utf-8"?>
<!-- Generator: Adobe Illustrator 28.1.0, SVG Export Plug-In . SVG Version: 6.00 Build 0)  -->
<svg version="1.1" id="Layer_1" xmlns="http://www.w3.org/2000/svg" xmlns:xlink="http://www.w3.org/1999/xlink" x="0px" y="0px"
	 viewBox="0 0 46.4 44" style="enable-background:new 0 0 46.4 44;" xml:space="preserve">
<style type="text/css">
	.st0{fill:#A4D178;}
</style>
<path class="st0" d="M42.9,12c0.7-0.8,1.1-1.8,1.1-2.9c0-2.4-1.9-4.3-4.3-4.3c-2,0-3.7,1.3-4.2,3.1c-0.4-0.3-0.9-0.6-1.4-0.8
	c0.7-0.8,1.1-1.8,1.1-2.9c0-2.4-1.9-4.3-4.3-4.3s-4.3,1.9-4.3,4.3c0,1.1,0.4,2.1,1.1,2.9c-1.1,0.5-2.1,1.3-2.7,2.4
	c-0.6-0.1-1.2-0.1-1.7-0.1c-0.6,0-1.2,0-1.7,0.1c-0.6-1.1-1.6-1.9-2.7-2.4c0.7-0.8,1.1-1.8,1.1-2.9c0-2.4-1.9-4.3-4.3-4.3
	s-4.3,1.9-4.3,4.3c0,1.1,0.4,2.1,1.1,2.9c-0.5,0.2-0.9,0.5-1.4,0.8c-0.5-1.8-2.2-3.1-4.2-3.1c-2.4,0-4.3,1.9-4.3,4.3
	c0,1.1,0.4,2.1,1.1,2.9C1.4,12.9,0,15,0,17.4v2.9C0,20.7,0.3,21,0.7,21h9.5c-0.1,0.5-0.1,1-0.1,1.6c0,7.2,5.9,13.1,13.1,13.1
	c2.6,0,5-0.7,7-2l9.5,9.5c0.6,0.6,1.3,0.9,2.1,0.9c0.7,0,1.5-0.3,2.1-0.9c0.5-0.5,0.8-1.3,0.8-2.1c0-0.8-0.3-1.5-0.8-2.1l-9.5-9.5
	c1.3-2,2-4.4,2-7c0-0.5,0-1-0.1-1.6h9.5c0.4,0,0.7-0.3,0.7-0.7v-2.9C46.4,15,45,12.9,42.9,12L42.9,12z M39.6,6.2c1.6,0,3,1.3,3,2.9
	s-1.3,2.9-3,2.9s-3-1.3-3-2.9S38,6.2,39.6,6.2z M30.9,1.4c1.6,0,3,1.3,3,2.9s-1.3,2.9-3,2.9s-3-1.3-3-2.9S29.2,1.4,30.9,1.4z
	 M29,8.2c0.6,0.3,1.2,0.4,1.9,0.4c0.7,0,1.3-0.2,1.9-0.4c1,0.2,1.9,0.8,2.6,1.7c0.1,0.8,0.5,1.6,1.1,2.2c-1.2,0.5-2.2,1.4-2.8,2.5
	c-1.8-2.3-4.3-4-7.2-4.7C27,9,28,8.4,29,8.2z M15.5,1.4c1.6,0,3,1.3,3,2.9s-1.3,2.9-3,2.9s-3-1.3-3-2.9S13.9,1.4,15.5,1.4z
	 M13.6,8.2c0.6,0.3,1.2,0.4,1.9,0.4c0.7,0,1.3-0.2,1.9-0.4c1,0.2,1.9,0.8,2.6,1.7c-2.9,0.7-5.4,2.4-7.2,4.7c-0.6-1.1-1.6-2-2.8-2.5
	c0.5-0.6,0.9-1.4,1.1-2.2C11.7,9,12.6,8.4,13.6,8.2z M6.8,6.2c1.6,0,3,1.3,3,2.9s-1.3,2.9-3,2.9s-3-1.3-3-2.9S5.1,6.2,6.8,6.2z
	 M1.4,19.6v-2.2c0-2.1,1.5-3.9,3.5-4.4c0.6,0.3,1.2,0.4,1.9,0.4c0.7,0,1.3-0.2,1.9-0.4c1.5,0.3,2.7,1.4,3.2,2.9
	c-0.7,1.1-1.2,2.4-1.5,3.7L1.4,19.6L1.4,19.6z M43.3,41.1c0,0.4-0.2,0.8-0.4,1.1c-0.6,0.6-1.6,0.6-2.2,0L39.5,41l2.2-2.2l1.1,1.1
	C43.1,40.3,43.3,40.7,43.3,41.1z M40.7,37.9l-2.2,2.2l-7.2-7.2c0.8-0.6,1.5-1.4,2.2-2.2L40.7,37.9z M23.2,34.3
	c-6.5,0-11.7-5.3-11.7-11.7s5.3-11.7,11.7-11.7s11.7,5.3,11.7,11.7S29.7,34.3,23.2,34.3z M45,19.6h-9c-0.3-1.3-0.8-2.6-1.5-3.7
	c0.5-1.4,1.7-2.5,3.2-2.9c0.6,0.3,1.2,0.4,1.9,0.4c0.7,0,1.3-0.2,1.9-0.4c2,0.5,3.5,2.3,3.5,4.4L45,19.6L45,19.6z M23.2,12.2
	c-5.7,0-10.3,4.6-10.3,10.3s4.6,10.3,10.3,10.3s10.3-4.6,10.3-10.3S28.9,12.2,23.2,12.2L23.2,12.2z M18,29.9v-0.5
	c0-2,1.4-3.7,3.3-4.2c0.6,0.3,1.2,0.4,1.8,0.4c0.7,0,1.3-0.1,1.8-0.4c1.9,0.4,3.3,2.2,3.3,4.2v0.5c-1.5,1-3.2,1.6-5.1,1.6
	C21.3,31.5,19.5,30.9,18,29.9L18,29.9z M23.2,24.3c-1.6,0-2.8-1.2-2.8-2.8c0-1.5,1.3-2.8,2.8-2.8S26,20,26,21.5
	C26,23,24.8,24.3,23.2,24.3z M29.7,28.7c-0.2-2-1.5-3.7-3.3-4.5c0.7-0.7,1.1-1.7,1.1-2.7c0-2.3-1.9-4.2-4.2-4.2S19,19.2,19,21.5
	c0,1.1,0.4,2,1.1,2.7c-1.8,0.8-3.1,2.5-3.3,4.5c-1.5-1.6-2.5-3.8-2.5-6.2c0-4.9,4-9,9-9c4.9,0,9,4,9,9C32.2,25,31.2,27.1,29.7,28.7
	L29.7,28.7z"/>
</svg>
