<?xml version="1.0" encoding="utf-8"?>
<!-- Generator: Adobe Illustrator 28.1.0, SVG Export Plug-In . SVG Version: 6.00 Build 0)  -->
<svg version="1.1" id="b02dac80-722e-451b-a8d1-a30b24cf972e"
	 xmlns="http://www.w3.org/2000/svg" xmlns:xlink="http://www.w3.org/1999/xlink" x="0px" y="0px" viewBox="0 0 36.7 44"
	 style="enable-background:new 0 0 36.7 44;" xml:space="preserve">
<style type="text/css">
	.st0{fill:#A4D178;}
</style>
<g>
	<path class="st0" d="M30.1,31.7c-0.4,0-0.7,0.3-0.7,0.7v7.9c0,1.2-1,2.2-2.2,2.2h-8.8c-0.4,0-0.7,0.3-0.7,0.7s0.3,0.7,0.7,0.7h8.8
		c2,0,3.7-1.6,3.7-3.7v-7.9C30.8,32,30.5,31.7,30.1,31.7z"/>
	<path class="st0" d="M12.5,42.5H3.7c-1.2,0-2.2-1-2.2-2.2V8.1c0-1,0.6-1.8,1.5-2.1v32.9c0,1.2,1,2.2,2.2,2.2h20.5
		c1.2,0,2.2-1,2.2-2.2V33c0-0.4-0.3-0.7-0.7-0.7s-0.7,0.3-0.7,0.7v5.9c0,0.4-0.3,0.7-0.7,0.7H5.1c-0.4,0-0.7-0.3-0.7-0.7v-33h4.4
		v0.7c0,0.4,0.3,0.7,0.7,0.7h11.7C21.7,7.3,22,7,22,6.6V5.9h4.4v2.2c0,0.4,0.3,0.7,0.7,0.7s0.7-0.3,0.7-0.7V6
		c0.9,0.3,1.5,1.1,1.5,2.1v0.6c0,0.4,0.3,0.7,0.7,0.7c0.4,0,0.7-0.3,0.7-0.7V8.1c0-2-1.6-3.7-3.7-3.7H22V3.7c0-0.4-0.3-0.7-0.7-0.7
		H19C18.7,1.3,17.2,0,15.4,0s-3.3,1.3-3.6,2.9H9.5c-0.4,0-0.7,0.3-0.7,0.7v0.7H3.7C1.6,4.4,0,6,0,8.1v32.3c0,2,1.6,3.7,3.7,3.7h8.8
		c0.4,0,0.7-0.3,0.7-0.7S12.9,42.5,12.5,42.5z M10.3,4.4h2.2c0.4,0,0.7-0.3,0.7-0.7c0-1.2,1-2.2,2.2-2.2s2.2,1,2.2,2.2
		c0,0.4,0.3,0.7,0.7,0.7h2.2v0.7c0,0,0,0,0,0s0,0,0,0v0.7H10.3V4.4z"/>
	<path class="st0" d="M35.3,15.4c-2.8-4.9-9.1-6.6-14-3.8c-4.9,2.8-6.6,9.1-3.8,14c1.9,3.3,5.4,5.1,8.9,5.1c1.7,0,3.5-0.4,5.1-1.4
		C36.4,26.6,38.1,20.3,35.3,15.4z M30.8,28.1c-4.2,2.4-9.6,1-12-3.2c-2.4-4.2-1-9.6,3.2-12c1.4-0.8,2.9-1.2,4.4-1.2
		c3,0,6,1.6,7.6,4.4C36.4,20.3,35,25.7,30.8,28.1z"/>
	<path class="st0" d="M7.3,34.5c0,0.4,0.3,0.7,0.7,0.7h14.7c0.4,0,0.7-0.3,0.7-0.7s-0.3-0.7-0.7-0.7H8.1C7.7,33.7,7.3,34.1,7.3,34.5
		z"/>
	<path class="st0" d="M16.9,29.3H8.1c-0.4,0-0.7,0.3-0.7,0.7c0,0.4,0.3,0.7,0.7,0.7h8.8c0.4,0,0.7-0.3,0.7-0.7
		C17.6,29.7,17.3,29.3,16.9,29.3z"/>
	<path class="st0" d="M8.1,26.4h5.9c0.4,0,0.7-0.3,0.7-0.7s-0.3-0.7-0.7-0.7H8.1c-0.4,0-0.7,0.3-0.7,0.7S7.7,26.4,8.1,26.4z"/>
	<path class="st0" d="M8.1,22h5.9c0.4,0,0.7-0.3,0.7-0.7s-0.3-0.7-0.7-0.7H8.1c-0.4,0-0.7,0.3-0.7,0.7S7.7,22,8.1,22z"/>
	<path class="st0" d="M13.9,16.1H8.1c-0.4,0-0.7,0.3-0.7,0.7s0.3,0.7,0.7,0.7h5.9c0.4,0,0.7-0.3,0.7-0.7S14.3,16.1,13.9,16.1z"/>
	<path class="st0" d="M17.6,12.5c0-0.4-0.3-0.7-0.7-0.7H8.1c-0.4,0-0.7,0.3-0.7,0.7c0,0.4,0.3,0.7,0.7,0.7h8.8
		C17.3,13.2,17.6,12.9,17.6,12.5z"/>
	<circle class="st0" cx="15.4" cy="43.3" r="0.7"/>
	<path class="st0" d="M28.6,17.9l-3.2,3.2l-1.3-1.3c-0.4-0.4-1-0.4-1.4,0c-0.4,0.4-0.4,1,0,1.4l2,2c0.4,0.4,1,0.4,1.4,0c0,0,0,0,0,0
		l3.9-3.9c0.4-0.4,0.4-1,0-1.4C29.6,17.5,29,17.5,28.6,17.9z"/>
</g>
</svg>
