<?xml version="1.0" encoding="utf-8"?>
<!-- Generator: Adobe Illustrator 28.1.0, SVG Export Plug-In . SVG Version: 6.00 Build 0)  -->
<svg version="1.1" id="b02dac80-722e-451b-a8d1-a30b24cf972e"
	 xmlns="http://www.w3.org/2000/svg" xmlns:xlink="http://www.w3.org/1999/xlink" x="0px" y="0px" viewBox="0 0 30.8 44"
	 style="enable-background:new 0 0 30.8 44;" xml:space="preserve">
<style type="text/css">
	.st0{fill:#A4D178;}
</style>
<g>
	<path class="st0" d="M27.1,4.4H22V3.7c0-0.4-0.3-0.7-0.7-0.7H19C18.7,1.3,17.2,0,15.4,0c-1.8,0-3.3,1.3-3.6,2.9H9.5
		c-0.4,0-0.7,0.3-0.7,0.7v0.7H3.7C1.6,4.4,0,6,0,8.1v32.3c0,2,1.6,3.7,3.7,3.7h8.8c0.4,0,0.7-0.3,0.7-0.7s-0.3-0.7-0.7-0.7H3.7
		c-1.2,0-2.2-1-2.2-2.2V8.1c0-1,0.6-1.8,1.5-2.1v32.9c0,1.2,1,2.2,2.2,2.2h20.5c1.2,0,2.2-1,2.2-2.2V33v-4V6
		c0.9,0.3,1.5,1.1,1.5,2.1V29v3.5v7.9c0,1.2-1,2.2-2.2,2.2h-8.8c-0.4,0-0.7,0.3-0.7,0.7s0.3,0.7,0.7,0.7h8.8c2,0,3.7-1.6,3.7-3.7
		v-7.9V29V8.1C30.8,6,29.2,4.4,27.1,4.4z M10.3,4.4h2.2c0.4,0,0.7-0.3,0.7-0.7c0-1.2,1-2.2,2.2-2.2s2.2,1,2.2,2.2
		c0,0.4,0.3,0.7,0.7,0.7h2.2v0.7c0,0,0,0,0,0c0,0,0,0,0,0v0.7H10.3V4.4z M26.4,29v4v5.9c0,0.4-0.3,0.7-0.7,0.7H5.1
		c-0.4,0-0.7-0.3-0.7-0.7v-33h4.4v0.7c0,0.4,0.3,0.7,0.7,0.7h11.7C21.7,7.3,22,7,22,6.6V5.9h4.4V29z"/>
	<path class="st0" d="M23.7,33.7h-9.7c-0.4,0-0.7,0.3-0.7,0.7s0.3,0.7,0.7,0.7h9.7c0.4,0,0.7-0.3,0.7-0.7S24.1,33.7,23.7,33.7z"/>
	<circle class="st0" cx="15.4" cy="43.3" r="0.7"/>
	<path class="st0" d="M10.4,12.9l-1.9,1.9l-0.7-0.7c-0.2-0.2-0.6-0.2-0.8,0c-0.2,0.2-0.2,0.6,0,0.8L8.2,16c0.2,0.2,0.6,0.2,0.8,0
		c0,0,0,0,0,0l2.3-2.3c0.2-0.2,0.2-0.6,0-0.8C11,12.7,10.7,12.7,10.4,12.9z"/>
	<path class="st0" d="M23.7,29.7h-9.7c-0.4,0-0.7,0.3-0.7,0.7s0.3,0.7,0.7,0.7h9.7c0.4,0,0.7-0.3,0.7-0.7S24.1,29.7,23.7,29.7z"/>
	<path class="st0" d="M23.7,25.7h-9.7c-0.4,0-0.7,0.3-0.7,0.7s0.3,0.7,0.7,0.7h9.7c0.4,0,0.7-0.3,0.7-0.7S24.1,25.7,23.7,25.7z"/>
	<path class="st0" d="M23.7,21.7h-9.7c-0.4,0-0.7,0.3-0.7,0.7s0.3,0.7,0.7,0.7h9.7c0.4,0,0.7-0.3,0.7-0.7S24.1,21.7,23.7,21.7z"/>
	<path class="st0" d="M23.7,17.7h-9.7c-0.4,0-0.7,0.3-0.7,0.7s0.3,0.7,0.7,0.7h9.7c0.4,0,0.7-0.3,0.7-0.7S24.1,17.7,23.7,17.7z"/>
	<path class="st0" d="M13.3,14.5c0,0.4,0.3,0.7,0.7,0.7h9.7c0.4,0,0.7-0.3,0.7-0.7s-0.3-0.7-0.7-0.7h-9.7
		C13.7,13.7,13.3,14.1,13.3,14.5z"/>
	<path class="st0" d="M10.4,16.9l-1.9,1.9l-0.7-0.7c-0.2-0.2-0.6-0.2-0.8,0c-0.2,0.2-0.2,0.6,0,0.8L8.2,20c0.2,0.2,0.6,0.2,0.8,0
		c0,0,0,0,0,0l2.3-2.3c0.2-0.2,0.2-0.6,0-0.8C11,16.7,10.7,16.7,10.4,16.9z"/>
	<path class="st0" d="M10.4,20.9l-1.9,1.9l-0.7-0.7c-0.2-0.2-0.6-0.2-0.8,0c-0.2,0.2-0.2,0.6,0,0.8L8.2,24c0.2,0.2,0.6,0.2,0.8,0
		c0,0,0,0,0,0l2.3-2.3c0.2-0.2,0.2-0.6,0-0.8C11,20.7,10.7,20.7,10.4,20.9z"/>
	<path class="st0" d="M10.4,24.9l-1.9,1.9l-0.7-0.7c-0.2-0.2-0.6-0.2-0.8,0c-0.2,0.2-0.2,0.6,0,0.8L8.2,28c0.2,0.2,0.6,0.2,0.8,0
		c0,0,0,0,0,0l2.3-2.3c0.2-0.2,0.2-0.6,0-0.8C11,24.7,10.7,24.7,10.4,24.9z"/>
	<path class="st0" d="M10.4,28.9l-1.9,1.9l-0.7-0.7c-0.2-0.2-0.6-0.2-0.8,0c-0.2,0.2-0.2,0.6,0,0.8L8.2,32c0.2,0.2,0.6,0.2,0.8,0
		c0,0,0,0,0,0l2.3-2.3c0.2-0.2,0.2-0.6,0-0.8C11,28.7,10.7,28.7,10.4,28.9z"/>
	<path class="st0" d="M10.4,32.9l-1.9,1.9l-0.7-0.7c-0.2-0.2-0.6-0.2-0.8,0c-0.2,0.2-0.2,0.6,0,0.8L8.2,36c0.2,0.2,0.6,0.2,0.8,0
		c0,0,0,0,0,0l2.3-2.3c0.2-0.2,0.2-0.6,0-0.8C11,32.7,10.7,32.7,10.4,32.9z"/>
</g>
</svg>
