<?xml version="1.0" encoding="utf-8"?>
<!-- Generator: Adobe Illustrator 28.1.0, SVG Export Plug-In . SVG Version: 6.00 Build 0)  -->
<svg version="1.1" id="Layer_1" xmlns="http://www.w3.org/2000/svg" xmlns:xlink="http://www.w3.org/1999/xlink" x="0px" y="0px"
	 viewBox="0 0 30.1 44" style="enable-background:new 0 0 30.1 44;" xml:space="preserve">
<style type="text/css">
	.st0{fill:#A4D178;}
</style>
<path class="st0" d="M20.5,15.6c2.1-1.6,3.4-4.1,3.4-6.9c0-4.8-4-8.7-8.8-8.7S6.2,3.9,6.2,8.7c0,2.8,1.3,5.3,3.4,6.9
	C4.1,16.8,0,21.8,0,27.6v6.1c0,0.9,0.8,1.7,1.7,1.7h2.9c0.3,0,0.7,0,1-0.1c1.5,1.9,3.4,3.5,5.3,5.2c1.2,1.1,2.5,2.2,3.7,3.4
	c0.1,0.1,0.3,0.2,0.5,0.2c0.2,0,0.3-0.1,0.5-0.2c1.2-1.2,2.4-2.3,3.7-3.4c1.9-1.7,3.8-3.3,5.3-5.2c0.3,0.1,0.7,0.1,1,0.1h2.9
	c0.9,0,1.7-0.8,1.7-1.7v-6.1C30.1,21.8,26,16.8,20.5,15.6z M7.5,8.7c0-4.1,3.4-7.4,7.5-7.4s7.5,3.3,7.5,7.4s-3.4,7.4-7.5,7.4
	S7.5,12.8,7.5,8.7L7.5,8.7z M11.4,16.7c1.1,0.5,2.4,0.8,3.7,0.8c1.3,0,2.6-0.3,3.7-0.8c5.7,0.4,10.1,5.2,10.1,10.9v0.1h-0.8
	c0.2-1.6-0.1-3.2-0.8-4.5c-0.8-1.4-2-2.6-3.5-3.3c-1.5-0.7-3.1-0.8-4.6-0.4c-1.5,0.4-2.9,1.3-4,2.5c-1.2-1.3-2.5-2.2-4-2.5
	c-1.6-0.4-3.2-0.3-4.6,0.4c-1.5,0.7-2.7,1.8-3.5,3.3c-0.7,1.4-1,2.9-0.8,4.5H1.3v-0.1C1.3,21.9,5.7,17.1,11.4,16.7L11.4,16.7z
	 M1.7,34.1c-0.2,0-0.4-0.2-0.4-0.4v-4.7h3.3c1.4,0,2.6,1.1,2.6,2.6S6,34.1,4.6,34.1L1.7,34.1L1.7,34.1z M18.3,39.5
	c-1.1,1-2.2,1.9-3.3,3c-1.1-1-2.2-2-3.3-3c-1.8-1.6-3.5-3.1-5-4.8c1-0.7,1.6-1.8,1.6-3.2c0-2.1-1.7-3.9-3.9-3.9H3.4
	C3,24.4,4.8,22,6.9,21c2.1-0.9,5.1-0.8,7.6,2.3c0.1,0.2,0.3,0.2,0.5,0.2c0.2,0,0.4-0.1,0.5-0.2c2.5-3.2,5.6-3.3,7.6-2.3
	c2.1,1,4,3.4,3.5,6.6h-1.1c-2.1,0-3.9,1.7-3.9,3.9c0,1.3,0.6,2.5,1.6,3.2C21.8,36.4,20.1,37.9,18.3,39.5L18.3,39.5z M28.8,33.6
	c0,0.2-0.2,0.4-0.4,0.4h-2.9c-1.4,0-2.6-1.1-2.6-2.6c0-1.4,1.1-2.6,2.6-2.6h3.3V33.6z M20.4,29L17,28.7l-1.4-3.1
	c-0.1-0.2-0.3-0.4-0.6-0.4c-0.3,0-0.5,0.2-0.6,0.4l-1.4,3.1L9.7,29c-0.3,0-0.5,0.2-0.6,0.4c-0.1,0.2,0,0.5,0.2,0.7l2.6,2.3l-0.8,3.3
	c-0.1,0.3,0,0.5,0.3,0.7c0.2,0.2,0.5,0.2,0.7,0l2.9-1.7l2.9,1.7c0.1,0.1,0.2,0.1,0.3,0.1c0.1,0,0.3,0,0.4-0.1
	c0.2-0.2,0.3-0.4,0.3-0.7l-0.8-3.3l2.6-2.3c0.2-0.2,0.3-0.4,0.2-0.7C20.9,29.2,20.7,29,20.4,29L20.4,29z M17.1,31.7
	c-0.2,0.2-0.3,0.4-0.2,0.6l0.5,2.3l-2-1.2c-0.1-0.1-0.2-0.1-0.3-0.1s-0.2,0-0.3,0.1l-2,1.2l0.5-2.3c0.1-0.2,0-0.5-0.2-0.6l-1.7-1.5
	l2.3-0.2c0.2,0,0.4-0.2,0.5-0.4l0.9-2.1l0.9,2.1c0.1,0.2,0.3,0.4,0.5,0.4l2.3,0.2L17.1,31.7z"/>
</svg>
