<svg width="63" height="10" viewBox="0 0 63 10" fill="none" xmlns="http://www.w3.org/2000/svg">
<path d="M7.16174 6.60456V1.91511H5.59851V2.61905H5.57428C5.08956 1.99793 4.28977 1.71843 3.42939 1.71843C1.50263 1.71843 0 3.11594 0 4.73085C0 5.96273 0.775552 7.07039 2.10853 7.58799C2.52054 7.75362 2.98103 7.84679 3.44151 7.84679C4.33824 7.84679 5.12591 7.55694 5.64699 6.92547L5.67122 6.94617C5.61063 7.93996 4.81084 8.73706 3.61116 8.73706C2.93256 8.73706 2.39936 8.54037 1.951 8.09524H0.109062C0.654372 9.29607 1.99947 10 3.48998 10C3.99894 10 4.53213 9.90683 5.00473 9.73085C6.54372 9.1822 7.16174 7.98137 7.16174 6.60456ZM5.55004 4.73085C5.55004 5.67288 4.79873 6.58385 3.62328 6.58385C2.43572 6.58385 1.61169 5.72464 1.61169 4.7412C1.61169 3.79917 2.43572 2.98137 3.57481 2.98137C4.66543 2.98137 5.55004 3.80952 5.55004 4.73085Z" fill="white"/>
<path d="M11.4534 3.05383V1.71843C10.6536 1.71843 10.3264 1.86335 9.87806 2.42236H9.85382V1.91511H8.37543V7.66046H9.98712V4.43064C9.98712 3.59213 10.3991 3.08489 11.4534 3.05383Z" fill="white"/>
<path d="M13.7475 1.26294V0H12.1358V1.26294H13.7475ZM13.7475 7.66046V1.91511H12.1358V7.66046H13.7475Z" fill="white"/>
<path d="M21.7967 5.78675H19.979C19.6397 6.25259 19.1428 6.58385 18.4885 6.58385C17.2888 6.58385 16.4648 5.7764 16.4648 4.78261C16.4648 3.79917 17.2161 2.98137 18.4158 2.98137C19.1671 2.98137 19.6276 3.28157 19.979 3.81988H21.7967C21.2998 2.54658 19.9911 1.71843 18.4158 1.71843C16.4526 1.71843 14.8531 3.08489 14.8531 4.7619C14.8531 6.44928 16.4405 7.84679 18.4279 7.84679C20.0153 7.84679 21.2635 7.04969 21.7967 5.78675Z" fill="white"/>
<path d="M25.9974 3.05383V1.71843C25.1976 1.71843 24.8704 1.86335 24.422 2.42236H24.3978V1.91511H22.9194V7.66046H24.5311V4.43064C24.5311 3.59213 24.9431 3.08489 25.9974 3.05383Z" fill="white"/>
<path d="M33.0981 4.71014C33.0981 3.04348 31.5834 1.71843 29.6203 1.71843C27.5844 1.71843 26.0818 3.08489 26.0818 4.80331C26.0818 6.51139 27.6208 7.84679 29.6324 7.84679C31.0623 7.84679 32.4438 7.01863 32.88 5.84886H31.1835C30.8563 6.35611 30.2868 6.58385 29.6324 6.58385C28.9659 6.58385 28.36 6.294 27.9965 5.81781C27.8995 5.69358 27.8147 5.55901 27.7783 5.40373H33.0012C33.0618 5.17598 33.0981 4.93789 33.0981 4.71014ZM31.4501 4.29607H27.7299C27.9601 3.47826 28.6508 2.98137 29.6324 2.98137C30.6139 2.98137 31.2925 3.46791 31.4501 4.29607Z" fill="white"/>
<path d="M40.8857 7.66046V1.91511H39.4073V2.63975H39.3831C39.3225 2.55694 39.2135 2.46377 39.1407 2.40166C38.5954 1.97723 37.8926 1.71843 37.1534 1.71843C35.166 1.71843 33.7846 3.10559 33.7846 4.75155C33.7846 6.38716 35.0327 7.84679 37.0565 7.84679C37.8805 7.84679 38.8741 7.48447 39.4073 6.94617V7.66046H40.8857ZM39.3589 4.77226C39.3589 5.75569 38.5954 6.58385 37.3958 6.58385C36.2445 6.58385 35.3963 5.7764 35.3963 4.81366C35.3963 3.83023 36.1961 2.98137 37.3958 2.98137C38.5833 2.98137 39.3589 3.78882 39.3589 4.77226Z" fill="white"/>
<path d="M45.0805 3.13665V1.91511H44.111V0H42.4993V1.91511H41.7117V3.13665H42.4993V7.66046H44.111V3.13665H45.0805Z" fill="white"/>
<path d="M47.3442 1.26294V0H45.7325V1.26294H47.3442ZM47.3442 7.66046V1.91511H45.7325V7.66046H47.3442Z" fill="white"/>
<path d="M54.739 1.91511H52.9697L51.4429 5.72464H51.4065L49.7827 1.91511H48.0377L50.7522 7.66046H52.0124L54.739 1.91511Z" fill="white"/>
<path d="M62.1742 4.71014C62.1742 3.04348 60.6595 1.71843 58.6964 1.71843C56.6605 1.71843 55.1579 3.08489 55.1579 4.80331C55.1579 6.51139 56.6969 7.84679 58.7085 7.84679C60.1384 7.84679 61.5198 7.01863 61.9561 5.84886H60.2596C59.9324 6.35611 59.3628 6.58385 58.7085 6.58385C58.042 6.58385 57.4361 6.294 57.0725 5.81781C56.9756 5.69358 56.8908 5.55901 56.8544 5.40373H62.0773C62.1379 5.17598 62.1742 4.93789 62.1742 4.71014ZM60.5262 4.29607H56.8059C57.0362 3.47826 57.7269 2.98137 58.7085 2.98137C59.69 2.98137 60.3686 3.46791 60.5262 4.29607Z" fill="white"/>
</svg>
