<?xml version="1.0" encoding="utf-8"?>
<!-- Generator: Adobe Illustrator 28.1.0, SVG Export Plug-In . SVG Version: 6.00 Build 0)  -->
<svg version="1.1" id="Layer_1" xmlns="http://www.w3.org/2000/svg" xmlns:xlink="http://www.w3.org/1999/xlink" x="0px" y="0px"
	 viewBox="0 0 37 44" style="enable-background:new 0 0 37 44;" xml:space="preserve">
<style type="text/css">
	.st0{fill:#A4D178;}
</style>
<path class="st0" d="M7.7,8C7.8,8.1,8,8.2,8.1,8.2l2.3,0.1c-1.3,1.7-2.1,3.9-2.1,6.2c0,5.6,4.6,10.2,10.2,10.2s10.2-4.6,10.2-10.2
	S24.1,4.3,18.5,4.3c-2.3,0-4.5,0.8-6.2,2.1l-0.1-2.3c0-0.2-0.1-0.3-0.2-0.4L8.5,0.2C8.3,0,8-0.1,7.8,0.1C7.5,0.2,7.4,0.4,7.4,0.7
	l0.1,2.8L4.6,3.4C4.4,3.4,4.1,3.5,4,3.8C3.9,4,4,4.3,4.2,4.5L7.7,8z M27.4,14.5c0,4.9-4,8.9-8.9,8.9s-8.9-4-8.9-8.9
	c0-2.2,0.8-4.2,2.2-5.8l1.5,1.5c-1,1.2-1.5,2.7-1.5,4.3c0,3.7,3,6.7,6.7,6.7s6.7-3,6.7-6.7s-3-6.7-6.7-6.7c-1.6,0-3.1,0.6-4.3,1.5
	l-1.5-1.5c1.6-1.3,3.6-2.2,5.8-2.2C23.4,5.6,27.4,9.6,27.4,14.5z M15.7,12.6c-0.4,0.5-0.6,1.2-0.6,1.9c0,1.9,1.5,3.4,3.4,3.4
	c1.9,0,3.4-1.5,3.4-3.4c0-1.9-1.5-3.4-3.4-3.4c-0.7,0-1.4,0.2-1.9,0.6l-1.5-1.5c0.9-0.7,2.1-1.2,3.4-1.2c3,0,5.5,2.4,5.5,5.5
	S21.5,20,18.5,20S13,17.5,13,14.5c0-1.3,0.4-2.4,1.2-3.4L15.7,12.6z M18,15c0.1,0.1,0.3,0.2,0.5,0.2s0.3-0.1,0.5-0.2
	c0.3-0.3,0.3-0.7,0-0.9l-1.4-1.4c0.3-0.1,0.6-0.2,1-0.2c1.2,0,2.1,0.9,2.1,2.1s-0.9,2.1-2.1,2.1c-1.2,0-2.1-0.9-2.1-2.1
	c0-0.3,0.1-0.7,0.2-1L18,15z M8.1,4.8c0.2,0,0.4-0.1,0.5-0.2c0.1-0.1,0.2-0.3,0.2-0.5L8.7,2.3l2.2,2.2L11,7L8.4,6.9L6.2,4.7L8.1,4.8
	z M35.5,33.1c-0.7-0.8-1.5-1.4-2.5-1.8c0.8-0.8,1.3-2,1.3-3.2c0-2.6-2.1-4.6-4.7-4.6S25,25.6,25,28.1c0,1.2,0.5,2.4,1.3,3.2
	c-1.6,0.6-2.8,1.9-3.5,3.4c-0.3-0.2-0.6-0.3-0.9-0.5c0.8-0.8,1.3-2,1.3-3.2c0-2.6-2.1-4.6-4.7-4.6c-2.6,0-4.7,2.1-4.7,4.6
	c0,1.2,0.5,2.4,1.3,3.2c-0.3,0.1-0.6,0.3-0.9,0.5c-0.7-1.6-1.9-2.8-3.5-3.4c0.8-0.8,1.3-2,1.3-3.2c0-2.6-2.1-4.6-4.7-4.6
	s-4.7,2.1-4.7,4.6c0,1.2,0.5,2.4,1.3,3.2c-0.9,0.4-1.8,1-2.5,1.8c-1,1.1-1.5,2.6-1.5,4.1v2.9c0,0.5,0.4,1,1,1h10.2V43
	c0,0.5,0.4,1,1,1h12.7c0.5,0,1-0.4,1-1v-1.9H36c0.5,0,1-0.4,1-1v-2.9C37,35.7,36.4,34.3,35.5,33.1L35.5,33.1z M29.6,24.8
	c1.9,0,3.4,1.5,3.4,3.3c0,1.8-1.5,3.3-3.4,3.3s-3.4-1.5-3.4-3.3C26.3,26.3,27.8,24.8,29.6,24.8z M18.5,27.7c1.9,0,3.4,1.5,3.4,3.3
	c0,1.8-1.5,3.3-3.4,3.3c-1.9,0-3.4-1.5-3.4-3.3C15.1,29.2,16.6,27.7,18.5,27.7z M7.3,24.8c1.9,0,3.4,1.5,3.4,3.3
	c0,1.8-1.5,3.3-3.4,3.3S4,30,4,28.1C4,26.3,5.5,24.8,7.3,24.8z M11.2,39.8H1.3v-2.6c0-2.4,1.7-4.4,4-4.9c0.6,0.3,1.3,0.5,2.1,0.5
	c0.7,0,1.4-0.2,2.1-0.5c1.7,0.4,3.1,1.6,3.7,3.3c-0.2,0.1-0.3,0.3-0.4,0.5C11.8,37.1,11.2,38.4,11.2,39.8L11.2,39.8z M24.5,42.7
	H12.4v-2.6c0-2.4,1.7-4.4,4-4.9c0.6,0.3,1.3,0.5,2.1,0.5s1.4-0.2,2.1-0.5c2.3,0.5,4,2.5,4,4.9L24.5,42.7L24.5,42.7z M35.7,39.8h-9.9
	c-0.1-1.4-0.6-2.7-1.5-3.7c-0.1-0.2-0.3-0.3-0.4-0.5c0.6-1.7,2-2.9,3.7-3.3c0.6,0.3,1.3,0.5,2.1,0.5c0.7,0,1.4-0.2,2.1-0.5
	c2.3,0.5,4,2.5,4,4.9V39.8z"/>
</svg>
