<?xml version="1.0" encoding="utf-8"?>
<!-- Generator: Adobe Illustrator 28.1.0, SVG Export Plug-In . SVG Version: 6.00 Build 0)  -->
<svg version="1.1" id="Layer_1" xmlns="http://www.w3.org/2000/svg" xmlns:xlink="http://www.w3.org/1999/xlink" x="0px" y="0px"
	 viewBox="0 0 46.5 44" style="enable-background:new 0 0 46.5 44;" xml:space="preserve">
<style type="text/css">
	.st0{fill:#A4D178;}
</style>
<path class="st0" d="M9.3,36.7c0.5-0.6,0.8-1.4,0.8-2.2c0-2-1.6-3.6-3.6-3.6s-3.6,1.6-3.6,3.6c0,0.8,0.3,1.6,0.8,2.2
	C2.1,37.4,1,39.1,1,41v2.3C1,43.7,1.3,44,1.7,44h9.7c0.4,0,0.7-0.3,0.7-0.7V41C12,39.1,10.9,37.4,9.3,36.7L9.3,36.7z M6.5,32.2
	c1.2,0,2.2,1,2.2,2.2c0,1.2-1,2.2-2.2,2.2s-2.2-1-2.2-2.2C4.3,33.2,5.3,32.2,6.5,32.2z M10.7,42.6H2.3V41c0-1.6,1.1-3,2.6-3.3
	C5.4,37.9,6,38,6.5,38s1.1-0.1,1.5-0.3c1.5,0.4,2.6,1.7,2.6,3.3L10.7,42.6L10.7,42.6z M20.8,36.7c0.5-0.6,0.8-1.4,0.8-2.2
	c0-2-1.6-3.6-3.6-3.6s-3.6,1.6-3.6,3.6c0,0.8,0.3,1.6,0.8,2.2c-1.6,0.8-2.7,2.4-2.7,4.3v2.3c0,0.4,0.3,0.7,0.7,0.7h9.7
	c0.4,0,0.7-0.3,0.7-0.7V41C23.5,39.1,22.4,37.4,20.8,36.7L20.8,36.7z M18,32.2c1.2,0,2.2,1,2.2,2.2c0,1.2-1,2.2-2.2,2.2
	s-2.2-1-2.2-2.2C15.8,33.2,16.8,32.2,18,32.2z M22.2,42.6h-8.3V41c0-1.6,1.1-3,2.6-3.3c0.5,0.2,1,0.3,1.5,0.3c0.5,0,1.1-0.1,1.5-0.3
	c1.5,0.4,2.6,1.7,2.6,3.3V42.6z M32.3,36.7c0.5-0.6,0.8-1.4,0.8-2.2c0-2-1.6-3.6-3.6-3.6s-3.6,1.6-3.6,3.6c0,0.8,0.3,1.6,0.8,2.2
	C25.1,37.4,24,39.1,24,41v2.3c0,0.4,0.3,0.7,0.7,0.7h9.7c0.4,0,0.7-0.3,0.7-0.7V41C35,39.1,33.9,37.4,32.3,36.7L32.3,36.7z
	 M29.5,32.2c1.2,0,2.2,1,2.2,2.2c0,1.2-1,2.2-2.2,2.2c-1.2,0-2.2-1-2.2-2.2C27.3,33.2,28.3,32.2,29.5,32.2z M33.7,42.6h-8.3V41
	c0-1.6,1.1-3,2.6-3.3c0.5,0.2,1,0.3,1.5,0.3c0.5,0,1.1-0.1,1.5-0.3c1.5,0.4,2.6,1.7,2.6,3.3V42.6z M43.8,36.7
	c0.5-0.6,0.8-1.4,0.8-2.2c0-2-1.6-3.6-3.6-3.6c-2,0-3.6,1.6-3.6,3.6c0,0.8,0.3,1.6,0.8,2.2c-1.6,0.8-2.7,2.4-2.7,4.3v2.3
	c0,0.4,0.3,0.7,0.7,0.7h9.7c0.4,0,0.7-0.3,0.7-0.7V41C46.5,39.1,45.4,37.4,43.8,36.7L43.8,36.7z M41,32.2c1.2,0,2.2,1,2.2,2.2
	c0,1.2-1,2.2-2.2,2.2c-1.2,0-2.2-1-2.2-2.2C38.8,33.2,39.8,32.2,41,32.2z M45.2,42.6h-8.3V41c0-1.6,1.1-3,2.6-3.3
	c0.5,0.2,1,0.3,1.5,0.3c0.5,0,1.1-0.1,1.5-0.3c1.5,0.4,2.6,1.7,2.6,3.3V42.6z M1.2,28.8c0,0.4,0.3,0.7,0.7,0.7h15.5
	c0.4,0,0.7-0.3,0.7-0.7V25h0.5c0.4,0,0.7-0.3,0.7-0.7v-2.5c0-0.4-0.3-0.7-0.7-0.7h-1.8c0-1.4-0.5-2.8-1.5-3.8
	c-0.6-0.7-1.4-1.3-2.3-1.7c0.7-0.8,1.2-1.9,1.2-3c0-2.5-2-4.5-4.5-4.5s-4.5,2-4.5,4.5c0,1.2,0.5,2.2,1.2,3C5.4,16,4.6,16.6,4,17.3
	c-0.9,1.1-1.4,2.4-1.5,3.8H0.7c-0.4,0-0.7,0.3-0.7,0.7v2.5C0,24.7,0.3,25,0.7,25h0.5L1.2,28.8L1.2,28.8z M16.6,28.1H2.5V25h14.1
	V28.1z M9.6,9.5c1.7,0,3.2,1.4,3.2,3.1s-1.4,3.1-3.2,3.1s-3.2-1.4-3.2-3.1S7.8,9.5,9.6,9.5z M7.6,16.6c0.6,0.3,1.3,0.5,2,0.5
	s1.4-0.2,2-0.5c2.1,0.5,3.7,2.3,3.7,4.5H3.9C4,18.9,5.5,17.1,7.6,16.6z M1.4,22.5h16.4v1.1H1.4L1.4,22.5z M45.5,0H19.8
	c-0.6,0-1,0.5-1,1v1.8c0,0.5,0.3,0.9,0.8,1v21.4c0,0.4,0.3,0.7,0.7,0.7h24.9c0.4,0,0.7-0.3,0.7-0.7V3.9c0.5-0.1,0.8-0.5,0.8-1V1
	C46.5,0.5,46.1,0,45.5,0L45.5,0z M20.1,1.4h25.1v1.2H20.1V1.4z M20.9,24.6V3.9h23.5v20.7L20.9,24.6L20.9,24.6z M32.6,5.3
	c-4.9,0-8.9,4-8.9,8.9s4,8.9,8.9,8.9s8.9-4,8.9-8.9S37.5,5.3,32.6,5.3z M40.2,13.5h-3.3c-0.3-1.8-1.8-3.3-3.6-3.6V6.7
	C36.9,7,39.8,9.9,40.2,13.5z M36.1,16.8c0.4-0.5,0.7-1.2,0.8-1.9h3.3c-0.1,1.6-0.8,3-1.7,4.2L36.1,16.8z M32.6,11.3c1.6,0,3,1.3,3,3
	s-1.3,3-3,3c-1.6,0-3-1.3-3-3S31,11.3,32.6,11.3z M25,14.2c0-3.9,3-7.2,6.9-7.5v3.3c-2.1,0.3-3.7,2.1-3.7,4.3c0,2.4,1.9,4.3,4.3,4.3
	c1,0,1.8-0.3,2.5-0.8l2.3,2.3c-1.3,1.1-3,1.8-4.8,1.8C28.4,21.8,25,18.4,25,14.2L25,14.2z"/>
</svg>
