<?xml version="1.0" encoding="utf-8"?>
<!-- Generator: Adobe Illustrator 28.1.0, SVG Export Plug-In . SVG Version: 6.00 Build 0)  -->
<svg version="1.1" id="svg435" xmlns:svg="http://www.w3.org/2000/svg"
	 xmlns="http://www.w3.org/2000/svg" xmlns:xlink="http://www.w3.org/1999/xlink" x="0px" y="0px" viewBox="0 0 29.7 29"
	 style="enable-background:new 0 0 29.7 29;" xml:space="preserve">
<style type="text/css">
	.st0{fill:#45A1AD;}
</style>
<g>
	<path class="st0" d="M29.6,28.2L26,20.6c-0.1-0.2-0.3-0.3-0.5-0.3h-6.8c0.4-0.5,0.8-1,1.1-1.4c0.7-0.9,1.4-1.8,2-2.7
		c1.1-1.6,2.4-3.8,2.4-6.5C24.3,4.3,20,0,14.6,0C9.3,0,4.9,4.3,4.9,9.7c0,2.7,1.3,4.9,2.4,6.5c0.6,0.9,1.4,1.8,2,2.7
		c0.4,0.5,0.8,0.9,1.1,1.4H4.2c-0.2,0-0.4,0.1-0.5,0.3l-3.6,7.5c-0.1,0.2-0.1,0.4,0,0.5C0.2,28.9,0.4,29,0.6,29H12
		c0.3,0,0.6-0.3,0.6-0.6s-0.3-0.6-0.6-0.6H1.5l3.1-6.4h6.9c0.8,1,1.6,2,2.1,2.6H12c-0.3,0-0.6,0.3-0.6,0.6s0.3,0.6,0.6,0.6h5.2
		c0.3,0,0.6-0.3,0.6-0.6s-0.3-0.6-0.6-0.6h-1.5c0.5-0.7,1.3-1.6,2.1-2.6h7.3l3.1,6.4h-11c-0.3,0-0.6,0.3-0.6,0.6
		c0,0.3,0.3,0.6,0.6,0.6h11.9c0.2,0,0.4-0.1,0.5-0.3C29.7,28.6,29.7,28.4,29.6,28.2z M8.3,15.5C7.2,14,6,12,6,9.7
		C6,5,9.9,1.1,14.6,1.1c4.7,0,8.6,3.8,8.6,8.5c0,2.4-1.2,4.4-2.2,5.9c-0.6,0.9-1.3,1.8-2,2.6c-1.5,2-3.5,4.4-4.3,5.5
		c-0.9-1.1-2.8-3.6-4.3-5.5C9.6,17.3,8.9,16.4,8.3,15.5z"/>
	<path class="st0" d="M15.2,28.3c0,0,0-0.1,0-0.1c0,0,0-0.1-0.1-0.1c0,0,0,0,0,0c0,0,0,0,0,0c0,0,0,0,0,0c0,0,0,0,0,0
		c0,0-0.1,0-0.1-0.1c0,0-0.1,0-0.1,0c0,0,0,0-0.1,0c0,0-0.1,0-0.1,0c0,0,0,0-0.1,0c0,0-0.1,0-0.1,0c0,0-0.1,0-0.1,0.1c0,0,0,0,0,0
		c0,0,0,0,0,0c0,0,0,0,0,0c0,0,0,0,0,0c0,0,0,0.1-0.1,0.1c0,0,0,0.1,0,0.1c0,0,0,0,0,0.1c0,0,0,0,0,0.1c0,0,0,0,0,0.1c0,0,0,0,0,0.1
		c0,0,0,0.1,0,0.1c0,0,0,0.1,0.1,0.1c0,0,0,0,0,0c0,0,0,0,0,0c0,0,0,0,0,0c0,0,0,0,0,0c0,0,0.1,0,0.1,0.1c0,0,0.1,0,0.1,0
		c0,0,0,0,0.1,0c0,0,0,0,0.1,0c0,0,0,0,0.1,0c0,0,0,0,0.1,0c0,0,0.1,0,0.1,0c0,0,0.1,0,0.1-0.1c0,0,0,0,0,0c0,0,0,0,0,0c0,0,0,0,0,0
		c0,0,0,0,0,0c0,0,0-0.1,0.1-0.1c0,0,0-0.1,0-0.1c0,0,0,0,0-0.1c0,0,0,0,0-0.1C15.2,28.4,15.2,28.4,15.2,28.3
		C15.2,28.4,15.2,28.3,15.2,28.3z"/>
	<path class="st0" d="M20.4,9.7c0-3.2-2.6-5.8-5.8-5.8S8.8,6.5,8.8,9.7s2.6,5.8,5.8,5.8S20.4,12.9,20.4,9.7z M9.9,9.7
		C9.9,7.1,12,5,14.6,5s4.7,2.1,4.7,4.7s-2.1,4.7-4.7,4.7S9.9,12.2,9.9,9.7z"/>
</g>
</svg>
