<?xml version="1.0" encoding="utf-8"?>
<!-- Generator: Adobe Illustrator 28.1.0, SVG Export Plug-In . SVG Version: 6.00 Build 0)  -->
<svg version="1.1" id="Layer_1" xmlns="http://www.w3.org/2000/svg" xmlns:xlink="http://www.w3.org/1999/xlink" x="0px" y="0px"
	 viewBox="0 0 44 44" style="enable-background:new 0 0 44 44;" xml:space="preserve">
<style type="text/css">
	.st0{fill:#A4D178;}
</style>
<path class="st0" d="M40.3,6.8C41,6,41.4,5.1,41.4,4c0-2.2-1.8-4-4.1-4s-4.1,1.8-4.1,4c0,1,0.4,2,1.1,2.7c-2.1,0.8-3.7,2.8-3.7,5.2
	v2.6c0,0.6,0.5,1,1,1H43c0.6,0,1-0.5,1-1v-2.6C44,9.6,42.5,7.5,40.3,6.8L40.3,6.8z M37.3,1.3c1.5,0,2.8,1.2,2.8,2.7
	s-1.3,2.7-2.8,2.7c-1.5,0-2.8-1.2-2.8-2.7S35.8,1.3,37.3,1.3z M42.7,14.3H31.9v-2.3c0-2.2,1.7-4,3.8-4.2c0.5,0.2,1,0.3,1.6,0.3
	c0.6,0,1.1-0.1,1.6-0.3c2.1,0.2,3.8,2,3.8,4.2L42.7,14.3z M1,15.6h11.3c0.6,0,1-0.5,1-1v-2.6c0-2.4-1.5-4.4-3.7-5.2
	C10.4,6,10.8,5.1,10.8,4c0-2.2-1.8-4-4.1-4S2.6,1.8,2.6,4c0,1,0.4,2,1.1,2.7C1.5,7.5,0,9.6,0,11.9v2.6C0,15.1,0.5,15.6,1,15.6
	L1,15.6z M6.7,1.3c1.5,0,2.8,1.2,2.8,2.7S8.2,6.8,6.7,6.8S3.9,5.6,3.9,4S5.1,1.3,6.7,1.3z M1.3,11.9c0-2.2,1.7-4,3.8-4.2
	c0.5,0.2,1,0.3,1.6,0.3S7.8,8,8.3,7.8c2.1,0.2,3.8,2,3.8,4.2v2.3H1.3L1.3,11.9z M40.3,35.2c0.7-0.7,1.1-1.7,1.1-2.7
	c0-2.2-1.8-4-4.1-4c-2.3,0-4.1,1.8-4.1,4c0,1,0.4,2,1.1,2.7c-2.1,0.8-3.7,2.8-3.7,5.2V43c0,0.6,0.5,1,1,1H43c0.6,0,1-0.5,1-1v-2.6
	C44,38,42.5,35.9,40.3,35.2z M37.3,29.7c1.5,0,2.8,1.2,2.8,2.7c0,1.5-1.3,2.7-2.8,2.7c-1.5,0-2.8-1.2-2.8-2.7
	C34.5,30.9,35.8,29.7,37.3,29.7z M42.7,42.7H31.9v-2.3c0-2.2,1.7-4,3.8-4.2c0.5,0.2,1,0.3,1.6,0.3s1.1-0.1,1.6-0.3
	c2.1,0.2,3.8,2,3.8,4.2L42.7,42.7z M9.7,35.2c0.7-0.7,1.1-1.7,1.1-2.7c0-2.2-1.8-4-4.1-4s-4.1,1.8-4.1,4c0,1,0.4,2,1.1,2.7
	C1.5,35.9,0,38,0,40.4V43c0,0.6,0.5,1,1,1h11.3c0.6,0,1-0.5,1-1v-2.6C13.4,38,11.8,35.9,9.7,35.2z M6.7,29.7c1.5,0,2.8,1.2,2.8,2.7
	c0,1.5-1.3,2.7-2.8,2.7S3.9,34,3.9,32.5C3.9,30.9,5.1,29.7,6.7,29.7z M12.1,42.7H1.3v-2.3c0-2.2,1.7-4,3.8-4.2
	c0.5,0.2,1,0.3,1.6,0.3s1.1-0.1,1.6-0.3c2.1,0.2,3.8,2,3.8,4.2V42.7z M14.8,7.8c0-0.4,0.3-0.6,0.6-0.6h0l11.6,0L25.9,6
	c-0.3-0.3-0.3-0.7,0-0.9c0.3-0.3,0.7-0.3,0.9,0L29,7.3c0.1,0.1,0.2,0.3,0.2,0.5S29.2,8.1,29,8.2l-2.2,2.2c-0.1,0.1-0.3,0.2-0.5,0.2
	c-0.2,0-0.3-0.1-0.5-0.2c-0.3-0.3-0.3-0.7,0-0.9L27,8.4l-11.6,0C15.1,8.4,14.8,8.1,14.8,7.8L14.8,7.8z M38,17.1l0,8.2l1.1-1.1
	c0.3-0.3,0.7-0.3,0.9,0c0.3,0.3,0.3,0.7,0,0.9l-2.2,2.2c-0.1,0.1-0.3,0.2-0.5,0.2s-0.3-0.1-0.5-0.2l-2.2-2.2c-0.3-0.3-0.3-0.7,0-0.9
	c0.3-0.3,0.7-0.3,0.9,0l1.1,1.1l0-8.2c0-0.4,0.3-0.6,0.6-0.6h0C37.7,16.5,38,16.8,38,17.1L38,17.1z M29.2,36.2
	c0,0.4-0.3,0.6-0.6,0.6c0,0,0,0,0,0l-11.6,0l1.1,1.1c0.3,0.3,0.3,0.7,0,0.9c-0.1,0.1-0.3,0.2-0.5,0.2c-0.2,0-0.3-0.1-0.5-0.2
	L15,36.7c-0.1-0.1-0.2-0.3-0.2-0.5s0.1-0.3,0.2-0.5l2.2-2.2c0.3-0.3,0.7-0.3,0.9,0c0.3,0.3,0.3,0.7,0,0.9L17,35.6l11.6,0
	C28.9,35.6,29.2,35.9,29.2,36.2L29.2,36.2z M6,26.9l0-8.2l-1.1,1.1c-0.3,0.3-0.7,0.3-0.9,0c-0.3-0.3-0.3-0.7,0-0.9l2.2-2.2
	c0.1-0.1,0.3-0.2,0.5-0.2s0.3,0.1,0.5,0.2l2.2,2.2c0.3,0.3,0.3,0.7,0,0.9c-0.3,0.3-0.7,0.3-0.9,0l-1.1-1.1l0,8.2
	c0,0.4-0.3,0.6-0.6,0.6c0,0,0,0,0,0C6.3,27.5,6,27.2,6,26.9z M29.4,24.3h1c0.7,0,1.2-0.5,1.2-1.2v-2.1c0-0.7-0.5-1.2-1.2-1.2h-1
	c-0.3,0-0.6-0.2-0.8-0.5c-0.1-0.3-0.1-0.7,0.2-0.9l0.7-0.7c0.5-0.5,0.5-1.2,0-1.7l-1.5-1.5c-0.5-0.5-1.2-0.5-1.7,0l-0.7,0.7
	c-0.2,0.2-0.6,0.3-0.9,0.2c-0.3-0.1-0.5-0.4-0.5-0.8v-1c0-0.7-0.5-1.2-1.2-1.2h-2.1c-0.7,0-1.2,0.5-1.2,1.2v1c0,0.3-0.2,0.6-0.5,0.8
	c-0.3,0.1-0.7,0.1-0.9-0.2l-0.7-0.7c-0.5-0.5-1.2-0.5-1.7,0l-1.5,1.5c-0.5,0.5-0.5,1.2,0,1.7l0.7,0.7c0.2,0.2,0.3,0.6,0.2,0.9
	c-0.1,0.3-0.4,0.5-0.8,0.5h-1c-0.7,0-1.2,0.5-1.2,1.2v2.1c0,0.7,0.5,1.2,1.2,1.2h1c0.3,0,0.6,0.2,0.8,0.5c0.1,0.3,0.1,0.7-0.2,0.9
	l-0.7,0.7c-0.5,0.5-0.5,1.2,0,1.7l1.5,1.5c0.5,0.5,1.2,0.5,1.7,0l0.7-0.7c0.2-0.2,0.6-0.3,0.9-0.2c0.3,0.1,0.5,0.4,0.5,0.8v1
	c0,0.7,0.5,1.2,1.2,1.2h2.1c0.7,0,1.2-0.5,1.2-1.2v-1c0-0.3,0.2-0.6,0.5-0.8c0.3-0.1,0.7-0.1,0.9,0.2l0.7,0.7c0.5,0.5,1.2,0.5,1.7,0
	l1.5-1.5c0.5-0.5,0.5-1.2,0-1.7l-0.7-0.7c-0.2-0.2-0.3-0.6-0.2-0.9C28.8,24.4,29.1,24.3,29.4,24.3z M27.9,26.6l0.6,0.6l-1.4,1.4
	l-0.6-0.6c-0.6-0.6-1.5-0.8-2.3-0.5c-0.8,0.3-1.3,1.1-1.3,2v0.9H21v-0.9c0-0.9-0.5-1.6-1.3-2c-0.8-0.3-1.7-0.2-2.3,0.5l-0.6,0.6
	l-1.4-1.4l0.6-0.6c0.6-0.6,0.8-1.5,0.5-2.3c-0.3-0.8-1.1-1.3-2-1.3h-0.9V21h0.9c0.9,0,1.6-0.5,2-1.3c0.3-0.8,0.2-1.7-0.5-2.3
	l-0.6-0.6l1.4-1.4l0.6,0.6c0.6,0.6,1.5,0.8,2.3,0.5c0.8-0.3,1.3-1.1,1.3-2v-0.9H23v0.9c0,0.9,0.5,1.6,1.3,2c0.8,0.3,1.7,0.2,2.3-0.5
	l0.6-0.6l1.4,1.4l-0.6,0.6c-0.6,0.6-0.8,1.5-0.5,2.3c0.3,0.8,1.1,1.3,2,1.3h0.9V23h-0.9c-0.9,0-1.6,0.5-2,1.3
	C27.1,25.1,27.3,26,27.9,26.6z M22,16.9c-2.8,0-5.1,2.3-5.1,5.1s2.3,5.1,5.1,5.1c2.8,0,5.1-2.3,5.1-5.1C27.1,19.2,24.8,16.9,22,16.9
	z M22,25.8c-2.1,0-3.8-1.7-3.8-3.8s1.7-3.8,3.8-3.8c2.1,0,3.8,1.7,3.8,3.8C25.8,24.1,24.1,25.8,22,25.8z"/>
</svg>
