<?xml version="1.0" encoding="utf-8"?>
<!-- Generator: Adobe Illustrator 28.1.0, SVG Export Plug-In . SVG Version: 6.00 Build 0)  -->
<svg version="1.1" id="b02dac80-722e-451b-a8d1-a30b24cf972e"
	 xmlns="http://www.w3.org/2000/svg" xmlns:xlink="http://www.w3.org/1999/xlink" x="0px" y="0px" viewBox="0 0 44 44"
	 style="enable-background:new 0 0 44 44;" xml:space="preserve">
<style type="text/css">
	.st0{fill:#A4D178;}
</style>
<g>
	<path class="st0" d="M17.4,0c-3.3,0-6.6,0.9-9.4,2.7C0,7.9-2.4,18.7,2.7,26.8c5.2,8.1,15.9,10.5,24.1,5.4l1.4,1.4l-0.5,0.5
		c-0.3,0.3-0.3,0.8,0,1.1c0.3,0.3,0.8,0.3,1.1,0l1.1-1.1l0.5-0.5l10.2,10.2c0,0,0,0,0,0c0.3,0.3,0.8,0.3,1.1,0l2.1-2.1c0,0,0,0,0,0
		c0.3-0.3,0.3-0.8,0-1.1L33.5,30.3l0.5-0.5l1.1-1.1c0.3-0.3,0.3-0.8,0-1.1c-0.3-0.3-0.8-0.3-1.1,0l-0.5,0.5l-1.4-1.4
		c3.8-5.9,3.6-13.5-0.4-19.3c-0.2-0.3-0.7-0.4-1.1-0.2c-0.3,0.2-0.4,0.7-0.2,1.1c1.8,2.7,2.8,5.8,2.8,9.1c0,8.8-7.1,15.9-15.9,15.9
		S1.5,26.2,1.5,17.4S8.7,1.5,17.4,1.5c3.2,0,6.4,1,9.1,2.8c0.3,0.2,0.8,0.2,1.1-0.2c0.2-0.3,0.2-0.8-0.2-1.1C24.5,1.1,21,0,17.4,0
		L17.4,0z M31.4,32.5l1.1-1.1l9.7,9.7l-1.1,1.1L31.4,32.5z M28.1,31.3c1.2-0.9,2.3-2,3.2-3.2l1.2,1.2l-0.5,0.5l-2.1,2.1l-0.5,0.5
		L28.1,31.3z"/>
	<path class="st0" d="M31.9,17.4c0-8-6.5-14.4-14.4-14.4S3,9.5,3,17.4s6.5,14.4,14.4,14.4C25.4,31.9,31.9,25.4,31.9,17.4z
		 M30.3,17.4c0,7.1-5.8,12.9-12.9,12.9S4.6,24.6,4.6,17.4S10.3,4.6,17.4,4.6C24.6,4.6,30.3,10.3,30.3,17.4z"/>
	<path class="st0" d="M29.8,6.2C29.8,6.2,29.8,6.2,29.8,6.2c0.3-0.3,0.3-0.8,0-1.1c-0.3-0.3-0.8-0.3-1.1,0c-0.3,0.3-0.3,0.8,0,1.1
		C29,6.5,29.5,6.5,29.8,6.2z"/>
</g>
</svg>
