<?xml version="1.0" encoding="utf-8"?>
<!-- Generator: Adobe Illustrator 28.1.0, SVG Export Plug-In . SVG Version: 6.00 Build 0)  -->
<svg version="1.1" id="Layer_1" xmlns="http://www.w3.org/2000/svg" xmlns:xlink="http://www.w3.org/1999/xlink" x="0px" y="0px"
	 viewBox="0 0 121 90" style="enable-background:new 0 0 121 90;" xml:space="preserve">
<style type="text/css">
	.st0{fill:#FFFFFF;}
</style>
<g>
	<path class="st0" d="M119,48.3c-3.8-10.6-13-15.4-13-15.4c3.2,2.6,11.2,10.8,10.7,19.3c-0.6,8.6-3.6,15.5-19.4,24.2
		c-15.8,8.7-36.5,8.2-36.5,8.2s-12.2,0.9-29.6-4.8C13.7,74.2,7.4,64.3,7.4,64.3s-5.7-7.8-3.5-16.5s9.6-14.4,9.6-14.4
		C0.8,41.3,0.3,51.9,0.3,51.9c-2.9,18,18.3,28.4,18.3,28.4s21.2,12,50.1,9.3c28.9-2.7,40.4-14,44.3-18
		C116.7,67.6,122.7,58.9,119,48.3z"/>
	<path class="st0" d="M60.1,49.5c23.6,0,36-22.7,36.5-23.7l0.6-1l-0.6-1C96.1,22.7,83.7,0,60.1,0c-23.6,0-36,22.7-36.5,23.7l-0.6,1
		l0.6,1C24.1,26.7,36.5,49.5,60.1,49.5z M60.1,4.4c18.2,0,29.4,16.1,32,20.3c-2.6,4.3-13.8,20.3-32,20.3c-18.2,0-29.4-16.1-32-20.3
		C30.7,20.5,41.8,4.4,60.1,4.4z"/>
	<path class="st0" d="M60.1,40.5c8.7,0,15.7-7.1,15.7-15.7C75.8,16.1,68.7,9,60.1,9c-8.7,0-15.7,7.1-15.7,15.7
		C44.3,33.4,51.4,40.5,60.1,40.5z M60.1,13.4c6.2,0,11.3,5.1,11.3,11.3c0,6.2-5.1,11.3-11.3,11.3c-6.2,0-11.3-5.1-11.3-11.3
		C48.8,18.5,53.8,13.4,60.1,13.4z"/>
</g>
</svg>
