<?xml version="1.0" encoding="utf-8"?>
<!-- Generator: Adobe Illustrator 28.1.0, SVG Export Plug-In . SVG Version: 6.00 Build 0)  -->
<svg version="1.1" id="Layer_1" xmlns="http://www.w3.org/2000/svg" xmlns:xlink="http://www.w3.org/1999/xlink" x="0px" y="0px"
	 viewBox="0 0 44 44" style="enable-background:new 0 0 44 44;" xml:space="preserve">
<style type="text/css">
	.st0{fill:#A4D178;}
</style>
<g id="outline">
	<path class="st0" d="M32.6,21.2c-6.3,0-11.4,5.1-11.4,11.4S26.3,44,32.6,44S44,38.9,44,32.6S38.9,21.2,32.6,21.2z M32.6,42.5
		c-5.4,0-9.9-4.4-9.9-9.9s4.4-9.9,9.9-9.9s9.9,4.4,9.9,9.9C42.5,38.1,38.1,42.5,32.6,42.5z"/>
	<path class="st0" d="M36.6,29.1l-5.5,5.5l-2.5-2.5c-0.3-0.3-0.8-0.3-1.1,0c-0.3,0.3-0.3,0.8,0,1.1l3,3c0.3,0.3,0.7,0.3,1,0
		c0,0,0,0,0,0l6.1-6.1c0.3-0.3,0.3-0.8,0-1.1C37.4,28.8,36.9,28.8,36.6,29.1L36.6,29.1z"/>
	<path class="st0" d="M0.8,31.9c0.4,0,0.8-0.3,0.8-0.8V10.6h34.9V19c0,0.4,0.3,0.8,0.8,0.8c0.4,0,0.8-0.3,0.8-0.8V3.8
		c0-0.4-0.3-0.8-0.8-0.8h-2.4c-0.4-2.1-2.4-3.4-4.5-3c-1.5,0.3-2.7,1.5-3,3h-4.7c-0.4-2.1-2.4-3.4-4.5-3c-1.5,0.3-2.7,1.5-3,3h-4.7
		c-0.4-2.1-2.4-3.4-4.5-3c-1.5,0.3-2.7,1.5-3,3H0.8C0.3,3,0,3.4,0,3.8v27.3C0,31.5,0.3,31.9,0.8,31.9L0.8,31.9z M31.1,1.5
		c1,0,1.8,0.6,2.1,1.5H29C29.3,2.1,30.1,1.5,31.1,1.5z M19,1.5c1,0,1.8,0.6,2.1,1.5h-4.3C17.1,2.1,18,1.5,19,1.5z M6.8,1.5
		c1,0,1.8,0.6,2.1,1.5H4.7C5,2.1,5.9,1.5,6.8,1.5z M1.5,4.6H3c0.4,1.8,2,3.1,3.8,3c0.4,0,0.8-0.3,0.8-0.8S7.2,6.1,6.8,6.1
		c-1,0-1.8-0.6-2.1-1.5h10.6c0.4,1.7,1.9,3,3.7,3c0.4,0,0.8-0.3,0.8-0.8S19.4,6.1,19,6.1c-1,0-1.8-0.6-2.1-1.5h10.6
		c0.4,1.7,1.9,3,3.7,3c0.4,0,0.8-0.3,0.8-0.8s-0.3-0.8-0.8-0.8c-1,0-1.8-0.6-2.1-1.5h7.4v4.6H1.5V4.6z"/>
	<path class="st0" d="M20.5,37.9h-19v-8.7c0-0.4-0.3-0.8-0.8-0.8S0,28.8,0,29.2v9.5c0,0.4,0.3,0.8,0.8,0.8h19.7
		c0.4,0,0.8-0.3,0.8-0.8S20.9,37.9,20.5,37.9z"/>
	<path class="st0" d="M10.6,14.4c0-0.4-0.3-0.8-0.8-0.8H5.3c-0.4,0-0.8,0.3-0.8,0.8V19c0,0.4,0.3,0.8,0.8,0.8h4.6
		c0.4,0,0.8-0.3,0.8-0.8V14.4z M9.1,18.2h-3v-3h3V18.2z"/>
	<path class="st0" d="M18.2,14.4c0-0.4-0.3-0.8-0.8-0.8h-4.6c-0.4,0-0.8,0.3-0.8,0.8V19c0,0.4,0.3,0.8,0.8,0.8h4.6
		c0.4,0,0.8-0.3,0.8-0.8V14.4z M16.7,18.2h-3v-3h3V18.2z"/>
	<path class="st0" d="M10.6,22c0-0.4-0.3-0.8-0.8-0.8H5.3c-0.4,0-0.8,0.3-0.8,0.8v4.6c0,0.4,0.3,0.8,0.8,0.8h4.6
		c0.4,0,0.8-0.3,0.8-0.8V22z M9.1,25.8h-3v-3h3V25.8z"/>
	<path class="st0" d="M18.2,22c0-0.4-0.3-0.8-0.8-0.8h-4.6c-0.4,0-0.8,0.3-0.8,0.8v4.6c0,0.4,0.3,0.8,0.8,0.8h4.6
		c0.4,0,0.8-0.3,0.8-0.8V22z M16.7,25.8h-3v-3h3V25.8z"/>
	<path class="st0" d="M25,21.2h-4.6c-0.4,0-0.8,0.3-0.8,0.8v4.6c0,0.4,0.3,0.8,0.8,0.8c0.4,0,0.8-0.3,0.8-0.8v-3.8H25
		c0.4,0,0.8-0.3,0.8-0.8C25.8,21.6,25.5,21.2,25,21.2z"/>
	<path class="st0" d="M9.9,28.8H5.3c-0.4,0-0.8,0.3-0.8,0.8v4.6c0,0.4,0.3,0.8,0.8,0.8h4.6c0.4,0,0.8-0.3,0.8-0.8v-4.6
		C10.6,29.2,10.3,28.8,9.9,28.8z M9.1,33.4h-3v-3h3V33.4z"/>
	<path class="st0" d="M17.4,28.8h-4.6c-0.4,0-0.8,0.3-0.8,0.8v4.6c0,0.4,0.3,0.8,0.8,0.8h4.6c0.4,0,0.8-0.3,0.8-0.8v-4.6
		C18.2,29.2,17.9,28.8,17.4,28.8z M16.7,33.4h-3v-3h3V33.4z"/>
	<path class="st0" d="M25.8,14.4c0-0.4-0.3-0.8-0.8-0.8h-4.6c-0.4,0-0.8,0.3-0.8,0.8V19c0,0.4,0.3,0.8,0.8,0.8H25
		c0.4,0,0.8-0.3,0.8-0.8V14.4z M24.3,18.2h-3v-3h3V18.2z"/>
	<path class="st0" d="M28.1,13.7c-0.4,0-0.8,0.3-0.8,0.8V19c0,0.4,0.3,0.8,0.8,0.8h4.6c0.4,0,0.8-0.3,0.8-0.8v-4.6
		c0-0.4-0.3-0.8-0.8-0.8H28.1z M31.9,18.2h-3v-3h3V18.2z"/>
</g>
</svg>
