<?xml version="1.0" encoding="utf-8"?>
<!-- Generator: Adobe Illustrator 28.1.0, SVG Export Plug-In . SVG Version: 6.00 Build 0)  -->
<svg version="1.1" id="Layer_1" xmlns="http://www.w3.org/2000/svg" xmlns:xlink="http://www.w3.org/1999/xlink" x="0px" y="0px"
	 viewBox="0 0 44 44" style="enable-background:new 0 0 44 44;" xml:space="preserve">
<style type="text/css">
	.st0{fill:#A4D178;}
</style>
<g>
	<path class="st0" d="M28.6,39.4H2.3c-0.4,0-0.8-0.3-0.8-0.8v-6.1v-6.1v-8.3h11.4c0.4,0,0.8-0.3,0.8-0.8c0-0.4-0.3-0.8-0.8-0.8H1.5
		v-2.3c0-0.4,0.3-0.8,0.8-0.8h10.6c0.4,0,0.8-0.3,0.8-0.8c0-0.4-0.3-0.8-0.8-0.8H2.3c-1.3,0-2.3,1-2.3,2.3v12.1v6.1v6.1
		C0,39.9,1,41,2.3,41h26.3c0.4,0,0.8-0.3,0.8-0.8S29,39.4,28.6,39.4z"/>
	<path class="st0" d="M42,32.3c-1.3-1.3-3-2-4.8-2c-1.8,0-3.5,0.7-4.8,2c-1.3,1.3-2,3-2,4.8c0,1.8,0.7,3.5,2,4.8c1.3,1.3,3,2,4.8,2
		c1.8,0,3.5-0.7,4.8-2c1.3-1.3,2-3,2-4.8C44,35.3,43.3,33.6,42,32.3z M40.9,40.9c-2,2-5.5,2-7.5,0c-1-1-1.6-2.3-1.6-3.8
		s0.6-2.8,1.6-3.8s2.3-1.6,3.8-1.6s2.8,0.6,3.8,1.6s1.6,2.3,1.6,3.8S41.9,39.9,40.9,40.9z"/>
	<path class="st0" d="M38.9,35.1l-2.5,2.5l-1-1c-0.3-0.3-0.8-0.3-1.1,0c-0.3,0.3-0.3,0.8,0,1.1l1.5,1.5c0.1,0.1,0.3,0.2,0.5,0.2
		c0.2,0,0.4-0.1,0.5-0.2l3-3c0.3-0.3,0.3-0.8,0-1.1C39.7,34.8,39.2,34.8,38.9,35.1z"/>
	<path class="st0" d="M28.1,16.7c-0.4,0-0.8,0.3-0.8,0.8c0,0.4,0.3,0.8,0.8,0.8h11.4v10.4c0,0.4,0.3,0.8,0.8,0.8S41,29,41,28.6V14.4
		c0-1.3-1-2.3-2.3-2.3H28.1c-0.4,0-0.8,0.3-0.8,0.8c0,0.4,0.3,0.8,0.8,0.8h10.6c0.4,0,0.8,0.3,0.8,0.8v2.3H28.1z"/>
	<path class="st0" d="M8.7,26.1c0,0.9,0.4,1.7,1,2.4c-3,1-5.2,3.8-5.2,7.2c0,0.4,0.3,0.8,0.8,0.8H19c0.4,0,0.8-0.3,0.8-0.8
		c0-3.4-2.2-6.2-5.2-7.2c0.6-0.6,0.9-1.4,0.9-2.3c0-1.9-1.5-3.4-3.4-3.4S8.7,24.3,8.7,26.1z M18.2,34.9H6.1c0.4-3,2.9-5.3,6-5.3
		C15.3,29.6,17.8,31.9,18.2,34.9z M14,26.1c0,1-0.8,1.9-1.9,1.9c-1,0-1.9-0.8-1.9-1.9c0-1,0.8-1.9,1.9-1.9
		C13.1,24.3,14,25.1,14,26.1z"/>
	<path class="st0" d="M22,24.3c-0.4,0-0.8,0.3-0.8,0.8s0.3,0.8,0.8,0.8h12.1c0.4,0,0.8-0.3,0.8-0.8s-0.3-0.8-0.8-0.8H22z"/>
	<path class="st0" d="M29.6,28.8H22c-0.4,0-0.8,0.3-0.8,0.8s0.3,0.8,0.8,0.8h7.6c0.4,0,0.8-0.3,0.8-0.8S30,28.8,29.6,28.8z"/>
	<path class="st0" d="M20.5,21.2c2.9,0,5.3-2.4,5.3-5.3V0.8C25.8,0.3,25.5,0,25,0h-9.1c-0.4,0-0.8,0.3-0.8,0.8v15.2
		C15.2,18.9,17.6,21.2,20.5,21.2z M16.7,1.5h7.6v14.4c0,2.1-1.7,3.8-3.8,3.8s-3.8-1.7-3.8-3.8V1.5z"/>
	<circle class="st0" cx="20.5" cy="15.9" r="0.8"/>
</g>
</svg>
