<?xml version="1.0" encoding="utf-8"?>
<!-- Generator: Adobe Illustrator 28.1.0, SVG Export Plug-In . SVG Version: 6.00 Build 0)  -->
<svg version="1.1" id="b02dac80-722e-451b-a8d1-a30b24cf972e"
	 xmlns="http://www.w3.org/2000/svg" xmlns:xlink="http://www.w3.org/1999/xlink" x="0px" y="0px" viewBox="0 0 47.3 44"
	 style="enable-background:new 0 0 47.3 44;" xml:space="preserve">
<style type="text/css">
	.st0{fill:#A4D178;}
</style>
<g id="outline">
	<path class="st0" d="M46.4,35.9H44V10.6c0-0.5-0.4-0.8-0.8-0.8h-3.3c-0.5,0-0.8,0.4-0.8,0.8s0.4,0.8,0.8,0.8h2.4v24.4H26.9
		c-0.5,0-0.8,0.4-0.8,0.8c0,1.4-1.1,2.4-2.4,2.4s-2.4-1.1-2.4-2.4c0-0.5-0.4-0.8-0.8-0.8H4.9v-2.4c0-0.5-0.4-0.8-0.8-0.8
		S3.3,33,3.3,33.4v2.4H0.8c-0.5,0-0.8,0.4-0.8,0.8c0,4,3.3,7.3,7.3,7.3h32.6c4,0,7.3-3.3,7.3-7.3C47.3,36.2,46.9,35.9,46.4,35.9z
		 M44,40.7c-1.1,1.1-2.5,1.6-4,1.6H7.3c-2.8,0-5.3-2.1-5.6-4.9h17.9c0.4,2.2,2.6,3.6,4.8,3.2c1.6-0.3,2.9-1.6,3.2-3.2h17.9
		C45.4,38.7,44.8,39.8,44,40.7L44,40.7z"/>
	<path class="st0" d="M4.1,27.7c0.5,0,0.8-0.4,0.8-0.8V11.4h2.4c0.5,0,0.8-0.4,0.8-0.8S7.8,9.8,7.3,9.8H4.1c-0.5,0-0.8,0.4-0.8,0.8
		v16.3C3.3,27.3,3.6,27.7,4.1,27.7z"/>
	<circle class="st0" cx="4.1" cy="30.1" r="0.8"/>
	<path class="st0" d="M9,31h29.3c0.5,0,0.8-0.4,0.8-0.8c0-0.5-0.4-0.8-0.8-0.8h-0.8V10.6c0-0.5-0.4-0.8-0.8-0.8h-6.5
		c-0.5,0-0.8,0.4-0.8,0.8v18.7h-1.6V17.1c0-0.5-0.4-0.8-0.8-0.8h-6.5c-0.5,0-0.8,0.4-0.8,0.8v12.2h-1.6V13.9c0-0.5-0.4-0.8-0.8-0.8
		h-6.5c-0.5,0-0.8,0.4-0.8,0.8v15.5H9c-0.5,0-0.8,0.4-0.8,0.8C8.1,30.6,8.5,31,9,31z M31,11.4h4.9v17.9H31V11.4z M21.2,17.9h4.9
		v11.4h-4.9V17.9z M11.4,14.7h4.9v14.7h-4.9V14.7z"/>
	<path class="st0" d="M14.4,11.2l4.3-4.3l4.3,4.3c0.3,0.3,0.8,0.3,1.1,0c0,0,0,0,0,0l8.4-8.4v1.3c0,0.5,0.4,0.8,0.8,0.8
		c0.5,0,0.8-0.4,0.8-0.8V0.8c0-0.5-0.4-0.8-0.8-0.8h-3.3c-0.5,0-0.8,0.4-0.8,0.8s0.4,0.8,0.8,0.8h1.3l-7.8,7.8l-4.3-4.3
		c-0.3-0.3-0.8-0.3-1.1,0c0,0,0,0,0,0L13.3,10c-0.3,0.3-0.3,0.8,0,1.1S14.1,11.5,14.4,11.2L14.4,11.2z"/>
</g>
</svg>
