<?xml version="1.0" encoding="utf-8"?>
<!-- Generator: Adobe Illustrator 28.1.0, SVG Export Plug-In . SVG Version: 6.00 Build 0)  -->
<svg version="1.1" id="Layer_1" xmlns="http://www.w3.org/2000/svg" xmlns:xlink="http://www.w3.org/1999/xlink" x="0px" y="0px"
	 viewBox="0 0 125 90" style="enable-background:new 0 0 125 90;" xml:space="preserve">
<style type="text/css">
	.st0{fill:#FFFFFF;}
</style>
<g>
	<path class="st0" d="M122.3,47.1c-3.9-10.9-13.4-15.8-13.4-15.8c3.3,2.7,11.6,11.1,11,19.9C119.3,59.9,116.2,67,100,76
		c-16.2,9-37.5,8.5-37.5,8.5s-12.6,1-30.5-4.9c-17.9-5.9-24.4-16-24.4-16s-5.8-8.1-3.6-17s9.8-14.8,9.8-14.8
		C0.8,39.9,0.3,50.9,0.3,50.9C-2.7,69.4,19.1,80,19.1,80s21.8,12.3,51.5,9.6c29.7-2.8,41.5-14.4,45.5-18.5
		C120,67,126.1,58,122.3,47.1z"/>
	<path class="st0" d="M61.8,62.5c5,0,34-23.8,34.1-40C96,13.6,91.2,3.4,80.3,0.6c-7.1-1.8-14,0.4-18.5,5.7C57.2,1,50.3-1.2,43.2,0.6
		c-10.9,2.8-15.7,13-15.6,21.9C27.8,38.7,56.8,62.5,61.8,62.5z M44.7,6.5c1.1-0.3,2.2-0.4,3.2-0.4c4.6,0,8.8,2.5,11.1,7
		c0.5,1,1.6,1.6,2.7,1.6c1.1,0,2.2-0.6,2.7-1.6c2.9-5.5,8.5-8,14.3-6.6c5.1,1.3,11.1,6.2,11,15.9c-0.1,11.9-22.6,30.9-28,33.8
		c-5.4-2.9-27.9-21.9-28-33.8C33.6,12.8,39.6,7.8,44.7,6.5z"/>
</g>
</svg>
