<?xml version="1.0" encoding="utf-8"?>
<!-- Generator: Adobe Illustrator 28.1.0, SVG Export Plug-In . SVG Version: 6.00 Build 0)  -->
<svg version="1.1" id="b02dac80-722e-451b-a8d1-a30b24cf972e"
	 xmlns="http://www.w3.org/2000/svg" xmlns:xlink="http://www.w3.org/1999/xlink" x="0px" y="0px" viewBox="0 0 41.7 44"
	 style="enable-background:new 0 0 41.7 44;" xml:space="preserve">
<style type="text/css">
	.st0{fill:#A4D178;}
</style>
<g>
	<path class="st0" d="M12.2,21.2c5,0,9-4,9-9s-4-9-9-9c-5,0-9,4-9,9S7.2,21.2,12.2,21.2z M12.2,4.5c4.3,0,7.7,3.5,7.7,7.7
		c0,4.3-3.5,7.7-7.7,7.7c-4.3,0-7.7-3.5-7.7-7.7C4.5,7.9,7.9,4.5,12.2,4.5z"/>
	<path class="st0" d="M29.5,19.6L29.5,19.6c-2.3,0-4.4,0.6-6.2,1.7c-0.4-0.3-0.9-0.4-1.4-0.4h-1.2c2.3-2.2,3.7-5.3,3.7-8.7
		C24.4,5.5,18.9,0,12.2,0S0,5.5,0,12.2c0,3.4,1.4,6.5,3.7,8.7H2.5C1.1,20.9,0,22,0,23.4v1.8c0,0.7,0.3,1.4,0.8,1.8
		C0.3,27.5,0,28.1,0,28.8v1.8c0,0.7,0.3,1.4,0.8,1.8C0.3,32.9,0,33.6,0,34.3v1.8c0,0.7,0.3,1.4,0.8,1.8C0.3,38.4,0,39,0,39.7v1.8
		C0,42.9,1.1,44,2.5,44h19.4c0.9,0,1.7-0.5,2.2-1.3c1.6,0.8,3.5,1.3,5.4,1.3c6.7,0,12.2-5.5,12.2-12.2S36.2,19.6,29.5,19.6z
		 M1.3,12.2c0-6,4.9-10.9,10.9-10.9s10.9,4.9,10.9,10.9s-4.9,10.9-10.9,10.9C6.2,23.1,1.3,18.2,1.3,12.2z M1.3,23.4L1.3,23.4
		c0-0.6,0.5-1.2,1.2-1.2h2.8c2,1.4,4.4,2.2,7,2.2c2.6,0,5-0.8,7-2.2h2.8c0,0,0,0,0,0c-1.4,1.1-2.6,2.5-3.4,4.1H2.5
		c-0.6,0-1.2-0.5-1.2-1.2V23.4z M1.3,28.8L1.3,28.8c0-0.6,0.5-1.2,1.2-1.2H18c-0.5,1.3-0.7,2.7-0.7,4.1H2.5c-0.6,0-1.2-0.5-1.2-1.2
		V28.8z M1.3,34.3L1.3,34.3c0-0.6,0.5-1.2,1.2-1.2h14.9c0.2,1.5,0.6,2.9,1.2,4.1H2.5c-0.6,0-1.2-0.5-1.2-1.2V34.3z M21.9,42.7H2.5
		c-0.6,0-1.2-0.5-1.2-1.2v-1.8c0-0.6,0.5-1.2,1.2-1.2h16.9c0.9,1.4,2.2,2.6,3.6,3.5C22.7,42.4,22.4,42.7,21.9,42.7z M29.5,42.7
		c-6,0-10.9-4.9-10.9-10.9c0-6,4.9-10.9,10.9-10.9s10.9,4.9,10.9,10.9C40.4,37.8,35.5,42.7,29.5,42.7z"/>
	<path class="st0" d="M29.5,22.8c-5,0-9,4-9,9c0,5,4,9,9,9c5,0,9-4,9-9C38.5,26.8,34.5,22.8,29.5,22.8z M29.5,39.5
		c-4.3,0-7.7-3.5-7.7-7.7c0-4.3,3.5-7.7,7.7-7.7c4.3,0,7.7,3.5,7.7,7.7C37.2,36.1,33.8,39.5,29.5,39.5z"/>
	<path class="st0" d="M10.5,17.9c0.3,0,0.6,0.1,0.9,0.1c3.8,0,5.3-2.2,5.5-5h-1.3c-0.3,2.6-1.7,3.7-3.6,3.8v-4.1l2.8-1.1v-1L12,11.6
		v-1.2l2.8-1.1V8.4L12,9.5v-3h-1.5V10L9,10.7v1l1.5-0.6v1.2L9,12.8v0.9l1.5-0.6V17.9z"/>
	<path class="st0" d="M29.4,36.3v-4.1l2.8-1.1v-1l-2.8,1.1V30l2.8-1.1V28l-2.8,1.1v-3h-1.5v3.6l-1.5,0.6v1l1.5-0.6v1.2l-1.5,0.6v0.9
		l1.5-0.6v4.7c0.3,0,0.6,0.1,0.9,0.1c3.8,0,5.3-2.2,5.5-5H33C32.7,35.2,31.3,36.2,29.4,36.3z"/>
</g>
</svg>
