<svg version="1.2" xmlns="http://www.w3.org/2000/svg" viewBox="0 0 125 90" width="125" height="90">
	<style>
		.s0 { fill: #ffffff } 
		.s1 { fill: #fefefe;stroke: #fefefe;stroke-miterlimit:10;stroke-width: .8 } 
	</style>
	<g id="Layer">
		<path id="Layer" class="s0" d="m122.3 47.1c-3.9-10.9-13.4-15.8-13.4-15.8 3.3 2.7 11.6 11.1 11 19.9-0.6 8.7-3.7 15.8-19.9 24.8-16.2 9-37.5 8.5-37.5 8.5 0 0-12.6 1-30.5-4.9-17.9-5.9-24.4-16-24.4-16 0 0-5.8-8.1-3.6-17 2.2-8.9 9.8-14.8 9.8-14.8-13 8.1-13.5 19.1-13.5 19.1-3 18.5 18.8 29.1 18.8 29.1 0 0 21.8 12.3 51.5 9.6 29.7-2.8 41.5-14.4 45.5-18.5 3.9-4.1 10-13.1 6.2-24z"/>
	</g>
	<path id="&lt;Compound Path&gt;" fill-rule="evenodd" class="s1" d="m103.9 66.7q-0.4 0.3-0.7 0.3-0.4 0-0.7-0.3l-13.8-13.8c-2.1 1.8-4.7 2.7-7.5 2.7-2.5 0-4.9-0.8-6.9-2.2q-0.3 0.2-0.7 0.4c-4.2 2.5-8.9 3.9-13.8 3.9q-0.1 0-0.1 0 0 0-0.1 0c-7.4-0.1-14.5-3.1-19.6-8.5q-0.6-0.6-1.2-1.4c-2-2.4-3.6-5.1-4.6-8-1.1-3-1.7-6.2-1.7-9.4 0-3.2 0.6-6.4 1.7-9.4 1-2.9 2.6-5.6 4.6-8q1.3-1.6 2.8-3 0 0 0.1 0 0 0 0-0.1c4.9-4.3 11.3-6.8 18-6.8 6.8 0 13.2 2.6 18.2 7.1q1.4 1.3 2.7 2.8c2 2.4 3.5 5.1 4.6 8 1.1 3 1.7 6.2 1.7 9.4q0 1.6-0.2 3.2 1.5 0.8 2.7 2.1c2.2 2.2 3.4 5.1 3.4 8.2 0 2.8-0.9 5.5-2.7 7.6l13.8 13.8c0.3 0.4 0.3 1 0 1.4zm-19.1-33.9q0-0.7 0.1-1.4h-15.4c-0.1 4.6-0.5 9.1-1.3 13q0.7 0 1.4 0.1-0.1-0.3-0.1-0.6c0-3.1 1.3-6 3.5-8.2 2.2-2.2 5.1-3.4 8.2-3.4q1.9 0 3.6 0.5zm-43.4-19.8q4.7 1 10.2 1.5 0.4-1.6 0.9-3 1.3-3.8 3-5.9 0-0.1 0.1-0.2 0 0 0 0-0.1 0-0.1 0-0.3 0.1-0.7 0.2 0 0 0 0-0.2 0-0.3 0 0 0-0.1 0.1-0.1 0-0.2 0-0.1 0-0.1 0-0.1 0.1-0.2 0.1-0.1 0-0.2 0-0.1 0-0.2 0.1 0 0-0.1 0-0.1 0-0.2 0 0 0.1-0.1 0.1-0.1 0-0.2 0-0.1 0-0.1 0.1-0.1 0-0.2 0-0.1 0-0.2 0.1-0.1 0-0.1 0-0.1 0-0.2 0.1-0.1 0-0.2 0 0 0-0.1 0.1-0.1 0-0.2 0 0 0-0.1 0.1-0.1 0-0.2 0-0.1 0.1-0.1 0.1-0.2 0-0.3 0.1-0.1 0-0.1 0-0.1 0.1-0.2 0.1-0.1 0-0.1 0-0.1 0.1-0.2 0.1-0.1 0.1-0.2 0.1-0.1 0-0.2 0.1 0 0-0.1 0-0.1 0-0.2 0.1 0 0-0.1 0-0.1 0.1-0.2 0.1 0 0.1-0.1 0.1-0.1 0-0.2 0.1 0 0-0.1 0-0.1 0.1-0.2 0.1 0 0-0.1 0.1-0.1 0-0.2 0 0 0.1-0.1 0.1-0.1 0.1-0.2 0.1 0 0-0.1 0.1-0.1 0-0.2 0.1 0 0-0.1 0-0.1 0.1-0.2 0.1 0 0.1-0.1 0.1-0.1 0-0.2 0.1 0 0-0.1 0-0.1 0.1-0.2 0.2-0.1 0-0.1 0.1-0.1 0-0.2 0.1-0.1 0-0.1 0.1-0.1 0-0.2 0.1-0.1 0-0.1 0-0.1 0.1-0.2 0.1-0.1 0.1-0.1 0.1-0.1 0.1-0.2 0.1 0 0.1-0.1 0.1-0.1 0.1-0.1 0.1-0.1 0-0.2 0.1 0 0-0.1 0.1-0.1 0-0.1 0.1-0.1 0-0.2 0.1 0 0-0.1 0.1-0.1 0-0.2 0.1 0 0-0.1 0.1-0.1 0-0.1 0.1-0.1 0-0.1 0.1-0.1 0-0.2 0.1 0 0-0.1 0.1-0.1 0.1-0.2 0.1 0 0.1-0.1 0.1-0.1 0.1-0.1 0.2-0.1 0-0.1 0-0.1 0.1-0.3 0.2 0 0.1-0.1 0.1 0 0.1-0.1 0.2-0.1 0-0.1 0-0.1 0.1-0.2 0.2 0 0-0.1 0.1-0.1 0-0.1 0.1-0.1 0.1-0.1 0.1-0.1 0.1-0.2 0.1 0 0.1-0.1 0.1 0 0.1-0.1 0.2-0.1 0-0.1 0.1-0.1 0-0.1 0.1-0.1 0.1-0.2 0.1 0 0.1-0.1 0.2 0 0-0.1 0.1 0 0 0 0zm22.4-7.6q0 0 0 0 0 0.1 0.1 0.2 1.7 2.1 3 5.9 0.4 1.4 0.8 3 5.5-0.5 10.3-1.5 0 0 0 0-0.1-0.1-0.2-0.1 0-0.1-0.1-0.2 0 0-0.1-0.1 0-0.1-0.1-0.1-0.1-0.1-0.1-0.1-0.1-0.1-0.2-0.2 0 0-0.1-0.1 0 0-0.1-0.1-0.1 0-0.1-0.1-0.1-0.1-0.1-0.1-0.1-0.1-0.2-0.1 0-0.1-0.1-0.2-0.1 0-0.1 0-0.1-0.1-0.2-0.2 0 0-0.1-0.1-0.1-0.1-0.2-0.2 0 0-0.1-0.1-0.1 0-0.2-0.1 0 0-0.1-0.1 0 0-0.1-0.1-0.1-0.1-0.1-0.1-0.1-0.1-0.2-0.1 0-0.1-0.1-0.1-0.1-0.1-0.2-0.1 0-0.1-0.1-0.1 0-0.1-0.1-0.1-0.1-0.1-0.1-0.1-0.1-0.1-0.2-0.1-0.1-0.1-0.1-0.1-0.1-0.1-0.2-0.1 0-0.1-0.1-0.1-0.1 0-0.1-0.1-0.1 0-0.2-0.1 0 0-0.1-0.1-0.1 0-0.1-0.1-0.1 0-0.2-0.1-0.1 0-0.1 0-0.1-0.1-0.2-0.1 0-0.1-0.1-0.1-0.1-0.1-0.2-0.1 0-0.1-0.1-0.1-0.1-0.1-0.3-0.2 0 0-0.1 0-0.1-0.1-0.2-0.1 0-0.1-0.1-0.1-0.1 0-0.1-0.1-0.1 0-0.2 0-0.1-0.1-0.1-0.1-0.1-0.1-0.2-0.1-0.1 0-0.1-0.1-0.1 0-0.2-0.1-0.1 0-0.1 0-0.1-0.1-0.2-0.1-0.1 0-0.1-0.1-0.1 0-0.2 0-0.1-0.1-0.1-0.1-0.1 0-0.2-0.1-0.1 0-0.1-0.1-0.1 0-0.2 0-0.1-0.1-0.1-0.1-0.1 0-0.2 0-0.1-0.1-0.2-0.1 0 0-0.1-0.1-0.1 0-0.2-0.1 0 0-0.1 0-0.1 0-0.2-0.1-0.1 0-0.1 0-0.2-0.1-0.3-0.1-0.1 0-0.1-0.1-0.1 0-0.2 0-0.1-0.1-0.1-0.1-0.1 0-0.2 0-0.1-0.1-0.2-0.1-0.1 0-0.2 0 0-0.1-0.1-0.1-0.1 0-0.2 0 0-0.1-0.1-0.1-0.1 0-0.2 0-0.1-0.1-0.1-0.1-0.1 0-0.2 0-0.1 0-0.2-0.1 0 0-0.1 0-0.1 0-0.2 0-0.1-0.1-0.2-0.1 0 0-0.1 0-0.1 0-0.2-0.1-0.1 0-0.1 0-0.1 0-0.2 0-0.1-0.1-0.1-0.1-0.2 0-0.3 0 0 0-0.1 0-0.3-0.1-0.6-0.2-0.1 0-0.1 0zm21.1 24c-0.2-5.3-2.1-10.5-5.4-14.7-3.5 0.8-7.3 1.4-11.3 1.7 0.8 3.9 1.2 8.4 1.3 13zm-19.9 19.3q0.4-1.2 0.8-2.5c-4-0.3-8.2-0.3-12.1 0q0.3 1.3 0.7 2.5c1.5 4.4 3.5 7 5.3 7 1.9 0 3.9-2.6 5.3-7zm2.6-17.3h-15.7c0 4.6 0.5 9 1.3 12.8 4.3-0.3 8.8-0.3 13 0 0.8-3.8 1.3-8.2 1.4-12.8zm0-2c-0.1-4.6-0.6-9-1.4-12.8q-3.2 0.2-6.5 0.2-3.3 0-6.5-0.2c-0.8 3.8-1.3 8.2-1.3 12.8zm-13.2-17.3q-0.4 1.2-0.8 2.5c4 0.3 8.2 0.3 12.2 0q-0.4-1.3-0.8-2.5c-1.5-4.4-3.4-7-5.3-7-1.8 0-3.8 2.6-5.3 7zm-19.9 17.3h15.4c0-4.6 0.5-9.1 1.3-13-4-0.3-7.8-0.9-11.3-1.7-3.3 4.2-5.2 9.4-5.4 14.7zm0 2c0.2 5.3 2.1 10.5 5.4 14.7 3.5-0.8 7.3-1.4 11.3-1.7-0.8-3.9-1.3-8.4-1.3-13zm6.9 16.4q0 0 0 0 0.1 0.1 0.1 0.1 0.1 0.1 0.2 0.2 0 0 0.1 0.1 0 0.1 0.1 0.1 0 0.1 0.1 0.1 0.1 0.1 0.1 0.2 0.1 0 0.1 0.1 0.1 0 0.2 0.1 0 0 0.1 0.1 0.1 0.1 0.1 0.1 0.1 0.1 0.1 0.1 0.1 0.1 0.2 0.2 0 0 0.1 0 0.1 0.1 0.2 0.2 0 0 0 0.1 0.3 0.2 0.5 0.4 0.1 0 0.1 0.1 0.1 0 0.2 0.1 0 0 0.1 0.1 0.1 0 0.2 0.1 0 0.1 0.1 0.1 0 0.1 0.1 0.1 0.1 0.1 0.1 0.1 0.1 0.1 0.2 0.1 0 0.1 0.1 0.1 0.1 0.1 0.2 0.1 0 0.1 0.1 0.1 0.1 0 0.1 0.1 0.1 0 0.1 0.1 0.1 0 0.2 0.1 0.1 0 0.1 0.1 0.1 0 0.2 0.1 0 0 0.1 0.1 0.1 0 0.2 0.1 0 0 0.1 0 0.1 0.1 0.2 0.1 0 0.1 0.1 0.1 0.1 0.1 0.2 0.1 0 0.1 0 0.1 0.2 0.1 0.3 0.1 0 0.1 0.1 0.1 0.1 0 0.2 0.1 0.1 0 0.1 0.1 0.1 0 0.2 0.1 0.1 0 0.1 0 0.1 0.1 0.2 0.1 0.1 0.1 0.1 0.1 0.1 0 0.2 0.1 0.1 0 0.1 0 0.1 0.1 0.2 0.1 0.1 0.1 0.1 0.1 0.1 0 0.2 0.1 0.1 0 0.1 0 0.1 0.1 0.2 0.1 0.1 0 0.1 0.1 0.1 0 0.2 0 0.1 0.1 0.1 0.1 0.1 0 0.2 0.1 0.1 0 0.1 0 0.1 0.1 0.2 0.1 0.1 0 0.1 0.1 0.1 0 0.2 0 0.1 0.1 0.1 0.1 0.2 0 0.3 0.1 0 0 0 0 0.2 0.1 0.4 0.1 0 0 0 0 0.1 0.1 0.3 0.1 0 0 0.1 0.1 0.1 0 0.2 0 0 0 0.1 0.1 0.1 0 0.2 0 0.1 0 0.1 0.1 0.1 0 0.2 0 0.1 0 0.1 0.1 0.1 0 0.2 0 0.1 0 0.2 0.1 0.1 0 0.1 0 0.1 0 0.2 0 0.1 0.1 0.2 0.1 0 0 0.1 0 0.1 0.1 0.2 0.1 0.1 0 0.1 0 0.1 0 0.2 0.1 0.1 0 0.2 0 0.1 0 0.1 0 0.1 0 0.2 0.1 0.1 0 0.2 0 0 0 0.1 0 0.1 0 0.3 0.1 0 0 0 0 0.2 0 0.4 0 0 0 0.1 0.1 0 0 0 0-0.1-0.1-0.1-0.2-1.7-2.1-3-5.9-0.5-1.4-0.9-3-5.5 0.5-10.2 1.5zm22.4 7.6c3.2-0.6 6.2-1.7 9-3.4-1.5-1.5-2.5-3.4-3-5.5q-1-0.1-2.1-0.2-0.4 1.6-0.8 3-1.3 3.8-3 5.9-0.1 0.1-0.1 0.2zm17.4-1.7c2.6 0 5-1 6.8-2.9 3.8-3.8 3.8-9.9 0-13.7q-1.2-1.3-2.8-2 0 0-0.1 0c-1.2-0.6-2.5-0.9-3.9-0.9-2.6 0-5 1-6.9 2.9-1.8 1.8-2.8 4.3-2.8 6.8q0 0.8 0.1 1.5 0 0 0 0.1c0.3 2 1.3 3.8 2.7 5.3 1.9 1.9 4.3 2.9 6.9 2.9z"/>
</svg>