<?xml version="1.0" encoding="utf-8"?>
<!-- Generator: Adobe Illustrator 28.1.0, SVG Export Plug-In . SVG Version: 6.00 Build 0)  -->
<svg version="1.1" id="Layer_1" xmlns="http://www.w3.org/2000/svg" xmlns:xlink="http://www.w3.org/1999/xlink" x="0px" y="0px"
	 viewBox="0 0 41.2 44" style="enable-background:new 0 0 41.2 44;" xml:space="preserve">
<style type="text/css">
	.st0{fill-rule:evenodd;clip-rule:evenodd;fill:#A4D178;}
</style>
<g>
	<path class="st0" d="M38.6,21.4c-0.4,0.1-0.7,0.5-0.6,0.9c0.2,1,0.2,2,0.2,2.9c0,5.4-2.4,10.2-6.3,13.5c-0.7-4.4-3.8-7.9-7.9-9.2
		c1.6-1.1,2.7-3,2.7-5.1c0-3.4-2.7-6.1-6.1-6.1s-6.1,2.7-6.1,6.1c0,2.1,1.1,4,2.7,5.1c-4.1,1.3-7.2,4.8-7.9,9.2
		c-3.9-3.2-6.3-8.1-6.3-13.5c0-1,0.1-1.9,0.2-2.9c0.1-0.4-0.2-0.8-0.6-0.9c-0.4-0.1-0.8,0.2-0.9,0.6c-0.2,1.1-0.3,2.1-0.3,3.2
		c0,9.4,6.7,17.3,15.9,18.8c0,0,0.1,0,0.1,0c0.4,0,0.7-0.3,0.8-0.6c0.1-0.4-0.2-0.8-0.6-0.9c-2.6-0.4-4.9-1.4-7-2.8
		c0.4-5.2,4.6-9.2,9.9-9.2s9.5,4,9.9,9.2c-2,1.4-4.4,2.4-7,2.8c-0.4,0.1-0.7,0.5-0.6,0.9c0.1,0.4,0.4,0.6,0.8,0.6c0,0,0.1,0,0.1,0
		c9.2-1.5,15.9-9.4,15.9-18.8c0-1.1-0.1-2.1-0.3-3.2C39.4,21.6,39,21.3,38.6,21.4z M16,24.4c0-2.5,2.1-4.6,4.6-4.6s4.6,2.1,4.6,4.6
		S23.1,29,20.6,29S16,26.9,16,24.4z"/>
	<path class="st0" d="M29,6c-0.1-0.3-0.3-0.5-0.6-0.5l-4.9-0.7l-2.2-4.4c-0.3-0.5-1.1-0.5-1.4,0l-2.2,4.4l-4.9,0.7
		c-0.3,0-0.5,0.2-0.6,0.5c-0.1,0.3,0,0.6,0.2,0.8l3.5,3.4l-0.8,4.9c0,0.3,0.1,0.6,0.3,0.7c0.2,0.2,0.5,0.2,0.8,0.1l4.4-2.3l4.4,2.3
		c0.1,0.1,0.2,0.1,0.4,0.1c0.2,0,0.3,0,0.4-0.1c0.2-0.2,0.4-0.5,0.3-0.7l-0.8-4.9l3.5-3.4C29,6.6,29.1,6.3,29,6z M23.9,9.5
		c-0.2,0.2-0.3,0.4-0.2,0.7l0.6,3.7L21,12.1C20.9,12,20.7,12,20.6,12s-0.2,0-0.4,0.1l-3.4,1.8l0.6-3.7c0-0.2,0-0.5-0.2-0.7l-2.7-2.6
		l3.7-0.5c0.2,0,0.5-0.2,0.6-0.4l1.7-3.4l1.7,3.4c0.1,0.2,0.3,0.4,0.6,0.4l3.7,0.5L23.9,9.5z"/>
	<path class="st0" d="M2.3,18.3c0,0.3,0.1,0.6,0.3,0.7c0.2,0.2,0.5,0.2,0.8,0.1l3.4-1.8l3.4,1.8c0.1,0.1,0.2,0.1,0.4,0.1
		c0.2,0,0.3,0,0.4-0.1c0.2-0.2,0.4-0.5,0.3-0.7l-0.7-3.8l2.8-2.7c0.2-0.2,0.3-0.5,0.2-0.8c-0.1-0.3-0.3-0.5-0.6-0.5L9.3,10L7.6,6.5
		C7.3,6,6.4,6,6.2,6.5L4.5,10l-3.8,0.6c-0.3,0-0.5,0.2-0.6,0.5c-0.1,0.3,0,0.6,0.2,0.8L3,14.5L2.3,18.3z M2.4,11.8l2.7-0.4
		c0.2,0,0.5-0.2,0.6-0.4l1.2-2.4L8.1,11c0.1,0.2,0.3,0.4,0.6,0.4l2.7,0.4l-1.9,1.9c-0.2,0.2-0.3,0.4-0.2,0.7l0.5,2.7l-2.4-1.3
		c-0.1-0.1-0.2-0.1-0.4-0.1c-0.1,0-0.2,0-0.4,0.1l-2.4,1.3l0.5-2.7c0-0.2,0-0.5-0.2-0.7L2.4,11.8z"/>
	<path class="st0" d="M40.6,10.5L36.8,10l-1.7-3.5c-0.3-0.5-1.1-0.5-1.4,0L32,10l-3.8,0.6c-0.3,0-0.5,0.2-0.6,0.5
		c-0.1,0.3,0,0.6,0.2,0.8l2.8,2.7l-0.7,3.8c0,0.3,0.1,0.6,0.3,0.7c0.2,0.2,0.5,0.2,0.8,0.1l3.4-1.8l3.4,1.8c0.1,0.1,0.2,0.1,0.4,0.1
		c0.2,0,0.3,0,0.4-0.1c0.2-0.2,0.4-0.5,0.3-0.7l-0.7-3.8l2.8-2.7c0.2-0.2,0.3-0.5,0.2-0.8C41.1,10.8,40.9,10.6,40.6,10.5z
		 M36.9,13.7c-0.2,0.2-0.3,0.4-0.2,0.7l0.5,2.7l-2.4-1.3c-0.1-0.1-0.2-0.1-0.4-0.1s-0.2,0-0.4,0.1l-2.4,1.3l0.5-2.7
		c0-0.2,0-0.5-0.2-0.7l-1.9-1.9l2.7-0.4c0.2,0,0.5-0.2,0.6-0.4l1.2-2.4l1.2,2.4c0.1,0.2,0.3,0.4,0.6,0.4l2.7,0.4L36.9,13.7z"/>
</g>
</svg>
