<?xml version="1.0" encoding="utf-8"?>
<!-- Generator: Adobe Illustrator 28.1.0, SVG Export Plug-In . SVG Version: 6.00 Build 0)  -->
<svg version="1.1" id="Layer_1" xmlns="http://www.w3.org/2000/svg" xmlns:xlink="http://www.w3.org/1999/xlink" x="0px" y="0px"
	 viewBox="0 0 41.3 44" style="enable-background:new 0 0 41.3 44;" xml:space="preserve">
<style type="text/css">
	.st0{fill:#A4D178;}
</style>
<path class="st0" d="M21.7,6.2h3.9c0.6,0,1.1-0.5,1.1-1.1V1.2c0-0.6-0.5-1.1-1.1-1.1h-3.9c-0.6,0-1.1,0.5-1.1,1.1v3.9
	C20.6,5.7,21.1,6.2,21.7,6.2L21.7,6.2z M21.9,1.4h3.6v3.6h-3.6L21.9,1.4z M21.7,13.7h3.9c0.6,0,1.1-0.5,1.1-1.1V8.7
	c0-0.6-0.5-1.1-1.1-1.1h-3.9c-0.6,0-1.1,0.5-1.1,1.1v3.9C20.6,13.2,21.1,13.7,21.7,13.7L21.7,13.7z M21.9,8.8h3.6v3.6h-3.6L21.9,8.8
	z M21.7,21.1h3.9c0.6,0,1.1-0.5,1.1-1.1v-3.9c0-0.6-0.5-1.1-1.1-1.1h-3.9c-0.6,0-1.1,0.5-1.1,1.1V20C20.6,20.6,21.1,21.1,21.7,21.1
	L21.7,21.1z M21.9,16.2h3.6v3.6h-3.6L21.9,16.2z M25.1,2.9l-1.2,1.4c-0.1,0.1-0.3,0.2-0.5,0.2c0,0,0,0,0,0c-0.2,0-0.4-0.1-0.5-0.2
	l-0.7-0.8c-0.2-0.3-0.2-0.7,0-0.9c0.3-0.2,0.7-0.2,0.9,0l0.2,0.2L24.1,2C24.4,1.8,24.8,1.7,25,2C25.3,2.2,25.3,2.6,25.1,2.9
	L25.1,2.9z M25.1,10.3l-1.2,1.4c-0.1,0.1-0.3,0.2-0.5,0.2c0,0,0,0,0,0c-0.2,0-0.4-0.1-0.5-0.2L22.3,11c-0.2-0.3-0.2-0.7,0-0.9
	c0.3-0.2,0.7-0.2,0.9,0l0.2,0.2l0.7-0.8c0.2-0.3,0.6-0.3,0.9-0.1C25.3,9.6,25.3,10,25.1,10.3L25.1,10.3z M25.1,17.7l-1.2,1.4
	c-0.1,0.1-0.3,0.2-0.5,0.2c0,0,0,0,0,0c-0.2,0-0.4-0.1-0.5-0.2l-0.7-0.8c-0.2-0.3-0.2-0.7,0-0.9c0.3-0.2,0.7-0.2,0.9,0l0.2,0.2
	l0.7-0.8c0.2-0.3,0.6-0.3,0.9-0.1C25.3,17.1,25.3,17.5,25.1,17.7L25.1,17.7z M28.3,1.7c0-0.4,0.3-0.6,0.6-0.6l9.1,0h0
	c0.4,0,0.6,0.3,0.6,0.6c0,0.4-0.3,0.6-0.6,0.6l-9.1,0c0,0,0,0,0,0C28.6,2.4,28.3,2.1,28.3,1.7z M28.3,4.6c0-0.4,0.3-0.6,0.6-0.6
	h11.7c0.4,0,0.6,0.3,0.6,0.6S41,5.2,40.6,5.2H28.9C28.6,5.2,28.3,4.9,28.3,4.6z M28.3,9.2c0-0.4,0.3-0.6,0.6-0.6l9.1,0h0
	c0.4,0,0.6,0.3,0.6,0.6c0,0.4-0.3,0.6-0.6,0.6l-9.1,0c0,0,0,0,0,0C28.6,9.8,28.3,9.5,28.3,9.2z M41.3,12c0,0.4-0.3,0.6-0.6,0.6H28.9
	c-0.4,0-0.6-0.3-0.6-0.6s0.3-0.6,0.6-0.6h11.7C41,11.4,41.3,11.7,41.3,12L41.3,12z M41.3,19.5c0,0.4-0.3,0.6-0.6,0.6H28.9
	c-0.4,0-0.6-0.3-0.6-0.6s0.3-0.6,0.6-0.6h11.7C41,18.8,41.3,19.1,41.3,19.5L41.3,19.5z M28.3,16.6c0-0.4,0.3-0.6,0.6-0.6l9.1,0h0
	c0.4,0,0.6,0.3,0.6,0.6c0,0.4-0.3,0.6-0.6,0.6l-9.1,0c0,0,0,0,0,0C28.6,17.3,28.3,17,28.3,16.6z M0.6,21.1h16.3
	c0.4,0,0.6-0.3,0.6-0.6v-3.9c0-1.8-0.6-3.5-1.8-4.9c-0.8-1-1.9-1.8-3.1-2.2c1-1,1.7-2.4,1.7-4c0-3-2.5-5.5-5.6-5.5S3.2,2.5,3.2,5.5
	c0,1.6,0.7,3,1.7,4c-1.2,0.5-2.3,1.2-3.1,2.2C0.6,13,0,14.8,0,16.5v3.9C0,20.8,0.3,21.1,0.6,21.1z M4.5,5.5c0-2.3,1.9-4.2,4.3-4.2
	c2.3,0,4.3,1.9,4.3,4.2c0,2.3-1.9,4.2-4.3,4.2C6.4,9.7,4.5,7.8,4.5,5.5z M1.3,16.5c0-3,2.1-5.5,5-6.2C7,10.8,7.9,11,8.8,11
	s1.7-0.2,2.5-0.6c2.9,0.6,5,3.2,5,6.2v3.3h-15V16.5z M40.6,22.7h-40c-0.2,0-0.3,0.1-0.5,0.2C0.1,23,0,23.2,0,23.4l0,2.4
	c0,1,0.8,1.9,1.9,1.9h2.2c1.1,0,2,0.6,2.4,1.6c0.4,1,0.2,2.1-0.6,2.8l-1.6,1.6C4,34,3.8,34.5,3.8,35c0,0.5,0.2,1,0.5,1.3l3.3,3.3
	C8.1,40,8.5,40.2,9,40.2c0.5,0,1-0.2,1.3-0.5l1.6-1.6c0.8-0.8,1.9-1,2.8-0.6c1,0.4,1.6,1.3,1.6,2.4v2.2c0,1,0.8,1.9,1.9,1.9H23
	c1,0,1.9-0.8,1.9-1.9v-2.2c0-1.1,0.6-2,1.6-2.4c1-0.4,2.1-0.2,2.8,0.6l1.6,1.6c0.4,0.4,0.8,0.5,1.3,0.5c0.5,0,1-0.2,1.3-0.5l3.3-3.3
	c0.7-0.7,0.7-1.9,0-2.6l-1.6-1.6c-0.8-0.8-1-1.9-0.6-2.8c0.4-1,1.3-1.6,2.4-1.6h2.2c1,0,1.9-0.8,1.9-1.9v-2.4
	C41.3,23,41,22.7,40.6,22.7L40.6,22.7z M28.6,24c-0.3,4.1-3.8,7.3-8,7.3s-7.6-3.2-8-7.3H28.6z M40,25.7c0,0.3-0.3,0.6-0.6,0.6h-2.2
	c-1.6,0-3,0.9-3.6,2.4c-0.6,1.5-0.3,3.1,0.8,4.3l1.6,1.6c0.2,0.2,0.2,0.6,0,0.8l-3.3,3.3c-0.1,0.1-0.3,0.2-0.4,0.2
	c-0.2,0-0.3-0.1-0.4-0.2l-1.6-1.6c-1.1-1.1-2.8-1.5-4.3-0.8c-1.5,0.6-2.4,2-2.4,3.6v2.2c0,0.3-0.3,0.6-0.6,0.6h-4.7
	c-0.3,0-0.6-0.3-0.6-0.6v-2.2c0-1.6-0.9-3-2.4-3.6c-0.5-0.2-1-0.3-1.5-0.3c-1,0-2,0.4-2.7,1.2l-1.6,1.6c-0.1,0.1-0.3,0.2-0.4,0.2
	s-0.3-0.1-0.4-0.2l-3.3-3.3c-0.1-0.1-0.2-0.3-0.2-0.4c0-0.2,0.1-0.3,0.2-0.4L6.9,33c1.1-1.1,1.5-2.8,0.8-4.3c-0.6-1.5-2-2.4-3.6-2.4
	H1.9c-0.3,0-0.6-0.3-0.6-0.6l0-1.7h10.1c0.3,4.8,4.4,8.6,9.3,8.6s8.9-3.8,9.3-8.6H40V25.7z"/>
</svg>
