<?xml version="1.0" encoding="utf-8"?>
<!-- Generator: Adobe Illustrator 28.1.0, SVG Export Plug-In . SVG Version: 6.00 Build 0)  -->
<svg version="1.1" id="b02dac80-722e-451b-a8d1-a30b24cf972e"
	 xmlns="http://www.w3.org/2000/svg" xmlns:xlink="http://www.w3.org/1999/xlink" x="0px" y="0px" viewBox="0 0 41 44"
	 style="enable-background:new 0 0 41 44;" xml:space="preserve">
<style type="text/css">
	.st0{fill:#A4D178;}
</style>
<g>
	<path class="st0" d="M31.1,19.7c5.4,0,9.9-4.4,9.9-9.9C41,4.4,36.5,0,31.1,0s-9.9,4.4-9.9,9.9C21.2,15.3,25.7,19.7,31.1,19.7z
		 M31.1,1.5c4.6,0,8.3,3.7,8.3,8.3c0,4.6-3.7,8.3-8.3,8.3s-8.3-3.7-8.3-8.3C22.8,5.3,26.5,1.5,31.1,1.5z"/>
	<circle class="st0" cx="31.1" cy="14.4" r="0.8"/>
	<path class="st0" d="M31.1,12.1c0.4,0,0.8-0.3,0.8-0.8V5.3c0-0.4-0.3-0.8-0.8-0.8c-0.4,0-0.8,0.3-0.8,0.8v6.1
		C30.3,11.8,30.7,12.1,31.1,12.1z"/>
	<path class="st0" d="M11.4,42.5H1.5c0.4-5.9,5.3-10.6,11.3-10.6c2,0,4,0.5,5.7,1.5c0.4,0.2,0.8,0.1,1-0.3c0.2-0.4,0.1-0.8-0.3-1
		c-0.9-0.5-1.9-0.9-2.9-1.2c2-1.2,3.3-3.3,3.3-5.8c0-3.8-3.1-6.8-6.8-6.8S6.1,21.3,6.1,25c0,2.5,1.3,4.6,3.3,5.8
		C4,32.4,0,37.4,0,43.2C0,43.7,0.3,44,0.8,44h10.6c0.4,0,0.8-0.3,0.8-0.8C12.1,42.8,11.8,42.5,11.4,42.5z M7.6,25
		c0-2.9,2.4-5.3,5.3-5.3s5.3,2.4,5.3,5.3s-2.4,5.3-5.3,5.3S7.6,28,7.6,25z"/>
	<path class="st0" d="M14.5,28.6c0.1,0.1,0.3,0.2,0.5,0.2s0.4-0.1,0.5-0.2c0.3-0.3,0.3-0.8,0-1.1c-1.4-1.4-3.9-1.4-5.4,0
		c-0.3,0.3-0.3,0.8,0,1.1c0.3,0.3,0.8,0.3,1.1,0C12.1,27.7,13.6,27.7,14.5,28.6z"/>
	<path class="st0" d="M38.7,30.3H23.5c-0.3,0-0.6,0.2-0.7,0.5l-2.7,7.1h-7.3c-0.4,0-0.8,0.3-0.8,0.8c0,2.9,2.4,5.3,5.3,5.3h16.7
		c0.3,0,0.6-0.2,0.7-0.5l0.6-1.7c0.1-0.4-0.1-0.8-0.5-1c-0.4-0.2-0.8,0.1-1,0.5l-0.5,1.2H20.1l1.3-3.5c0,0,0,0,0-0.1l2.7-7.1h13.5
		l-1.4,3.7c-0.1,0.4,0.1,0.8,0.4,1c0.4,0.2,0.8-0.1,1-0.5l1.8-4.7c0.1-0.2,0-0.5-0.1-0.7C39.2,30.5,38.9,30.3,38.7,30.3z M18.4,42.5
		h-1c-1.8,0-3.4-1.3-3.7-3h5.8L18.4,42.5z"/>
	<path class="st0" d="M3.2,31.9c0.1,0,0.3,0,0.4-0.1c0.4-0.2,0.5-0.7,0.3-1c-1.5-2.6-2.3-5.7-2.3-8.7C1.5,12.4,9.3,4.6,19,4.6
		c0.5,0,1,0,1.5,0.1c0.4,0,0.8-0.3,0.8-0.7c0-0.4-0.3-0.8-0.7-0.8C20.1,3.1,19.5,3,19,3C8.5,3,0,11.5,0,22c0,3.3,0.9,6.6,2.5,9.5
		C2.7,31.7,2.9,31.9,3.2,31.9z"/>
	<path class="st0" d="M35.9,28.8c0.1,0,0.2,0,0.3,0c0.3,0,0.6-0.2,0.7-0.5c0.7-2,1.1-4.2,1.1-6.3c0-0.6,0-1.1-0.1-1.7
		c0-0.4-0.4-0.7-0.8-0.7c-0.4,0-0.7,0.4-0.7,0.8c0,0.5,0.1,1,0.1,1.5c0,2-0.3,4-1,5.8C35.3,28.2,35.5,28.6,35.9,28.8z"/>
	<circle class="st0" cx="35.9" cy="38.7" r="0.8"/>
</g>
</svg>
