<svg width="1920" height="344" viewBox="0 0 1920 344" fill="none" xmlns="http://www.w3.org/2000/svg">
<g clip-path="url(#clip0_1_2)">
<path d="M1604.52 203.11C1604.51 201.239 1603.98 199.409 1602.98 197.827C1601.98 196.244 1600.56 194.974 1598.87 194.16C1597.19 193.345 1595.31 193.02 1593.45 193.22C1591.59 193.42 1589.82 194.138 1588.35 195.292C1586.88 196.446 1585.76 197.99 1585.12 199.748C1584.48 201.506 1584.35 203.408 1584.74 205.238C1585.13 207.068 1586.02 208.753 1587.32 210.1C1588.62 211.447 1590.27 212.404 1592.08 212.86L1588.08 326.56H1600.99L1596.99 212.86C1599.15 212.301 1601.06 211.039 1602.42 209.274C1603.79 207.509 1604.52 205.34 1604.52 203.11Z" fill="white" stroke="#58595B" stroke-width="2" stroke-miterlimit="10"/>
<path d="M1639.24 224.29C1632.53 219.1 1616.24 202.94 1610.36 203.67C1606.92 204.042 1603.46 204.042 1600.02 203.67C1600.08 203.34 1600.12 203.006 1600.12 202.67C1600.12 201.362 1599.64 200.099 1598.77 199.122C1597.9 198.145 1596.7 197.522 1595.4 197.37V144.59C1595.4 144.59 1592.12 144.73 1590.98 153.13C1589.84 161.53 1583.98 183.74 1587.57 188.44C1589.66 191.316 1591.43 194.411 1592.85 197.67C1591.84 198.062 1590.98 198.749 1590.37 199.641C1589.76 200.534 1589.44 201.59 1589.44 202.67C1589.44 203.277 1589.55 203.879 1589.75 204.45L1543.52 231.14C1543.52 231.14 1545.28 233.91 1553.12 230.69C1560.96 227.47 1583.12 221.43 1585.41 216C1586.91 212.618 1588.8 209.418 1591.02 206.46C1591.54 206.981 1592.17 207.388 1592.86 207.654C1593.55 207.921 1594.29 208.041 1595.02 208.007C1595.76 207.973 1596.49 207.786 1597.15 207.458C1597.81 207.129 1598.4 206.667 1598.87 206.1L1644.43 232.4C1644.43 232.4 1645.94 229.47 1639.24 224.29Z" fill="white" stroke="#58595B" stroke-width="2" stroke-miterlimit="10"/>
<path d="M825.61 132.55C825.611 129.591 824.779 126.691 823.21 124.182C821.642 121.673 819.399 119.655 816.739 118.36C814.078 117.064 811.107 116.543 808.164 116.855C805.222 117.168 802.426 118.301 800.097 120.126C797.768 121.952 795.998 124.395 794.992 127.178C793.985 129.96 793.78 132.97 794.402 135.863C795.024 138.756 796.447 141.416 798.508 143.539C800.57 145.662 803.187 147.163 806.06 147.87L799.69 326.56H820L813.64 147.87C817.059 147.019 820.095 145.049 822.265 142.272C824.434 139.496 825.612 136.073 825.61 132.55Z" fill="white" stroke="#58595B" stroke-width="2" stroke-miterlimit="10"/>
<path d="M880.17 165.84C869.63 157.68 843.99 132.28 834.79 133.44C829.389 134.02 823.941 134.02 818.54 133.44C818.757 132.306 818.738 131.14 818.484 130.013C818.23 128.887 817.747 127.825 817.065 126.893C816.383 125.962 815.517 125.181 814.52 124.599C813.523 124.017 812.416 123.646 811.27 123.51V40.58C811.27 40.58 806.13 40.81 804.34 54.01C802.55 67.21 793.34 102.12 798.97 109.5C802.256 114.021 805.039 118.886 807.27 124.01C805.232 124.794 803.582 126.344 802.672 128.328C801.762 130.313 801.664 132.574 802.4 134.63L729.74 176.57C729.74 176.57 732.51 180.92 744.83 175.87C757.15 170.82 791.98 161.31 795.58 152.77C797.941 147.454 800.897 142.422 804.39 137.77C805.213 138.59 806.197 139.229 807.281 139.648C808.364 140.067 809.523 140.256 810.683 140.204C811.844 140.151 812.98 139.858 814.021 139.342C815.062 138.827 815.985 138.101 816.73 137.21L888.33 178.55C888.33 178.55 890.71 174 880.17 165.84Z" fill="white" stroke="#58595B" stroke-width="2" stroke-miterlimit="10"/>
<path d="M1839.71 166.76C1839.71 164.322 1839.03 161.934 1837.73 159.867C1836.44 157.8 1834.59 156.137 1832.4 155.07C1830.21 154.003 1827.76 153.573 1825.34 153.83C1822.92 154.087 1820.61 155.02 1818.69 156.524C1816.77 158.027 1815.32 160.039 1814.49 162.332C1813.66 164.624 1813.49 167.103 1814 169.486C1814.51 171.87 1815.68 174.061 1817.38 175.81C1819.08 177.56 1821.23 178.797 1823.6 179.38L1818.36 326.56H1835.07L1829.83 179.38C1832.65 178.683 1835.16 177.061 1836.95 174.774C1838.74 172.486 1839.71 169.665 1839.71 166.76Z" fill="white" stroke="#58595B" stroke-width="1.65" stroke-miterlimit="10"/>
<path d="M1884.65 194.17C1875.97 187.46 1854.84 166.54 1847.27 167.48C1842.82 167.957 1838.33 167.957 1833.88 167.48C1833.96 167.045 1834.01 166.603 1834.01 166.16C1834.01 164.466 1833.39 162.832 1832.26 161.568C1831.13 160.303 1829.58 159.496 1827.9 159.3V91C1827.9 91 1823.66 91.18 1822.19 102.06C1820.72 112.94 1813.19 141.69 1817.76 147.77C1820.47 151.491 1822.76 155.498 1824.6 159.72C1823.3 160.224 1822.19 161.109 1821.4 162.258C1820.61 163.407 1820.19 164.767 1820.19 166.16C1820.19 166.944 1820.32 167.722 1820.59 168.46L1760.74 203C1760.74 203 1763.02 206.58 1773.17 202.42C1783.32 198.26 1812.01 190.42 1814.97 183.42C1816.92 179.046 1819.35 174.906 1822.23 171.08C1822.91 171.756 1823.72 172.283 1824.61 172.628C1825.5 172.973 1826.46 173.128 1827.41 173.084C1828.37 173.04 1829.31 172.797 1830.16 172.371C1831.02 171.945 1831.78 171.345 1832.39 170.61L1891.39 204.66C1891.39 204.66 1893.33 200.89 1884.65 194.17Z" fill="white" stroke="#58595B" stroke-width="1.65" stroke-miterlimit="10"/>
<path d="M537.8 202.23C537.786 200.36 537.249 198.532 536.248 196.952C535.248 195.372 533.825 194.105 532.14 193.293C530.455 192.482 528.577 192.159 526.718 192.361C524.859 192.563 523.094 193.283 521.624 194.438C520.153 195.593 519.036 197.137 518.399 198.895C517.762 200.653 517.63 202.554 518.019 204.383C518.408 206.212 519.302 207.895 520.6 209.242C521.898 210.588 523.547 211.544 525.36 212L521.31 325.71H534.22L530.17 212C532.355 211.467 534.297 210.213 535.681 208.44C537.066 206.667 537.812 204.479 537.8 202.23Z" fill="white" stroke="#58595B" stroke-width="2" stroke-miterlimit="10"/>
<path d="M572.52 223.41C565.81 218.22 549.52 202.06 543.65 202.8C540.21 203.167 536.74 203.167 533.3 202.8C533.368 202.471 533.401 202.136 533.4 201.8C533.399 200.492 532.918 199.229 532.048 198.252C531.178 197.275 529.979 196.652 528.68 196.5V143.71C528.68 143.71 525.41 143.85 524.27 152.25C523.13 160.65 517.27 182.87 520.85 187.57C522.946 190.443 524.721 193.539 526.14 196.8C525.13 197.188 524.262 197.874 523.651 198.767C523.04 199.66 522.715 200.718 522.72 201.8C522.719 202.407 522.824 203.009 523.03 203.58L476.8 230.28C476.8 230.28 478.56 233.04 486.4 229.83C494.24 226.62 516.4 220.56 518.69 215.13C520.196 211.749 522.078 208.549 524.3 205.59C524.824 206.111 525.45 206.518 526.14 206.784C526.829 207.051 527.566 207.171 528.304 207.137C529.042 207.103 529.765 206.916 530.427 206.588C531.09 206.259 531.676 205.797 532.15 205.23L577.71 231.54C577.71 231.54 579.23 228.6 572.52 223.41Z" fill="white" stroke="#58595B" stroke-width="2" stroke-miterlimit="10"/>
<path d="M333.88 132.55C333.88 129.591 333.048 126.692 331.48 124.184C329.911 121.675 327.669 119.658 325.009 118.362C322.349 117.067 319.379 116.545 316.436 116.857C313.494 117.169 310.699 118.302 308.37 120.126C306.041 121.951 304.271 124.393 303.263 127.175C302.256 129.957 302.05 132.966 302.671 135.858C303.291 138.751 304.713 141.412 306.772 143.535C308.832 145.659 311.447 147.161 314.32 147.87L308 326.56H328.3L321.93 147.87C325.345 147.015 328.377 145.043 330.542 142.267C332.708 139.491 333.883 136.071 333.88 132.55Z" fill="white" stroke="#58595B" stroke-width="2" stroke-miterlimit="10"/>
<path d="M388.43 165.84C377.89 157.68 352.25 132.28 343.06 133.44C337.656 134.02 332.204 134.02 326.8 133.44C327.026 132.306 327.014 131.137 326.765 130.008C326.515 128.879 326.034 127.814 325.352 126.88C324.669 125.946 323.8 125.165 322.8 124.585C321.799 124.005 320.689 123.639 319.54 123.51V40.58C319.54 40.58 314.39 40.81 312.6 54.01C310.81 67.21 301.6 102.12 307.23 109.5C310.517 114.018 313.304 118.88 315.54 124C313.499 124.78 311.845 126.328 310.932 128.314C310.02 130.299 309.922 132.563 310.66 134.62L238 176.57C238 176.57 240.77 180.92 253.1 175.87C265.43 170.82 300.25 161.31 303.84 152.77C306.209 147.458 309.164 142.426 312.65 137.77C313.473 138.59 314.457 139.229 315.541 139.648C316.624 140.067 317.783 140.256 318.943 140.204C320.103 140.151 321.24 139.858 322.281 139.342C323.322 138.827 324.245 138.101 324.99 137.21L396.59 178.55C396.59 178.55 399 174 388.43 165.84Z" fill="white" stroke="#58595B" stroke-width="2" stroke-miterlimit="10"/>
<path d="M1503.19 132.55C1503.19 129.591 1502.36 126.692 1500.79 124.184C1499.22 121.675 1496.98 119.658 1494.32 118.362C1491.66 117.067 1488.69 116.545 1485.75 116.857C1482.8 117.169 1480.01 118.302 1477.68 120.126C1475.35 121.951 1473.58 124.393 1472.57 127.175C1471.57 129.957 1471.36 132.966 1471.98 135.858C1472.6 138.751 1474.02 141.412 1476.08 143.535C1478.14 145.659 1480.76 147.161 1483.63 147.87L1477.26 326.56H1497.56L1491.19 147.87C1494.61 147.025 1497.66 145.057 1499.83 142.28C1502.01 139.503 1503.19 136.077 1503.19 132.55Z" fill="white" stroke="#58595B" stroke-width="2" stroke-miterlimit="10"/>
<path d="M1557.74 165.84C1547.2 157.68 1521.56 132.28 1512.37 133.44C1506.97 134.02 1501.51 134.02 1496.11 133.44C1496.34 132.306 1496.32 131.137 1496.07 130.008C1495.83 128.879 1495.34 127.814 1494.66 126.88C1493.98 125.946 1493.11 125.165 1492.11 124.585C1491.11 124.005 1490 123.639 1488.85 123.51V40.58C1488.85 40.58 1483.7 40.81 1481.91 54.01C1480.12 67.21 1470.91 102.12 1476.54 109.5C1479.83 114.021 1482.61 118.886 1484.85 124.01C1482.81 124.79 1481.15 126.338 1480.24 128.324C1479.33 130.309 1479.23 132.573 1479.97 134.63L1407.31 176.57C1407.31 176.57 1410.08 180.92 1422.41 175.87C1434.74 170.82 1469.56 161.31 1473.15 152.77C1475.52 147.458 1478.47 142.426 1481.96 137.77C1482.78 138.59 1483.77 139.229 1484.85 139.648C1485.93 140.067 1487.09 140.256 1488.25 140.204C1489.41 140.151 1490.55 139.858 1491.59 139.342C1492.63 138.827 1493.55 138.101 1494.3 137.21L1565.9 178.55C1565.9 178.55 1568.28 174 1557.74 165.84Z" fill="white" stroke="#58595B" stroke-width="2" stroke-miterlimit="10"/>
<path d="M623.46 59C624.95 55.6624 625.285 51.9234 624.413 48.3739C623.54 44.8244 621.51 41.6669 618.642 39.4003C615.775 37.1338 612.234 35.8875 608.579 35.8585C604.924 35.8295 601.363 37.0193 598.46 39.24C595.373 30.6856 589.729 23.2879 582.294 18.0507C574.859 12.8134 565.993 9.99016 556.899 9.96396C547.805 9.93775 538.923 12.7099 531.458 17.9042C523.993 23.0985 518.306 30.4635 515.17 39C514.27 38.92 513.37 38.87 512.45 38.87C506.233 38.868 500.171 40.8065 495.108 44.4151C490.046 48.0237 486.236 53.1224 484.21 59H623.46Z" fill="white" stroke="#58595B" stroke-width="2" stroke-miterlimit="10"/>
<path d="M144 69C145.186 66.345 145.453 63.3703 144.758 60.5466C144.064 57.723 142.447 55.2116 140.165 53.41C137.882 51.6083 135.064 50.6193 132.156 50.5993C129.248 50.5794 126.417 51.5298 124.11 53.3C121.643 46.5279 117.157 40.676 111.258 36.534C105.36 32.392 98.3323 30.1594 91.1248 30.1376C83.9173 30.1158 76.8766 32.3058 70.9531 36.4121C65.0295 40.5183 60.5084 46.343 58 53.1C57.24 53 56.52 53 55.79 53C50.8489 53.0015 46.0311 54.5434 42.0073 57.4111C37.9835 60.2789 34.9538 64.3298 33.34 69H144Z" fill="white" stroke="#58595B" stroke-width="2" stroke-miterlimit="10"/>
<path d="M1753.08 68C1754.27 65.345 1754.53 62.3703 1753.84 59.5466C1753.14 56.723 1751.53 54.2116 1749.24 52.41C1746.96 50.6083 1744.14 49.6193 1741.24 49.5994C1738.33 49.5794 1735.5 50.5298 1733.19 52.3C1730.74 45.5045 1726.25 39.6281 1720.35 35.4676C1714.44 31.3071 1707.39 29.0639 1700.17 29.042C1692.95 29.0202 1685.89 31.2208 1679.96 35.3456C1674.02 39.4703 1669.5 45.3195 1667.01 52.1C1666.3 52.03 1665.58 51.99 1664.85 51.99C1659.91 51.9915 1655.09 53.5334 1651.07 56.4011C1647.04 59.2689 1644.01 63.3198 1642.4 67.99L1753.08 68Z" fill="white" stroke="#58595B" stroke-width="2" stroke-miterlimit="10"/>
<path d="M2007.08 142C2008.27 139.345 2008.53 136.37 2007.84 133.547C2007.14 130.723 2005.53 128.212 2003.24 126.41C2000.96 124.608 1998.14 123.619 1995.24 123.599C1992.33 123.579 1989.5 124.53 1987.19 126.3C1984.74 119.505 1980.25 113.628 1974.35 109.468C1968.44 105.307 1961.39 103.064 1954.17 103.042C1946.95 103.02 1939.89 105.221 1933.96 109.346C1928.02 113.47 1923.5 119.319 1921.01 126.1C1920.3 126.03 1919.58 125.99 1918.85 125.99C1913.91 125.991 1909.09 127.533 1905.07 130.401C1901.04 133.269 1898.01 137.32 1896.4 141.99L2007.08 142Z" fill="white" stroke="#58595B" stroke-width="2" stroke-miterlimit="10"/>
<path d="M1023.23 55C1024.11 53.0299 1024.31 50.823 1023.79 48.7283C1023.27 46.6337 1022.07 44.7708 1020.38 43.4342C1018.69 42.0976 1016.6 41.3637 1014.44 41.3485C1012.28 41.3332 1010.18 42.0375 1008.47 43.35C1006.65 38.3082 1003.32 33.9481 998.941 30.8611C994.558 27.7741 989.333 26.1096 983.972 26.0932C978.612 26.0768 973.376 27.7094 968.975 30.7696C964.574 33.8297 961.221 38.1694 959.37 43.2C958.84 43.15 958.31 43.13 957.77 43.13C954.105 43.1296 950.53 44.2731 947.546 46.4009C944.561 48.5286 942.315 51.5347 941.12 55H1023.23Z" fill="white" stroke="#58595B" stroke-width="2" stroke-miterlimit="10"/>
<path d="M1266.23 83C1267.11 81.0299 1267.31 78.823 1266.79 76.7283C1266.27 74.6337 1265.07 72.7708 1263.38 71.4342C1261.69 70.0976 1259.6 69.3637 1257.44 69.3485C1255.28 69.3332 1253.18 70.0375 1251.47 71.35C1249.65 66.3082 1246.32 61.9481 1241.94 58.8611C1237.56 55.7741 1232.33 54.1096 1226.97 54.0932C1221.61 54.0768 1216.38 55.7094 1211.98 58.7696C1207.57 61.8297 1204.22 66.1694 1202.37 71.2C1201.84 71.2 1201.31 71.13 1200.77 71.13C1197.1 71.1296 1193.53 72.2731 1190.55 74.4009C1187.56 76.5286 1185.31 79.5347 1184.12 83H1266.23Z" fill="white" stroke="#58595B" stroke-width="2" stroke-miterlimit="10"/>
<path d="M684.07 85.21H748.29C748.29 85.21 760.15 85.43 760.15 77.38C760.15 69.77 753.44 71.38 753.44 71.38C752.502 71.6041 751.665 72.1313 751.057 72.8798C750.45 73.6283 750.106 74.5564 750.08 75.52C750.08 78.87 754.08 79.43 755.67 78.2" stroke="#58595B" stroke-width="2" stroke-miterlimit="10" stroke-linecap="round"/>
<path d="M695 80.06H725.73C725.73 80.06 743.16 80.39 743.16 68.55C743.16 57.37 733.3 59.67 733.3 59.67C733.3 59.67 728.36 60.82 728.36 65.76C728.36 70.7 734.28 71.51 736.59 69.7" stroke="#58595B" stroke-width="2" stroke-miterlimit="10" stroke-linecap="round"/>
<path d="M691.45 91.3H725.76C725.76 91.3 743.19 90.97 743.19 102.81C743.19 113.99 733.33 111.69 733.33 111.69C733.33 111.69 728.39 110.54 728.39 105.61C728.39 100.68 734.31 99.85 736.62 101.61" stroke="#58595B" stroke-width="2" stroke-miterlimit="10" stroke-linecap="round"/>
<path d="M120.28 101.12H184.51C184.51 101.12 196.37 101.34 196.37 93.29C196.37 85.68 189.65 87.29 189.65 87.29C188.714 87.516 187.879 88.044 187.274 88.7924C186.668 89.5407 186.326 90.4677 186.3 91.43C186.3 94.78 190.3 95.34 191.89 94.11" stroke="#58595B" stroke-width="2" stroke-miterlimit="10" stroke-linecap="round"/>
<path d="M131.25 96H162C162 96 179.43 96.33 179.43 84.49C179.43 73.31 169.56 75.61 169.56 75.61C169.56 75.61 164.63 76.76 164.63 81.7C164.63 86.64 170.55 87.45 172.85 85.64" stroke="#58595B" stroke-width="2" stroke-miterlimit="10" stroke-linecap="round"/>
<path d="M127.67 107.21H162C162 107.21 179.43 106.88 179.43 118.72C179.43 129.9 169.56 127.6 169.56 127.6C169.56 127.6 164.63 126.45 164.63 121.52C164.63 116.59 170.55 115.76 172.85 117.52" stroke="#58595B" stroke-width="2" stroke-miterlimit="10" stroke-linecap="round"/>
<path d="M424.28 163.42H463.72C463.72 163.42 471 163.56 471 158.61C471 153.94 466.88 154.9 466.88 154.9C466.305 155.038 465.792 155.362 465.42 155.821C465.047 156.28 464.837 156.849 464.82 157.44C464.82 159.5 467.29 159.85 468.25 159.09" fill="white"/>
<path d="M424.28 163.42H463.72C463.72 163.42 471 163.56 471 158.61C471 153.94 466.88 154.9 466.88 154.9C466.305 155.038 465.792 155.362 465.42 155.821C465.047 156.28 464.837 156.849 464.82 157.44C464.82 159.5 467.29 159.85 468.25 159.09" stroke="#58595B" stroke-width="2" stroke-miterlimit="10"/>
<path d="M431 160.26H449.87C449.87 160.26 460.57 160.46 460.57 153.19C460.57 146.32 454.51 147.74 454.51 147.74C453.67 147.946 452.921 148.423 452.379 149.097C451.836 149.771 451.531 150.605 451.51 151.47C451.51 154.47 455.15 155.01 456.56 153.9" fill="white"/>
<path d="M431 160.26H449.87C449.87 160.26 460.57 160.46 460.57 153.19C460.57 146.32 454.51 147.74 454.51 147.74C453.67 147.946 452.921 148.423 452.379 149.097C451.836 149.771 451.531 150.605 451.51 151.47C451.51 154.47 455.15 155.01 456.56 153.9" stroke="#58595B" stroke-width="2" stroke-miterlimit="10"/>
<path d="M428.82 167.16H449.89C449.89 167.16 460.59 166.96 460.59 174.23C460.59 181.09 454.53 179.68 454.53 179.68C453.693 179.464 452.948 178.984 452.408 178.309C451.867 177.635 451.559 176.804 451.53 175.94C451.53 172.94 455.17 172.41 456.58 173.52" fill="white"/>
<path d="M428.82 167.16H449.89C449.89 167.16 460.59 166.96 460.59 174.23C460.59 181.09 454.53 179.68 454.53 179.68C453.693 179.464 452.948 178.984 452.408 178.309C451.867 177.635 451.559 176.804 451.53 175.94C451.53 172.94 455.17 172.41 456.58 173.52" stroke="#58595B" stroke-width="2" stroke-miterlimit="10"/>
<path d="M1045.23 126.86H1109.45C1109.45 126.86 1121.31 127.08 1121.31 119.02C1121.31 111.42 1114.6 113.02 1114.6 113.02C1113.66 113.244 1112.83 113.771 1112.22 114.52C1111.61 115.268 1111.27 116.196 1111.24 117.16C1111.24 120.52 1115.24 121.08 1116.84 119.85" stroke="#58595B" stroke-width="2" stroke-miterlimit="10" stroke-linecap="round"/>
<path d="M1056.19 121.71H1086.93C1086.93 121.71 1104.36 122.04 1104.36 110.2C1104.36 99.02 1094.49 101.32 1094.49 101.32C1094.49 101.32 1089.56 102.47 1089.56 107.4C1089.56 112.33 1095.48 113.16 1097.78 111.35" stroke="#58595B" stroke-width="2" stroke-miterlimit="10" stroke-linecap="round"/>
<path d="M1052.61 133H1086.93C1086.93 133 1104.36 132.67 1104.36 144.51C1104.36 155.69 1094.49 153.39 1094.49 153.39C1094.49 153.39 1089.56 152.24 1089.56 147.3C1089.56 142.36 1095.48 141.55 1097.78 143.36" stroke="#58595B" stroke-width="2" stroke-miterlimit="10" stroke-linecap="round"/>
<path d="M1545.42 110.71H1573C1573 110.71 1578.1 110.81 1578.1 107.35C1578.1 104.07 1575.22 104.75 1575.22 104.75C1574.82 104.845 1574.45 105.071 1574.19 105.393C1573.93 105.715 1573.78 106.115 1573.77 106.53C1573.79 106.801 1573.88 107.063 1574.03 107.289C1574.18 107.514 1574.39 107.694 1574.64 107.812C1574.88 107.929 1575.16 107.978 1575.43 107.955C1575.7 107.932 1575.96 107.837 1576.18 107.68" stroke="#58595B" stroke-width="2" stroke-miterlimit="10" stroke-linecap="round"/>
<path d="M1550.14 108.5H1563.35C1563.35 108.5 1570.84 108.64 1570.84 103.5C1570.84 98.69 1566.6 99.68 1566.6 99.68C1566.01 99.8243 1565.48 100.159 1565.1 100.632C1564.71 101.105 1564.5 101.691 1564.48 102.3C1564.48 104.42 1567.02 104.77 1568.01 104" stroke="#58595B" stroke-width="2" stroke-miterlimit="10" stroke-linecap="round"/>
<path d="M1548.6 113.33H1563.35C1563.35 113.33 1570.84 113.19 1570.84 118.33C1570.84 123.14 1566.6 122.15 1566.6 122.15C1566.01 122.006 1565.48 121.671 1565.1 121.198C1564.71 120.725 1564.5 120.139 1564.48 119.53C1564.48 117.41 1567.02 117.06 1568.01 117.83" stroke="#58595B" stroke-width="2" stroke-miterlimit="10" stroke-linecap="round"/>
<path d="M1903.42 243.71H1931C1931 243.71 1936.1 243.81 1936.1 240.35C1936.1 237.07 1933.22 237.75 1933.22 237.75C1932.82 237.845 1932.45 238.071 1932.19 238.393C1931.93 238.715 1931.78 239.115 1931.77 239.53C1931.79 239.801 1931.88 240.063 1932.03 240.289C1932.18 240.514 1932.39 240.694 1932.64 240.812C1932.88 240.929 1933.16 240.978 1933.43 240.955C1933.7 240.932 1933.96 240.837 1934.18 240.68" stroke="#58595B" stroke-width="2" stroke-miterlimit="10" stroke-linecap="round"/>
<path d="M1908.14 241.5H1921.35C1921.35 241.5 1928.84 241.64 1928.84 236.55C1928.84 231.74 1924.6 232.73 1924.6 232.73C1924.01 232.874 1923.48 233.209 1923.1 233.682C1922.71 234.155 1922.5 234.741 1922.48 235.35C1922.48 237.47 1925.02 237.82 1926.01 237.05" stroke="#58595B" stroke-width="2" stroke-miterlimit="10" stroke-linecap="round"/>
<path d="M1906.6 246.33H1921.35C1921.35 246.33 1928.84 246.19 1928.84 251.28C1928.84 256.09 1924.6 255.1 1924.6 255.1C1924.01 254.956 1923.48 254.621 1923.1 254.148C1922.71 253.675 1922.5 253.089 1922.48 252.48C1922.48 250.36 1925.02 250.01 1926.01 250.78" stroke="#58595B" stroke-width="2" stroke-miterlimit="10" stroke-linecap="round"/>
<path d="M1277.28 127.33H1341.5C1341.5 127.33 1353.36 127.55 1353.36 119.49C1353.36 111.89 1346.65 113.49 1346.65 113.49C1346.65 113.49 1343.29 114.28 1343.29 117.63C1343.29 120.98 1347.29 121.55 1348.89 120.32" stroke="#58595B" stroke-width="2" stroke-miterlimit="10" stroke-linecap="round"/>
<path d="M1288.25 122.18H1319C1319 122.18 1336.43 122.51 1336.43 110.67C1336.43 99.49 1326.56 101.79 1326.56 101.79C1326.56 101.79 1321.63 102.94 1321.63 107.87C1321.63 112.8 1327.55 113.63 1329.85 111.82" stroke="#58595B" stroke-width="2" stroke-miterlimit="10" stroke-linecap="round"/>
<path d="M1284.67 133.42H1319C1319 133.42 1336.43 133.09 1336.43 144.93C1336.43 156.11 1326.56 153.81 1326.56 153.81C1326.56 153.81 1321.63 152.66 1321.63 147.72C1321.63 142.78 1327.55 141.97 1329.85 143.78" stroke="#58595B" stroke-width="2" stroke-miterlimit="10" stroke-linecap="round"/>
<path d="M107.22 254.58V326.19" stroke="#58595B" stroke-width="2" stroke-miterlimit="10" stroke-linecap="round"/>
<path d="M99.49 262.67L107.22 276.11" stroke="#58595B" stroke-width="2" stroke-miterlimit="10" stroke-linecap="round"/>
<path d="M107.22 287.34L114.95 272.61" stroke="#58595B" stroke-width="2" stroke-miterlimit="10" stroke-linecap="round"/>
<path d="M145.33 258.3C145.86 254.149 145.211 249.933 143.457 246.134C141.702 242.336 138.914 239.108 135.41 236.82C133.674 231.727 130.534 227.228 126.352 223.842C122.17 220.457 117.115 218.322 111.772 217.686C106.429 217.049 101.015 217.936 96.1539 220.244C91.2931 222.552 87.1838 226.187 84.3 230.73C80.9366 231.531 77.8065 233.106 75.1583 235.329C72.5102 237.551 70.417 240.361 69.0452 243.535C67.6734 246.709 67.0608 250.159 67.2561 253.611C67.4513 257.062 68.4491 260.421 70.17 263.42C69.7716 265.682 69.5709 267.974 69.57 270.27C69.57 291.71 85.77 297.11 107.22 297.11C128.67 297.11 147.22 291.71 147.22 270.27C147.221 266.206 146.583 262.166 145.33 258.3Z" stroke="#58595B" stroke-width="2" stroke-miterlimit="10" stroke-linecap="round"/>
<path d="M9.10999 283.41V326.19" stroke="#58595B" stroke-width="1.19" stroke-miterlimit="10" stroke-linecap="round"/>
<path d="M4.48999 288.25L9.10999 296.28" stroke="#58595B" stroke-width="1.19" stroke-miterlimit="10" stroke-linecap="round"/>
<path d="M9.10999 302.98L13.73 294.19" stroke="#58595B" stroke-width="1.19" stroke-miterlimit="10" stroke-linecap="round"/>
<path d="M31.88 285.64C31.9488 285.073 31.9822 284.502 31.98 283.93C31.9831 281.724 31.4361 279.552 30.3885 277.61C29.3408 275.668 27.8257 274.019 25.98 272.81C24.959 269.754 23.0904 267.05 20.592 265.015C18.0935 262.98 15.0681 261.697 11.8684 261.316C8.66871 260.934 5.42647 261.47 2.51959 262.861C-0.38729 264.251 -2.83908 266.439 -4.55 269.17C-7.4546 269.861 -10.0414 271.511 -11.8923 273.853C-13.7432 276.196 -14.75 279.094 -14.75 282.08C-14.7568 284.402 -14.1533 286.685 -13 288.7C-13.237 290.051 -13.3574 291.419 -13.36 292.79C-13.36 305.59 -3.68001 308.79 9.13 308.79C21.94 308.79 33 305.59 33 292.79C32.9996 290.363 32.6217 287.951 31.88 285.64Z" stroke="#58595B" stroke-width="1.19" stroke-miterlimit="10" stroke-linecap="round"/>
<path d="M617.74 264.26V326.56" stroke="#58595B" stroke-width="1.74" stroke-miterlimit="10" stroke-linecap="round"/>
<path d="M611.01 271.31L617.74 282.99" stroke="#58595B" stroke-width="1.74" stroke-miterlimit="10" stroke-linecap="round"/>
<path d="M617.74 292.76L624.46 279.95" stroke="#58595B" stroke-width="1.74" stroke-miterlimit="10" stroke-linecap="round"/>
<path d="M650.9 267.5C651.004 266.677 651.057 265.849 651.06 265.02C651.063 261.801 650.26 258.632 648.725 255.802C647.19 252.973 644.971 250.572 642.27 248.82C640.759 244.39 638.026 240.477 634.388 237.532C630.75 234.587 626.353 232.73 621.705 232.175C617.058 231.62 612.348 232.39 608.118 234.395C603.889 236.401 600.312 239.56 597.8 243.51C594.867 244.205 592.137 245.576 589.828 247.513C587.519 249.451 585.694 251.901 584.5 254.669C583.306 257.436 582.776 260.445 582.951 263.454C583.127 266.463 584.003 269.39 585.51 272C585.161 273.981 584.987 275.989 584.99 278C584.99 296.65 599.09 301.36 617.74 301.36C636.39 301.36 652.54 296.65 652.54 278C652.55 274.435 651.997 270.892 650.9 267.5Z" stroke="#58595B" stroke-width="1.74" stroke-miterlimit="10" stroke-linecap="round"/>
<path d="M1315.74 280.07V326.56" stroke="#58595B" stroke-width="1.74" stroke-miterlimit="10" stroke-linecap="round"/>
<path d="M1310.72 285.33L1315.74 294.05" stroke="#58595B" stroke-width="1.74" stroke-miterlimit="10" stroke-linecap="round"/>
<path d="M1315.74 301.34L1320.76 291.78" stroke="#58595B" stroke-width="1.74" stroke-miterlimit="10" stroke-linecap="round"/>
<path d="M1340.48 282.49C1340.56 281.877 1340.6 281.259 1340.6 280.64C1340.6 278.237 1340 275.872 1338.86 273.76C1337.71 271.649 1336.06 269.857 1334.04 268.55C1332.92 265.241 1330.88 262.317 1328.17 260.115C1325.46 257.913 1322.18 256.522 1318.71 256.104C1315.24 255.686 1311.72 256.257 1308.57 257.751C1305.41 259.246 1302.74 261.603 1300.86 264.55C1298.68 265.07 1296.64 266.092 1294.92 267.536C1293.2 268.98 1291.84 270.805 1290.95 272.866C1290.06 274.928 1289.67 277.168 1289.79 279.41C1289.92 281.652 1290.57 283.833 1291.69 285.78C1291.43 287.245 1291.3 288.731 1291.3 290.22C1291.3 304.14 1301.82 307.65 1315.74 307.65C1329.66 307.65 1341.74 304.14 1341.74 290.22C1341.72 287.594 1341.3 284.986 1340.48 282.49Z" stroke="#58595B" stroke-width="1.74" stroke-miterlimit="10" stroke-linecap="round"/>
<path d="M1374.89 288.76V326.56" stroke="#58595B" stroke-width="1.74" stroke-miterlimit="10" stroke-linecap="round"/>
<path d="M1370.81 293.03L1374.89 300.13" stroke="#58595B" stroke-width="1.74" stroke-miterlimit="10" stroke-linecap="round"/>
<path d="M1374.89 306.05L1378.97 298.28" stroke="#58595B" stroke-width="1.74" stroke-miterlimit="10" stroke-linecap="round"/>
<path d="M1395 290.73C1395.06 290.229 1395.09 289.725 1395.09 289.22C1395.09 287.267 1394.61 285.345 1393.67 283.628C1392.74 281.911 1391.4 280.454 1389.76 279.39C1388.85 276.697 1387.19 274.318 1384.98 272.527C1382.77 270.737 1380.1 269.608 1377.27 269.271C1374.45 268.935 1371.59 269.404 1369.02 270.624C1366.45 271.845 1364.28 273.768 1362.76 276.17C1360.98 276.592 1359.33 277.422 1357.93 278.596C1356.53 279.769 1355.43 281.253 1354.7 282.929C1353.98 284.605 1353.65 286.427 1353.76 288.25C1353.86 290.073 1354.39 291.847 1355.3 293.43C1355.1 294.609 1355 295.804 1355 297C1355 308.32 1363.56 311.17 1374.88 311.17C1386.2 311.17 1396 308.36 1396 297C1395.99 294.871 1395.66 292.756 1395 290.73Z" stroke="#58595B" stroke-width="1.74" stroke-miterlimit="10" stroke-linecap="round"/>
<path d="M1903.89 288.76V326.56" stroke="#58595B" stroke-width="1.74" stroke-miterlimit="10" stroke-linecap="round"/>
<path d="M1899.81 293.03L1903.89 300.13" stroke="#58595B" stroke-width="1.74" stroke-miterlimit="10" stroke-linecap="round"/>
<path d="M1903.89 306.05L1907.97 298.28" stroke="#58595B" stroke-width="1.74" stroke-miterlimit="10" stroke-linecap="round"/>
<path d="M1924 290.73C1924.06 290.229 1924.09 289.725 1924.09 289.22C1924.09 287.267 1923.61 285.345 1922.67 283.628C1921.74 281.911 1920.4 280.454 1918.76 279.39C1917.85 276.697 1916.19 274.318 1913.98 272.527C1911.77 270.737 1909.1 269.608 1906.27 269.271C1903.45 268.935 1900.59 269.404 1898.02 270.624C1895.45 271.845 1893.28 273.768 1891.76 276.17C1889.98 276.592 1888.33 277.422 1886.93 278.596C1885.53 279.769 1884.43 281.253 1883.7 282.929C1882.98 284.605 1882.65 286.427 1882.76 288.25C1882.86 290.073 1883.39 291.847 1884.3 293.43C1884.1 294.609 1884 295.804 1884 297C1884 308.32 1892.56 311.17 1903.88 311.17C1915.2 311.17 1925 308.36 1925 297C1924.99 294.871 1924.66 292.756 1924 290.73Z" stroke="#58595B" stroke-width="1.74" stroke-miterlimit="10" stroke-linecap="round"/>
<path d="M867.89 288.76V326.56" stroke="#58595B" stroke-width="1.74" stroke-miterlimit="10" stroke-linecap="round"/>
<path d="M863.81 293.03L867.89 300.13" stroke="#58595B" stroke-width="1.74" stroke-miterlimit="10" stroke-linecap="round"/>
<path d="M867.89 306.05L871.97 298.28" stroke="#58595B" stroke-width="1.74" stroke-miterlimit="10" stroke-linecap="round"/>
<path d="M888 290.73C888.06 290.229 888.09 289.725 888.09 289.22C888.092 287.267 887.605 285.345 886.674 283.628C885.743 281.911 884.398 280.454 882.76 279.39C881.846 276.697 880.188 274.318 877.979 272.527C875.769 270.737 873.099 269.608 870.275 269.271C867.451 268.935 864.59 269.404 862.021 270.624C859.453 271.845 857.282 273.768 855.76 276.17C853.983 276.592 852.33 277.422 850.931 278.596C849.532 279.769 848.426 281.253 847.702 282.929C846.977 284.605 846.654 286.427 846.758 288.25C846.862 290.073 847.39 291.847 848.3 293.43C848.096 294.609 847.995 295.804 848 297C848 308.32 856.56 311.17 867.88 311.17C879.2 311.17 889 308.36 889 297C888.993 294.871 888.656 292.756 888 290.73Z" stroke="#58595B" stroke-width="1.74" stroke-miterlimit="10" stroke-linecap="round"/>
<path d="M1592.16 258.67C1592.69 254.519 1592.04 250.303 1590.29 246.504C1588.53 242.706 1585.74 239.478 1582.24 237.19C1580.5 232.099 1577.36 227.604 1573.18 224.221C1568.99 220.838 1563.94 218.705 1558.6 218.069C1553.26 217.432 1547.85 218.318 1542.99 220.623C1538.13 222.929 1534.02 226.561 1531.13 231.1C1527.77 231.901 1524.64 233.476 1521.99 235.699C1519.34 237.921 1517.25 240.731 1515.88 243.905C1514.5 247.079 1513.89 250.529 1514.09 253.981C1514.28 257.432 1515.28 260.791 1517 263.79C1516.6 266.052 1516.4 268.344 1516.4 270.64C1516.4 292.08 1532.61 297.48 1554.05 297.48C1575.49 297.48 1594.05 292.08 1594.05 270.64C1594.05 266.576 1593.41 262.536 1592.16 258.67Z" fill="white" stroke="#58595B" stroke-width="2" stroke-miterlimit="10" stroke-linecap="round"/>
<path d="M1554.05 254.95V326.56" stroke="#58595B" stroke-width="2" stroke-miterlimit="10" stroke-linecap="round"/>
<path d="M1546.32 263.05L1554.05 276.48" stroke="#58595B" stroke-width="2" stroke-miterlimit="10" stroke-linecap="round"/>
<path d="M1554.05 287.71L1561.78 272.98" stroke="#58595B" stroke-width="2" stroke-miterlimit="10" stroke-linecap="round"/>
<path d="M1100.63 218.5C1116.88 218.5 1132.47 224.956 1143.96 236.449C1155.45 247.941 1161.91 263.528 1161.91 279.78V305.78H1039.36V279.78C1039.36 263.528 1045.82 247.941 1057.31 236.449C1068.8 224.956 1084.39 218.5 1100.64 218.5H1100.63Z" fill="white" stroke="#58595B" stroke-width="2" stroke-miterlimit="10"/>
<path d="M1161.91 276.49H1039.36V326.57H1161.91V276.49Z" fill="white" stroke="#58595B" stroke-width="2" stroke-miterlimit="10"/>
<path d="M1161.91 276.49H1039.36V283.76H1161.91V276.49Z" fill="white" stroke="#58595B" stroke-width="2" stroke-miterlimit="10"/>
<path d="M1083.39 263.63C1083.35 263.553 1083.31 263.48 1083.26 263.41C1083.2 263.335 1083.13 263.265 1083.06 263.2L1083 263.3V263.38C1082.97 263.435 1082.93 263.485 1082.88 263.53C1082.82 263.598 1082.76 263.662 1082.69 263.72L1082.51 263.84C1082.55 263.861 1082.59 263.892 1082.62 263.93V263.98L1083.08 265.26H1083.99L1083.4 263.63H1083.39Z" fill="#58595B"/>
<path d="M1079.4 262.62C1079.39 262.686 1079.39 262.754 1079.4 262.82L1079.59 262.74C1079.72 262.71 1079.85 262.686 1079.98 262.67H1080.25C1080.24 262.614 1080.24 262.556 1080.25 262.5C1080.25 262.45 1081.01 260.41 1081.01 260.41L1080.56 259.16C1080.56 259.16 1079.73 261.43 1079.46 262.16C1079.42 262.31 1079.4 262.465 1079.4 262.62Z" fill="#58595B"/>
<path d="M1081.73 263.79C1082.01 263.792 1082.28 263.696 1082.49 263.52C1082.55 263.475 1082.6 263.425 1082.65 263.37L1082.75 263.24V263.18C1082.79 263.104 1082.83 263.024 1082.86 262.94C1082.9 262.821 1082.92 262.696 1082.92 262.57C1082.92 262.467 1082.9 262.365 1082.86 262.27L1081.7 259C1081.66 258.935 1081.6 258.886 1081.53 258.86H1081.42H1080.76L1082.05 262.43C1082.08 262.505 1082.1 262.582 1082.11 262.66C1082.13 262.712 1082.13 262.768 1082.11 262.82C1082.08 262.862 1082.03 262.897 1081.99 262.921C1081.94 262.945 1081.88 262.959 1081.83 262.96H1080C1079.87 262.963 1079.73 262.99 1079.61 263.04C1079.45 263.099 1079.31 263.193 1079.19 263.316C1079.07 263.439 1078.98 263.588 1078.93 263.75L1078.36 265.29H1079.27L1079.72 264.04C1079.74 263.995 1079.76 263.954 1079.79 263.92C1079.83 263.885 1079.87 263.858 1079.91 263.84H1080.06L1081.73 263.79Z" fill="#58595B"/>
<path d="M1088.19 262.92C1088.06 262.774 1087.92 262.637 1087.77 262.51C1087.51 262.3 1087.19 262.187 1086.86 262.19H1086.41C1086.31 262.187 1086.21 262.216 1086.13 262.274C1086.04 262.332 1085.98 262.414 1085.95 262.51C1085.93 262.569 1085.93 262.632 1085.94 262.694C1085.95 262.755 1085.97 262.813 1086.01 262.863C1086.05 262.913 1086.09 262.953 1086.15 262.981C1086.21 263.008 1086.27 263.021 1086.33 263.02H1086.7C1086.84 263.023 1086.98 263.055 1087.1 263.113C1087.23 263.172 1087.34 263.256 1087.43 263.36L1089.03 265.26H1090.14L1088.19 262.92Z" fill="#58595B"/>
<path d="M1085.7 259.16C1085.7 259.028 1085.74 258.899 1085.82 258.79C1085.55 258.79 1085.3 258.895 1085.11 259.083C1084.93 259.27 1084.82 259.525 1084.82 259.79V265.23H1085.73V259.6L1085.7 259.16Z" fill="#58595B"/>
<path d="M1087.32 258.79H1086.32C1086.23 258.798 1086.14 258.841 1086.07 258.912C1086.01 258.983 1085.98 259.075 1085.98 259.17V259.63H1087.34C1088.26 259.63 1088.95 260.11 1088.95 260.9C1088.95 261.69 1088.5 262.03 1087.64 262.15C1087.97 262.305 1088.25 262.543 1088.46 262.84C1088.87 262.709 1089.23 262.449 1089.48 262.1C1089.73 261.751 1089.86 261.33 1089.85 260.9C1089.84 260.589 1089.77 260.283 1089.63 260.003C1089.49 259.723 1089.3 259.475 1089.06 259.275C1088.82 259.076 1088.54 258.93 1088.24 258.846C1087.94 258.762 1087.63 258.743 1087.32 258.79Z" fill="#58595B"/>
<path d="M1024.91 209.59C1042.5 209.59 1059.37 216.578 1071.81 229.018C1084.25 241.457 1091.24 258.328 1091.24 275.92V304.09H958.58V275.92C958.58 258.328 965.568 241.457 978.008 229.018C990.447 216.578 1007.32 209.59 1024.91 209.59Z" fill="white" stroke="#58595B" stroke-width="2" stroke-miterlimit="10"/>
<path d="M1091.25 272.35H958.58V326.56H1091.25V272.35Z" fill="white" stroke="#58595B" stroke-width="2" stroke-miterlimit="10"/>
<path d="M1091.25 272.35H958.58V280.23H1091.25V272.35Z" fill="white" stroke="#58595B" stroke-width="2" stroke-miterlimit="10"/>
<path d="M1184.68 209.59C1202.27 209.593 1219.14 216.582 1231.58 229.021C1244.01 241.46 1251 258.33 1251 275.92V304.09H1118.35V275.92C1118.35 258.328 1125.34 241.457 1137.78 229.018C1150.22 216.578 1167.09 209.59 1184.68 209.59Z" fill="white" stroke="#58595B" stroke-width="2" stroke-miterlimit="10"/>
<path d="M1251.02 272.35H1118.35V326.56H1251.02V272.35Z" fill="white" stroke="#58595B" stroke-width="2" stroke-miterlimit="10"/>
<path d="M1251.02 272.35H1118.35V280.23H1251.02V272.35Z" fill="white" stroke="#58595B" stroke-width="2" stroke-miterlimit="10"/>
<path d="M-30 326.56H1933" stroke="#58595B" stroke-width="2" stroke-miterlimit="10"/>
<path d="M363.18 268.19C366.612 268.19 369.903 269.553 372.33 271.98C374.757 274.407 376.12 277.698 376.12 281.13V326.55H350.24V281.14C350.239 279.44 350.572 277.756 351.222 276.185C351.872 274.614 352.825 273.186 354.026 271.984C355.228 270.781 356.655 269.827 358.226 269.176C359.796 268.525 361.48 268.19 363.18 268.19Z" fill="white" stroke="#58595B" stroke-width="2" stroke-miterlimit="10"/>
<path d="M366.24 273.69H360.44C357.06 273.69 354.32 276.43 354.32 279.81C354.32 283.19 357.06 285.93 360.44 285.93H366.24C369.62 285.93 372.36 283.19 372.36 279.81C372.36 276.43 369.62 273.69 366.24 273.69Z" fill="white" stroke="#58595B" stroke-width="2" stroke-miterlimit="10"/>
<path d="M365.89 295.37L360.59 305.22L364.67 305.62L361.01 314.76L368.75 302.21L364.36 302.63L365.89 295.37Z" fill="white" stroke="#58595B" stroke-width="2" stroke-miterlimit="10"/>
<path d="M383.07 306.4H380.52V301.3H383.07C383.72 301.299 384.346 301.547 384.818 301.994C385.291 302.44 385.574 303.051 385.61 303.7C385.615 303.75 385.615 303.8 385.61 303.85C385.61 304.525 385.343 305.172 384.867 305.65C384.391 306.128 383.745 306.397 383.07 306.4Z" fill="white" stroke="#58595B" stroke-width="2" stroke-miterlimit="10"/>
<path d="M380.52 302.27H377.75V303.16H380.52V302.27Z" fill="white" stroke="#58595B" stroke-width="2" stroke-miterlimit="10"/>
<path d="M380.52 304.54H377.75V305.43H380.52V304.54Z" fill="white" stroke="#58595B" stroke-width="2" stroke-miterlimit="10"/>
<path d="M385.62 303.85H388.76V310.27H400.83" fill="white"/>
<path d="M385.62 303.85H388.76V310.27H400.83" stroke="#58595B" stroke-width="2" stroke-miterlimit="10"/>
<path d="M419.98 329.61C425.028 329.61 429.12 325.518 429.12 320.47C429.12 315.422 425.028 311.33 419.98 311.33C414.932 311.33 410.84 315.422 410.84 320.47C410.84 325.518 414.932 329.61 419.98 329.61Z" fill="white" stroke="#58595B" stroke-width="2" stroke-miterlimit="10"/>
<path d="M481.25 314.43C481.25 303.29 466.19 301.13 466.19 301.13C466.19 301.13 461.48 283.24 431.83 283.24C402.18 283.24 400 314.43 400 314.43C395.6 314.43 396.86 319.92 396.86 319.92H407.86C407.987 316.783 409.323 313.817 411.588 311.642C413.852 309.467 416.87 308.253 420.01 308.253C423.15 308.253 426.168 309.467 428.432 311.642C430.697 313.817 432.033 316.783 432.16 319.92H447.72C447.875 316.803 449.222 313.866 451.483 311.714C453.743 309.563 456.744 308.364 459.865 308.364C462.985 308.364 465.987 309.563 468.247 311.714C470.508 313.866 471.855 316.803 472.01 319.92H484.42V317.92C484.39 313.49 481.25 314.43 481.25 314.43Z" fill="white" stroke="#58595B" stroke-width="2" stroke-miterlimit="10"/>
<path d="M459.83 329.61C464.878 329.61 468.97 325.518 468.97 320.47C468.97 315.422 464.878 311.33 459.83 311.33C454.782 311.33 450.69 315.422 450.69 320.47C450.69 325.518 454.782 329.61 459.83 329.61Z" fill="white" stroke="#58595B" stroke-width="2" stroke-miterlimit="10"/>
<path d="M458.11 298.9C455.75 292.17 445.96 287.13 434.23 287.13C422.5 287.13 412.71 292.13 410.35 298.9H458.11Z" fill="white" stroke="#58595B" stroke-width="2" stroke-miterlimit="10"/>
<path d="M300.1 280.19L311.23 304.19C311.671 305.145 311.865 306.196 311.794 307.246C311.722 308.296 311.388 309.311 310.821 310.197C310.254 311.084 309.473 311.814 308.55 312.319C307.628 312.825 306.592 313.09 305.54 313.09H257.34C256.18 313.091 255.042 312.77 254.053 312.162C253.065 311.555 252.264 310.685 251.74 309.65L239.64 285.65C239.158 284.695 238.929 283.632 238.975 282.563C239.02 281.494 239.339 280.455 239.901 279.544C240.462 278.633 241.248 277.882 242.183 277.361C243.118 276.84 244.17 276.568 245.24 276.57H294.42C295.614 276.567 296.784 276.906 297.79 277.548C298.797 278.189 299.599 279.106 300.1 280.19Z" fill="white" stroke="#58595B" stroke-width="2" stroke-miterlimit="10"/>
<path d="M297.56 281.26L308.83 305.57C309.067 306.082 309.171 306.645 309.132 307.208C309.094 307.771 308.915 308.315 308.611 308.79C308.307 309.265 307.888 309.656 307.394 309.927C306.899 310.198 306.344 310.34 305.78 310.34H257.11C256.488 310.34 255.878 310.167 255.348 309.84C254.818 309.513 254.39 309.046 254.11 308.49L241.85 284.18C241.592 283.669 241.469 283.099 241.493 282.527C241.518 281.954 241.689 281.398 241.99 280.91C242.291 280.423 242.712 280.021 243.212 279.742C243.713 279.464 244.277 279.318 244.85 279.32H294.51C295.151 279.318 295.779 279.499 296.319 279.843C296.86 280.187 297.29 280.679 297.56 281.26Z" fill="white" stroke="#58595B" stroke-width="2" stroke-miterlimit="10"/>
<path d="M297.95 310L283.24 279.93" stroke="#58595B" stroke-width="2" stroke-miterlimit="10"/>
<path d="M283.24 310.34L269.45 279.93" stroke="#58595B" stroke-width="2" stroke-miterlimit="10"/>
<path d="M268.33 310.34L253.95 279.93" stroke="#58595B" stroke-width="2" stroke-miterlimit="10"/>
<path d="M300.12 287.44H243.2" stroke="#58595B" stroke-width="2" stroke-miterlimit="10"/>
<path d="M304.38 295.13H247.46" stroke="#58595B" stroke-width="2" stroke-miterlimit="10"/>
<path d="M307.45 302.8H250.53" stroke="#58595B" stroke-width="2" stroke-miterlimit="10"/>
<path d="M282.12 313.78V325.72" stroke="#58595B" stroke-width="2" stroke-miterlimit="10"/>
<path d="M294.14 326.56H270.1" stroke="#58595B" stroke-width="2" stroke-miterlimit="10"/>
<path d="M1770.1 280.19L1781.23 304.19C1781.67 305.145 1781.87 306.196 1781.79 307.246C1781.72 308.296 1781.39 309.311 1780.82 310.197C1780.25 311.084 1779.47 311.814 1778.55 312.319C1777.63 312.825 1776.59 313.09 1775.54 313.09H1727.34C1726.18 313.091 1725.04 312.77 1724.05 312.162C1723.06 311.555 1722.26 310.685 1721.74 309.65L1709.64 285.65C1709.16 284.695 1708.93 283.632 1708.97 282.563C1709.02 281.494 1709.34 280.455 1709.9 279.544C1710.46 278.633 1711.25 277.882 1712.18 277.361C1713.12 276.84 1714.17 276.568 1715.24 276.57H1764.42C1765.61 276.567 1766.78 276.906 1767.79 277.548C1768.8 278.189 1769.6 279.106 1770.1 280.19Z" fill="white" stroke="#58595B" stroke-width="2" stroke-miterlimit="10"/>
<path d="M1767.56 281.26L1778.83 305.57C1779.06 306.078 1779.17 306.637 1779.13 307.196C1779.1 307.754 1778.92 308.295 1778.62 308.769C1778.33 309.243 1777.91 309.635 1777.43 309.909C1776.94 310.184 1776.39 310.332 1775.83 310.34H1727.16C1726.54 310.34 1725.93 310.167 1725.4 309.84C1724.87 309.513 1724.44 309.046 1724.16 308.49L1711.9 284.18C1711.64 283.669 1711.52 283.099 1711.54 282.527C1711.57 281.955 1711.74 281.398 1712.04 280.91C1712.34 280.423 1712.76 280.021 1713.26 279.742C1713.76 279.464 1714.33 279.318 1714.9 279.32H1764.56C1765.19 279.327 1765.81 279.513 1766.34 279.857C1766.87 280.2 1767.29 280.687 1767.56 281.26Z" fill="white" stroke="#58595B" stroke-width="2" stroke-miterlimit="10"/>
<path d="M1767.95 310L1753.24 279.93" stroke="#58595B" stroke-width="2" stroke-miterlimit="10"/>
<path d="M1753.24 310.34L1739.45 279.93" stroke="#58595B" stroke-width="2" stroke-miterlimit="10"/>
<path d="M1738.33 310.34L1723.95 279.93" stroke="#58595B" stroke-width="2" stroke-miterlimit="10"/>
<path d="M1770.12 287.44H1713.2" stroke="#58595B" stroke-width="2" stroke-miterlimit="10"/>
<path d="M1774.38 295.13H1717.46" stroke="#58595B" stroke-width="2" stroke-miterlimit="10"/>
<path d="M1777.45 302.8H1720.53" stroke="#58595B" stroke-width="2" stroke-miterlimit="10"/>
<path d="M1752.12 313.78V325.72" stroke="#58595B" stroke-width="2" stroke-miterlimit="10"/>
<path d="M1764.14 326.56H1740.1" stroke="#58595B" stroke-width="2" stroke-miterlimit="10"/>
<path d="M1700.1 280.19L1711.23 304.19C1711.67 305.145 1711.87 306.196 1711.79 307.246C1711.72 308.296 1711.39 309.311 1710.82 310.197C1710.25 311.084 1709.47 311.814 1708.55 312.319C1707.63 312.825 1706.59 313.09 1705.54 313.09H1657.34C1656.18 313.091 1655.04 312.77 1654.05 312.162C1653.06 311.555 1652.26 310.685 1651.74 309.65L1639.64 285.65C1639.16 284.695 1638.93 283.632 1638.97 282.563C1639.02 281.494 1639.34 280.455 1639.9 279.544C1640.46 278.633 1641.25 277.882 1642.18 277.361C1643.12 276.84 1644.17 276.568 1645.24 276.57H1694.42C1695.61 276.567 1696.78 276.906 1697.79 277.548C1698.8 278.189 1699.6 279.106 1700.1 280.19Z" fill="white" stroke="#58595B" stroke-width="2" stroke-miterlimit="10"/>
<path d="M1697.56 281.26L1708.83 305.57C1709.06 306.078 1709.17 306.637 1709.13 307.196C1709.1 307.754 1708.92 308.295 1708.62 308.769C1708.33 309.243 1707.91 309.635 1707.43 309.909C1706.94 310.184 1706.39 310.332 1705.83 310.34H1657.16C1656.54 310.34 1655.93 310.167 1655.4 309.84C1654.87 309.513 1654.44 309.046 1654.16 308.49L1641.9 284.18C1641.64 283.669 1641.52 283.099 1641.54 282.527C1641.57 281.955 1641.74 281.398 1642.04 280.91C1642.34 280.423 1642.76 280.021 1643.26 279.742C1643.76 279.464 1644.33 279.318 1644.9 279.32H1694.56C1695.19 279.327 1695.81 279.513 1696.34 279.857C1696.87 280.2 1697.29 280.687 1697.56 281.26Z" fill="white" stroke="#58595B" stroke-width="2" stroke-miterlimit="10"/>
<path d="M1697.95 310L1683.24 279.93" stroke="#58595B" stroke-width="2" stroke-miterlimit="10"/>
<path d="M1683.24 310.34L1669.45 279.93" stroke="#58595B" stroke-width="2" stroke-miterlimit="10"/>
<path d="M1668.33 310.34L1653.95 279.93" stroke="#58595B" stroke-width="2" stroke-miterlimit="10"/>
<path d="M1700.12 287.44H1643.2" stroke="#58595B" stroke-width="2" stroke-miterlimit="10"/>
<path d="M1704.38 295.13H1647.46" stroke="#58595B" stroke-width="2" stroke-miterlimit="10"/>
<path d="M1707.45 302.8H1650.53" stroke="#58595B" stroke-width="2" stroke-miterlimit="10"/>
<path d="M1682.12 313.78V325.72" stroke="#58595B" stroke-width="2" stroke-miterlimit="10"/>
<path d="M1694.14 326.56H1670.1" stroke="#58595B" stroke-width="2" stroke-miterlimit="10"/>
<path d="M223.79 280.19L234.91 304.19C235.354 305.144 235.55 306.195 235.48 307.245C235.41 308.295 235.077 309.311 234.511 310.198C233.945 311.085 233.164 311.815 232.241 312.32C231.318 312.826 230.282 313.091 229.23 313.09H181C179.841 313.09 178.705 312.769 177.718 312.161C176.731 311.554 175.932 310.685 175.41 309.65L163.31 285.65C162.828 284.696 162.599 283.634 162.644 282.565C162.69 281.497 163.008 280.459 163.568 279.548C164.129 278.638 164.913 277.886 165.846 277.365C166.78 276.843 167.831 276.57 168.9 276.57H218.1C219.295 276.569 220.465 276.909 221.473 277.55C222.481 278.191 223.285 279.107 223.79 280.19Z" fill="white" stroke="#58595B" stroke-width="2" stroke-miterlimit="10"/>
<path d="M221.25 281.26L232.51 305.57C232.745 306.078 232.849 306.637 232.813 307.196C232.778 307.754 232.603 308.295 232.305 308.769C232.006 309.243 231.595 309.635 231.107 309.909C230.619 310.184 230.07 310.332 229.51 310.34H180.8C180.178 310.34 179.568 310.167 179.038 309.84C178.508 309.513 178.08 309.046 177.8 308.49L165.55 284.18C165.292 283.669 165.169 283.099 165.193 282.527C165.218 281.954 165.389 281.398 165.69 280.91C165.991 280.423 166.412 280.021 166.912 279.742C167.413 279.464 167.977 279.318 168.55 279.32H218.2C218.841 279.318 219.469 279.499 220.009 279.843C220.55 280.187 220.98 280.679 221.25 281.26Z" fill="white" stroke="#58595B" stroke-width="2" stroke-miterlimit="10"/>
<path d="M221.64 310L206.92 279.93" stroke="#58595B" stroke-width="2" stroke-miterlimit="10"/>
<path d="M206.92 310.34L193.14 279.93" stroke="#58595B" stroke-width="2" stroke-miterlimit="10"/>
<path d="M192.02 310.34L177.63 279.93" stroke="#58595B" stroke-width="2" stroke-miterlimit="10"/>
<path d="M223.81 287.44H166.89" stroke="#58595B" stroke-width="2" stroke-miterlimit="10"/>
<path d="M228.07 295.13H171.15" stroke="#58595B" stroke-width="2" stroke-miterlimit="10"/>
<path d="M231.14 302.8H174.22" stroke="#58595B" stroke-width="2" stroke-miterlimit="10"/>
<path d="M205.8 313.78V325.72" stroke="#58595B" stroke-width="2" stroke-miterlimit="10"/>
<path d="M217.82 326.56H193.78" stroke="#58595B" stroke-width="2" stroke-miterlimit="10"/>
<path d="M423.4 55.39L426.69 49C426.725 48.9277 426.782 48.8681 426.852 48.8292C426.923 48.7904 427.003 48.7742 427.083 48.783C427.163 48.7917 427.238 48.825 427.299 48.8781C427.359 48.9313 427.401 49.0018 427.42 49.08L429.25 56.08C429.267 56.1414 429.268 56.206 429.254 56.2681C429.24 56.3302 429.211 56.3879 429.17 56.4363C429.128 56.4846 429.076 56.522 429.017 56.5453C428.957 56.5687 428.893 56.5771 428.83 56.57L423.71 56C423.64 55.9979 423.572 55.9769 423.513 55.9394C423.454 55.9019 423.406 55.8492 423.374 55.7869C423.343 55.7245 423.328 55.6547 423.333 55.5849C423.337 55.5151 423.36 55.4477 423.4 55.39Z" stroke="#58595B" stroke-width="2" stroke-miterlimit="10" stroke-linecap="round"/>
<path d="M425.05 94.57L421.76 101C421.725 101.072 421.668 101.132 421.598 101.171C421.527 101.21 421.447 101.226 421.367 101.217C421.287 101.208 421.212 101.175 421.151 101.122C421.091 101.069 421.049 100.998 421.03 100.92L419.2 93.92C419.183 93.8586 419.182 93.794 419.196 93.7319C419.21 93.6698 419.239 93.6121 419.28 93.5637C419.322 93.5154 419.374 93.478 419.433 93.4546C419.493 93.4313 419.557 93.4229 419.62 93.43L424.74 93.99C424.804 93.9974 424.866 94.0203 424.919 94.0567C424.973 94.093 425.016 94.1418 425.047 94.1988C425.077 94.2558 425.094 94.3194 425.094 94.384C425.095 94.4487 425.08 94.5125 425.05 94.57Z" stroke="#58595B" stroke-width="2" stroke-miterlimit="10" stroke-linecap="round"/>
<path d="M443.81 74.16L450.23 77.45C450.302 77.4852 450.362 77.5418 450.401 77.6122C450.44 77.6826 450.456 77.7633 450.447 77.8432C450.438 77.9231 450.405 77.9983 450.352 78.0586C450.299 78.1189 450.228 78.1613 450.15 78.18L443.15 80.01C443.089 80.0267 443.024 80.0282 442.962 80.0142C442.9 80.0002 442.842 79.9712 442.794 79.9298C442.745 79.8884 442.708 79.8358 442.685 79.7765C442.661 79.7173 442.653 79.6533 442.66 79.59L443.22 74.46C443.223 74.3927 443.244 74.3274 443.28 74.2708C443.317 74.2142 443.367 74.1683 443.427 74.1377C443.487 74.1072 443.554 74.0932 443.622 74.0971C443.689 74.101 443.754 74.1227 443.81 74.16Z" stroke="#58595B" stroke-width="2" stroke-miterlimit="10" stroke-linecap="round"/>
<path d="M404.63 75.8L398.21 72.51C398.142 72.4714 398.087 72.4138 398.052 72.3443C398.016 72.2747 398.002 72.1963 398.01 72.1187C398.019 72.0411 398.05 71.9677 398.099 71.9075C398.149 71.8473 398.215 71.803 398.29 71.78L405.29 69.95C405.351 69.9333 405.416 69.9319 405.478 69.9458C405.54 69.9598 405.598 69.9888 405.646 70.0302C405.695 70.0716 405.732 70.1243 405.755 70.1835C405.779 70.2427 405.787 70.3068 405.78 70.37L405.22 75.5C405.214 75.566 405.192 75.6294 405.155 75.6843C405.118 75.7392 405.067 75.7837 405.008 75.8137C404.949 75.8437 404.884 75.8582 404.817 75.8558C404.751 75.8534 404.687 75.8342 404.63 75.8Z" stroke="#58595B" stroke-width="2" stroke-miterlimit="10" stroke-linecap="round"/>
<path d="M437.49 60.55L444.36 58.33C444.436 58.3079 444.517 58.3091 444.593 58.3332C444.669 58.3574 444.735 58.4035 444.785 58.4657C444.834 58.5279 444.864 58.6033 444.87 58.6824C444.876 58.7616 444.859 58.8408 444.82 58.91L441.18 65.13C441.15 65.1866 441.106 65.2347 441.053 65.2699C440.999 65.305 440.938 65.3261 440.874 65.3311C440.81 65.336 440.746 65.3248 440.687 65.2984C440.629 65.272 440.578 65.2313 440.54 65.18L437.31 61.18C437.264 61.1321 437.232 61.073 437.216 61.0087C437.2 60.9445 437.202 60.8772 437.22 60.8135C437.238 60.7498 437.272 60.692 437.32 60.6458C437.367 60.5996 437.426 60.5666 437.49 60.55Z" stroke="#58595B" stroke-width="2" stroke-miterlimit="10" stroke-linecap="round"/>
<path d="M411 89.42L404.14 91.63C404.064 91.6557 403.983 91.6576 403.906 91.6354C403.829 91.6132 403.761 91.5679 403.711 91.5057C403.661 91.4435 403.631 91.3674 403.625 91.2877C403.62 91.208 403.639 91.1285 403.68 91.06L407.32 84.83C407.354 84.7763 407.402 84.7322 407.458 84.7016C407.514 84.671 407.576 84.6549 407.64 84.6549C407.704 84.6549 407.766 84.671 407.822 84.7016C407.878 84.7322 407.926 84.7763 407.96 84.83L411.19 88.83C411.224 88.8793 411.247 88.9357 411.255 88.995C411.264 89.0544 411.259 89.1149 411.241 89.172C411.222 89.2291 411.191 89.2811 411.149 89.3241C411.108 89.3672 411.056 89.4 411 89.42Z" stroke="#58595B" stroke-width="2" stroke-miterlimit="10" stroke-linecap="round"/>
<path d="M438.66 88.25L440.87 95.12C440.896 95.1956 440.898 95.2774 440.875 95.3541C440.853 95.4309 440.808 95.499 440.746 95.5492C440.684 95.5993 440.607 95.6292 440.528 95.6347C440.448 95.6402 440.368 95.6211 440.3 95.58L434.07 91.94C434.015 91.9071 433.969 91.8616 433.936 91.8073C433.902 91.753 433.882 91.6915 433.877 91.6279C433.872 91.5643 433.883 91.5004 433.908 91.4416C433.932 91.3828 433.971 91.3309 434.02 91.29L438.02 88.06C438.071 88.0174 438.131 87.9881 438.196 87.9747C438.261 87.9612 438.328 87.964 438.391 87.9828C438.455 88.0016 438.512 88.0359 438.559 88.0825C438.606 88.1292 438.641 88.1867 438.66 88.25Z" stroke="#58595B" stroke-width="2" stroke-miterlimit="10" stroke-linecap="round"/>
<path d="M409.79 61.71L407.58 54.84C407.554 54.7644 407.552 54.6826 407.575 54.6059C407.597 54.5291 407.642 54.461 407.704 54.4108C407.766 54.3607 407.843 54.3308 407.922 54.3253C408.002 54.3198 408.082 54.3389 408.15 54.38L414.38 58C414.435 58.0329 414.481 58.0784 414.514 58.1327C414.548 58.187 414.568 58.2485 414.573 58.3121C414.578 58.3757 414.567 58.4396 414.542 58.4984C414.518 58.5572 414.479 58.6091 414.43 58.65L410.43 61.88C410.382 61.9254 410.323 61.9577 410.258 61.9739C410.194 61.9902 410.127 61.9898 410.063 61.9727C409.999 61.9557 409.94 61.9227 409.892 61.8767C409.845 61.8307 409.809 61.7734 409.79 61.71Z" stroke="#58595B" stroke-width="2" stroke-miterlimit="10" stroke-linecap="round"/>
<path d="M431 56.58L436.51 51.91C436.57 51.8585 436.645 51.8265 436.723 51.8183C436.802 51.8101 436.881 51.826 436.951 51.864C437.02 51.902 437.077 51.9602 437.112 52.0309C437.148 52.1017 437.161 52.1816 437.15 52.26L436.15 59.41C436.141 59.4722 436.118 59.5313 436.081 59.5824C436.045 59.6336 435.997 59.6751 435.941 59.7036C435.885 59.7321 435.823 59.7466 435.76 59.746C435.697 59.7453 435.635 59.7296 435.58 59.7L431.06 57.22C431.007 57.1876 430.961 57.1432 430.928 57.0903C430.895 57.0373 430.875 56.9773 430.869 56.9151C430.863 56.8529 430.872 56.7902 430.895 56.732C430.917 56.6738 430.953 56.6217 431 56.58Z" stroke="#58595B" stroke-width="2" stroke-miterlimit="10" stroke-linecap="round"/>
<path d="M417.46 93.39L412 98.05C411.94 98.1015 411.865 98.1335 411.787 98.1417C411.708 98.1499 411.629 98.134 411.559 98.096C411.49 98.058 411.433 97.9998 411.398 97.929C411.362 97.8583 411.349 97.7784 411.36 97.7L412.36 90.55C412.369 90.4878 412.392 90.4286 412.429 90.3775C412.465 90.3264 412.513 90.2849 412.569 90.2564C412.625 90.2279 412.687 90.2134 412.75 90.214C412.813 90.2146 412.875 90.2304 412.93 90.26L417.45 92.74C417.502 92.7762 417.545 92.8244 417.575 92.8804C417.605 92.9365 417.621 92.9989 417.622 93.0624C417.623 93.126 417.609 93.1888 417.581 93.2458C417.552 93.3027 417.511 93.3522 417.46 93.39Z" stroke="#58595B" stroke-width="2" stroke-miterlimit="10" stroke-linecap="round"/>
<path d="M442.63 81.74L447.29 87.25C447.342 87.3101 447.373 87.3845 447.382 87.4633C447.39 87.542 447.374 87.6214 447.336 87.6909C447.298 87.7603 447.24 87.8166 447.169 87.8522C447.098 87.8877 447.018 87.9009 446.94 87.89L439.79 86.89C439.728 86.8798 439.668 86.8549 439.617 86.8174C439.566 86.7798 439.525 86.7307 439.497 86.6741C439.468 86.6175 439.454 86.555 439.455 86.4917C439.455 86.4284 439.471 86.3661 439.5 86.31L442 81.81C442.03 81.756 442.073 81.7099 442.125 81.6757C442.176 81.6415 442.235 81.6201 442.297 81.6133C442.359 81.6064 442.421 81.6143 442.479 81.6364C442.537 81.6584 442.589 81.6939 442.63 81.74Z" stroke="#58595B" stroke-width="2" stroke-miterlimit="10" stroke-linecap="round"/>
<path d="M405.82 68.22L401.16 62.72C401.105 62.6604 401.069 62.5849 401.059 62.5041C401.049 62.4234 401.064 62.3415 401.102 62.2698C401.141 62.1981 401.201 62.1403 401.274 62.1045C401.347 62.0687 401.43 62.0566 401.51 62.07L408.65 63.07C408.714 63.078 408.774 63.1016 408.827 63.1387C408.879 63.1758 408.921 63.2252 408.95 63.2825C408.979 63.3399 408.993 63.4034 408.991 63.4675C408.989 63.5316 408.972 63.5943 408.94 63.65L406.46 68.17C406.428 68.2246 406.384 68.2707 406.33 68.3043C406.277 68.3379 406.216 68.3581 406.153 68.363C406.09 68.3679 406.027 68.3574 405.969 68.3325C405.911 68.3076 405.86 68.269 405.82 68.22Z" stroke="#58595B" stroke-width="2" stroke-miterlimit="10" stroke-linecap="round"/>
<path d="M442 66.75L449.19 67.34C449.269 67.347 449.343 67.3776 449.404 67.4278C449.465 67.4781 449.509 67.5455 449.53 67.6213C449.552 67.6971 449.55 67.7777 449.525 67.8524C449.5 67.9272 449.453 67.9926 449.39 68.04L443.64 72.4C443.59 72.4382 443.531 72.4636 443.469 72.4741C443.406 72.4846 443.343 72.4797 443.283 72.4601C443.223 72.4404 443.168 72.4065 443.124 72.3612C443.08 72.3159 443.048 72.2605 443.03 72.2L441.59 67.2C441.581 67.1423 441.585 67.0832 441.602 67.0272C441.618 66.9712 441.648 66.9197 441.687 66.8765C441.726 66.8333 441.775 66.7995 441.829 66.7776C441.883 66.7557 441.942 66.7463 442 66.75Z" stroke="#58595B" stroke-width="2" stroke-miterlimit="10" stroke-linecap="round"/>
<path d="M406.43 83.21L399.24 82.62C399.161 82.613 399.087 82.5824 399.026 82.5322C398.965 82.4819 398.921 82.4145 398.9 82.3387C398.878 82.2629 398.88 82.1823 398.905 82.1076C398.93 82.0328 398.977 81.9674 399.04 81.92L404.79 77.56C404.841 77.5219 404.9 77.4968 404.963 77.487C405.026 77.4771 405.09 77.4828 405.151 77.5035C405.211 77.5242 405.265 77.5593 405.308 77.6058C405.352 77.6522 405.383 77.7086 405.4 77.77L406.84 82.71C406.858 82.7712 406.861 82.8359 406.849 82.8985C406.836 82.9611 406.808 83.0196 406.768 83.069C406.727 83.1184 406.675 83.157 406.617 83.1816C406.558 83.2062 406.494 83.216 406.43 83.21Z" stroke="#58595B" stroke-width="2" stroke-miterlimit="10" stroke-linecap="round"/>
<path d="M432.46 92.78L431.86 99.97C431.853 100.049 431.822 100.123 431.772 100.184C431.722 100.245 431.654 100.289 431.579 100.31C431.503 100.332 431.422 100.33 431.348 100.305C431.273 100.28 431.207 100.233 431.16 100.17L426.81 94.42C426.77 94.3696 426.742 94.31 426.731 94.2465C426.719 94.183 426.723 94.1176 426.743 94.0561C426.763 93.9946 426.798 93.9391 426.844 93.8944C426.891 93.8497 426.948 93.8172 427.01 93.8L432 92.37C432.058 92.3592 432.119 92.3619 432.176 92.3779C432.233 92.3939 432.286 92.4228 432.33 92.4624C432.375 92.5019 432.41 92.5511 432.432 92.6062C432.454 92.6612 432.464 92.7207 432.46 92.78Z" stroke="#58595B" stroke-width="2" stroke-miterlimit="10" stroke-linecap="round"/>
<path d="M416 57.19L416.6 50C416.605 49.9206 416.635 49.8448 416.684 49.7826C416.734 49.7204 416.801 49.6748 416.877 49.652C416.953 49.6291 417.035 49.6301 417.11 49.6548C417.186 49.6794 417.252 49.7266 417.3 49.79L421.65 55.54C421.688 55.5911 421.713 55.6506 421.724 55.7135C421.734 55.7764 421.729 55.8409 421.71 55.9015C421.69 55.9622 421.656 56.0173 421.611 56.0622C421.566 56.1072 421.511 56.1407 421.45 56.16L416.5 57.59C416.44 57.6079 416.376 57.6109 416.314 57.5988C416.252 57.5867 416.195 57.5599 416.145 57.5206C416.096 57.4813 416.057 57.4307 416.032 57.3732C416.007 57.3156 415.996 57.2527 416 57.19Z" stroke="#58595B" stroke-width="2" stroke-miterlimit="10" stroke-linecap="round"/>
<path d="M424.67 96.28C436.406 96.28 445.92 86.766 445.92 75.03C445.92 63.2939 436.406 53.78 424.67 53.78C412.934 53.78 403.42 63.2939 403.42 75.03C403.42 86.766 412.934 96.28 424.67 96.28Z" fill="white" stroke="#58595B" stroke-width="2" stroke-miterlimit="10" stroke-linecap="round"/>
<path d="M980.165 256.017L983.188 264.588H983.307L986.33 256.017H987.623L983.884 266.199H982.611L978.873 256.017H980.165ZM997.321 261.108C997.321 262.182 997.127 263.11 996.739 263.892C996.351 264.674 995.82 265.277 995.143 265.701C994.467 266.126 993.695 266.338 992.827 266.338C991.958 266.338 991.186 266.126 990.51 265.701C989.834 265.277 989.302 264.674 988.914 263.892C988.526 263.11 988.332 262.182 988.332 261.108C988.332 260.034 988.526 259.106 988.914 258.324C989.302 257.541 989.834 256.938 990.51 256.514C991.186 256.09 991.958 255.878 992.827 255.878C993.695 255.878 994.467 256.09 995.143 256.514C995.82 256.938 996.351 257.541 996.739 258.324C997.127 259.106 997.321 260.034 997.321 261.108ZM996.128 261.108C996.128 260.226 995.98 259.482 995.685 258.875C995.394 258.269 994.998 257.81 994.497 257.498C994 257.187 993.443 257.031 992.827 257.031C992.21 257.031 991.652 257.187 991.151 257.498C990.654 257.81 990.258 258.269 989.963 258.875C989.671 259.482 989.525 260.226 989.525 261.108C989.525 261.989 989.671 262.733 989.963 263.34C990.258 263.946 990.654 264.406 991.151 264.717C991.652 265.029 992.21 265.184 992.827 265.184C993.443 265.184 994 265.029 994.497 264.717C994.998 264.406 995.394 263.946 995.685 263.34C995.98 262.733 996.128 261.989 996.128 261.108ZM999.394 266.199V256.017H1000.63V265.105H1005.36V266.199H999.394ZM1005.36 257.111V256.017H1013V257.111H1009.79V266.199H1008.56V257.111H1005.36ZM1021.98 266.199H1018.84V256.017H1022.12C1023.1 256.017 1023.95 256.221 1024.65 256.628C1025.35 257.033 1025.89 257.614 1026.27 258.373C1026.64 259.129 1026.83 260.034 1026.83 261.088C1026.83 262.148 1026.64 263.062 1026.26 263.827C1025.89 264.589 1025.34 265.176 1024.61 265.587C1023.89 265.995 1023.01 266.199 1021.98 266.199ZM1020.07 265.105H1021.9C1022.74 265.105 1023.44 264.942 1023.99 264.618C1024.54 264.293 1024.96 263.83 1025.23 263.231C1025.5 262.631 1025.64 261.916 1025.64 261.088C1025.64 260.266 1025.5 259.558 1025.23 258.965C1024.97 258.368 1024.56 257.911 1024.03 257.593C1023.5 257.271 1022.83 257.111 1022.04 257.111H1020.07V265.105ZM1028.9 266.199V256.017H1035.04V257.111H1030.13V260.551H1034.72V261.645H1030.13V265.105H1035.12V266.199H1028.9ZM1042.83 258.562C1042.77 258.058 1042.53 257.667 1042.11 257.389C1041.68 257.111 1041.16 256.971 1040.55 256.971C1040.1 256.971 1039.7 257.044 1039.36 257.19C1039.03 257.336 1038.77 257.536 1038.58 257.792C1038.39 258.047 1038.3 258.337 1038.3 258.662C1038.3 258.933 1038.36 259.167 1038.49 259.363C1038.63 259.555 1038.79 259.716 1039 259.845C1039.21 259.971 1039.42 260.075 1039.65 260.158C1039.87 260.238 1040.08 260.302 1040.27 260.352L1041.3 260.63C1041.57 260.7 1041.86 260.796 1042.19 260.919C1042.52 261.041 1042.83 261.209 1043.13 261.421C1043.43 261.63 1043.68 261.898 1043.87 262.226C1044.07 262.554 1044.17 262.957 1044.17 263.434C1044.17 263.985 1044.02 264.482 1043.73 264.926C1043.45 265.37 1043.03 265.723 1042.48 265.985C1041.93 266.247 1041.27 266.378 1040.49 266.378C1039.76 266.378 1039.13 266.26 1038.59 266.025C1038.06 265.789 1037.64 265.461 1037.34 265.04C1037.04 264.619 1036.87 264.13 1036.83 263.574H1038.1C1038.13 263.958 1038.26 264.276 1038.49 264.528C1038.72 264.777 1039.01 264.962 1039.35 265.085C1039.7 265.204 1040.08 265.264 1040.49 265.264C1040.96 265.264 1041.38 265.188 1041.75 265.035C1042.13 264.879 1042.43 264.664 1042.64 264.389C1042.86 264.111 1042.97 263.786 1042.97 263.415C1042.97 263.076 1042.88 262.801 1042.69 262.589C1042.5 262.377 1042.25 262.205 1041.94 262.072C1041.64 261.94 1041.3 261.824 1040.94 261.724L1039.69 261.366C1038.9 261.138 1038.27 260.811 1037.8 260.387C1037.34 259.963 1037.11 259.407 1037.11 258.721C1037.11 258.151 1037.26 257.654 1037.57 257.23C1037.88 256.802 1038.3 256.471 1038.82 256.236C1039.35 255.997 1039.94 255.878 1040.59 255.878C1041.24 255.878 1041.83 255.995 1042.34 256.231C1042.85 256.463 1043.25 256.781 1043.55 257.185C1043.85 257.589 1044.01 258.048 1044.03 258.562H1042.83ZM1045.64 257.111V256.017H1053.27V257.111H1050.07V266.199H1048.84V257.111H1045.64ZM1055.18 266.199V256.017H1061.32V257.111H1056.41V260.551H1061V261.645H1056.41V265.105H1061.4V266.199H1055.18ZM1063.54 266.199V256.017H1064.78V261.068H1064.89L1069.47 256.017H1071.08L1066.8 260.611L1071.08 266.199H1069.59L1066.05 261.466L1064.78 262.897V266.199H1063.54Z" fill="black"/>
<path d="M1097.42 263.294C1097.42 264.061 1097.29 264.724 1097.01 265.283C1096.73 265.842 1096.35 266.273 1095.87 266.576C1095.39 266.879 1094.83 267.03 1094.21 267.03C1093.59 267.03 1093.04 266.879 1092.56 266.576C1092.08 266.273 1091.7 265.842 1091.42 265.283C1091.14 264.724 1091 264.061 1091 263.294C1091 262.527 1091.14 261.864 1091.42 261.306C1091.7 260.747 1092.08 260.316 1092.56 260.013C1093.04 259.71 1093.59 259.559 1094.21 259.559C1094.83 259.559 1095.39 259.71 1095.87 260.013C1096.35 260.316 1096.73 260.747 1097.01 261.306C1097.29 261.864 1097.42 262.527 1097.42 263.294ZM1096.57 263.294C1096.57 262.665 1096.47 262.133 1096.26 261.7C1096.05 261.267 1095.76 260.939 1095.41 260.716C1095.05 260.494 1094.65 260.382 1094.21 260.382C1093.77 260.382 1093.37 260.494 1093.02 260.716C1092.66 260.939 1092.38 261.267 1092.17 261.7C1091.96 262.133 1091.86 262.665 1091.86 263.294C1091.86 263.924 1091.96 264.456 1092.17 264.889C1092.38 265.322 1092.66 265.65 1093.02 265.872C1093.37 266.095 1093.77 266.206 1094.21 266.206C1094.65 266.206 1095.05 266.095 1095.41 265.872C1095.76 265.65 1096.05 265.322 1096.26 264.889C1096.47 264.456 1096.57 263.924 1096.57 263.294ZM1098.9 266.931V259.658H1099.79V266.149H1103.17V266.931H1098.9ZM1103.16 260.439V259.658H1108.62V260.439H1106.33V266.931H1105.45V260.439H1103.16ZM1115.04 266.931H1112.79V259.658H1115.13C1115.84 259.658 1116.44 259.804 1116.95 260.095C1117.45 260.384 1117.83 260.799 1118.1 261.341C1118.37 261.881 1118.5 262.527 1118.5 263.28C1118.5 264.038 1118.37 264.69 1118.1 265.237C1117.83 265.781 1117.43 266.2 1116.92 266.494C1116.4 266.785 1115.77 266.931 1115.04 266.931ZM1113.67 266.149H1114.98C1115.58 266.149 1116.08 266.033 1116.47 265.801C1116.87 265.569 1117.16 265.239 1117.36 264.811C1117.55 264.382 1117.65 263.872 1117.65 263.28C1117.65 262.693 1117.55 262.188 1117.36 261.764C1117.17 261.338 1116.88 261.011 1116.5 260.784C1116.12 260.554 1115.65 260.439 1115.08 260.439H1113.67V266.149Z" fill="black"/>
<path d="M1141.06 255.864L1144.08 264.435H1144.2L1147.22 255.864H1148.51L1144.78 266.046H1143.5L1139.76 255.864H1141.06ZM1158.21 260.955C1158.21 262.029 1158.02 262.957 1157.63 263.739C1157.24 264.521 1156.71 265.125 1156.04 265.549C1155.36 265.973 1154.59 266.185 1153.72 266.185C1152.85 266.185 1152.08 265.973 1151.4 265.549C1150.73 265.125 1150.19 264.521 1149.81 263.739C1149.42 262.957 1149.22 262.029 1149.22 260.955C1149.22 259.881 1149.42 258.953 1149.81 258.171C1150.19 257.389 1150.73 256.786 1151.4 256.361C1152.08 255.937 1152.85 255.725 1153.72 255.725C1154.59 255.725 1155.36 255.937 1156.04 256.361C1156.71 256.786 1157.24 257.389 1157.63 258.171C1158.02 258.953 1158.21 259.881 1158.21 260.955ZM1157.02 260.955C1157.02 260.073 1156.87 259.329 1156.58 258.723C1156.29 258.116 1155.89 257.657 1155.39 257.346C1154.89 257.034 1154.34 256.878 1153.72 256.878C1153.1 256.878 1152.54 257.034 1152.04 257.346C1151.55 257.657 1151.15 258.116 1150.86 258.723C1150.56 259.329 1150.42 260.073 1150.42 260.955C1150.42 261.837 1150.56 262.581 1150.86 263.187C1151.15 263.794 1151.55 264.253 1152.04 264.564C1152.54 264.876 1153.1 265.032 1153.72 265.032C1154.34 265.032 1154.89 264.876 1155.39 264.564C1155.89 264.253 1156.29 263.794 1156.58 263.187C1156.87 262.581 1157.02 261.837 1157.02 260.955ZM1160.29 266.046V255.864H1161.52V264.952H1166.25V266.046H1160.29ZM1166.25 256.958V255.864H1173.89V256.958H1170.69V266.046H1169.45V256.958H1166.25ZM1182.87 266.046H1179.73V255.864H1183.01C1184 255.864 1184.84 256.068 1185.54 256.476C1186.25 256.88 1186.79 257.462 1187.16 258.221C1187.53 258.976 1187.72 259.881 1187.72 260.935C1187.72 261.996 1187.53 262.909 1187.16 263.674C1186.78 264.437 1186.23 265.023 1185.5 265.434C1184.78 265.842 1183.9 266.046 1182.87 266.046ZM1180.96 264.952H1182.79C1183.63 264.952 1184.33 264.79 1184.88 264.465C1185.44 264.14 1185.85 263.678 1186.12 263.078C1186.39 262.478 1186.53 261.764 1186.53 260.935C1186.53 260.113 1186.39 259.406 1186.13 258.812C1185.86 258.216 1185.46 257.758 1184.92 257.44C1184.39 257.119 1183.72 256.958 1182.93 256.958H1180.96V264.952ZM1189.79 266.046V255.864H1195.94V256.958H1191.02V260.398H1195.62V261.492H1191.02V264.952H1196.01V266.046H1189.79ZM1203.73 258.41C1203.67 257.906 1203.42 257.515 1203 257.236C1202.58 256.958 1202.06 256.819 1201.44 256.819C1200.99 256.819 1200.59 256.892 1200.26 257.037C1199.92 257.183 1199.66 257.384 1199.47 257.639C1199.28 257.894 1199.19 258.184 1199.19 258.509C1199.19 258.781 1199.26 259.014 1199.39 259.21C1199.52 259.402 1199.69 259.563 1199.89 259.692C1200.1 259.818 1200.31 259.923 1200.54 260.005C1200.76 260.085 1200.97 260.15 1201.16 260.199L1202.19 260.478C1202.46 260.547 1202.75 260.643 1203.08 260.766C1203.41 260.889 1203.72 261.056 1204.02 261.268C1204.32 261.477 1204.57 261.746 1204.76 262.074C1204.96 262.402 1205.06 262.804 1205.06 263.282C1205.06 263.832 1204.91 264.329 1204.63 264.773C1204.34 265.217 1203.92 265.57 1203.37 265.832C1202.83 266.094 1202.16 266.225 1201.38 266.225C1200.65 266.225 1200.02 266.107 1199.48 265.872C1198.95 265.637 1198.54 265.308 1198.23 264.888C1197.93 264.467 1197.76 263.978 1197.72 263.421H1198.99C1199.03 263.805 1199.16 264.124 1199.38 264.375C1199.61 264.624 1199.9 264.81 1200.25 264.932C1200.6 265.052 1200.97 265.111 1201.38 265.111C1201.85 265.111 1202.27 265.035 1202.65 264.883C1203.02 264.727 1203.32 264.511 1203.54 264.236C1203.76 263.958 1203.86 263.633 1203.86 263.262C1203.86 262.924 1203.77 262.649 1203.58 262.437C1203.39 262.224 1203.14 262.052 1202.84 261.92C1202.53 261.787 1202.19 261.671 1201.84 261.572L1200.58 261.214C1199.79 260.985 1199.16 260.658 1198.69 260.234C1198.23 259.81 1198 259.255 1198 258.569C1198 257.999 1198.15 257.501 1198.46 257.077C1198.77 256.65 1199.19 256.318 1199.71 256.083C1200.24 255.844 1200.83 255.725 1201.48 255.725C1202.13 255.725 1202.72 255.843 1203.23 256.078C1203.74 256.31 1204.14 256.628 1204.44 257.032C1204.74 257.437 1204.9 257.896 1204.92 258.41H1203.73ZM1206.53 256.958V255.864H1214.16V256.958H1210.96V266.046H1209.73V256.958H1206.53ZM1216.07 266.046V255.864H1222.21V256.958H1217.3V260.398H1221.89V261.492H1217.3V264.952H1222.29V266.046H1216.07ZM1224.43 266.046V255.864H1225.67V260.915H1225.79L1230.36 255.864H1231.97L1227.7 260.458L1231.97 266.046H1230.48L1226.94 261.313L1225.67 262.745V266.046H1224.43Z" fill="black"/>
</g>
<defs>
<clipPath id="clip0_1_2">
<rect width="1920" height="344" fill="white"/>
</clipPath>
</defs>
</svg>
